<?xml version="1.0" encoding="UTF-8"?><svg xmlns="http://www.w3.org/2000/svg" viewBox="0 0 163.4 112.1"><defs><style>.d{fill:#fff;}.e{fill:#8c6e5a;stroke:#fff;stroke-linecap:round;stroke-linejoin:round;stroke-width:3px;}</style></defs><g id="a"/><g id="b"><g id="c"><g><polygon class="e" points="27.6 1.5 1.5 27.6 1.5 110.6 27.6 84.5 135.3 84.5 161.9 58 161.9 1.5 27.6 1.5"/><g><g><path class="d" d="M46,25.9h-4.1c.6,.5,1.3,1.1,1.6,1.5l-1.7,1.5h1.9v6h-7.5v1.4h8.7s0,.7,0,1c-.2,3.1-.5,4.7-1.1,5.3-.5,.6-1.1,.8-1.8,.8-.7,0-1.8,0-3,0,0-.8-.3-1.9-.8-2.6,1,0,2,.1,2.4,0,.4,0,.6,0,.8-.2,.2-.2,.4-.9,.6-2.2h-5.6v5.8h-2.8v-4.6c-2,1.9-4.6,3.5-7.2,4.5-.4-.7-1.2-1.7-1.8-2.2,2.5-.7,5-2,6.9-3.5h-5.1c.4-1.6,.7-4.1,.9-6.1h6.3v-1.3h-7.2v-2.3h4.8c-.5-.7-1.4-1.5-2.2-2.2l.9-.8h-1.4c-.8,1.2-1.6,2.2-2.4,3-.4-.5-1.3-1.5-1.9-1.9,1.4-1.2,2.7-3.1,3.4-5l2.5,.7c-.1,.3-.3,.6-.4,.9h5.2v2.2h-3.4c.6,.5,1.3,1.1,1.6,1.6l-1.5,1.4h10c-.5-.6-1.5-1.5-2.3-2.1l1-.9h-1.9c-.6,.9-1.2,1.7-1.8,2.3-.5-.5-1.5-1.3-2.1-1.6,1.3-1.1,2.4-2.8,3-4.4l2.6,.6c-.1,.3-.3,.7-.4,1h6.5v2.1Zm-12.5,9h-3.9c0,.5-.1,.9-.2,1.4h4v-1.4Zm7.5-3.7h-4.7v1.3h4.7v-1.3Z"/><path class="d" d="M71.6,39.2v3.2h-21v-3.2h21Zm-2-13.6v3.1h-17.1v-3.1h17.1Z"/><path class="d" d="M92.5,32.1c1.5,1.7,3.6,3.1,5.9,3.9-.6,.6-1.5,1.7-2,2.4-1.4-.6-2.8-1.5-3.9-2.6v3.9h-8.6v.7c0,1,.3,1.1,2.2,1.1h5.7c1.5,0,1.8-.4,2-2.5,.6,.4,1.8,.8,2.6,1-.4,3.2-1.3,4-4.3,4h-6.1c-3.7,0-4.8-.7-4.8-3.6v-4c-1,.9-2.2,1.7-3.3,2.3-.4-.5-1.5-1.7-2.1-2.2,2.3-1,4.3-2.6,5.7-4.5h-5.1v-2.5h5.7v-2.3h-4.3v-2.5h4.3v-2.5h2.8v2.5h4.3v-2.5h2.8v2.5h4.5v2.5h-4.5v2.3h5.9v2.5h-5.4Zm-7.7,0c-.3,.5-.6,1-.9,1.4h6.6c-.4-.5-.7-.9-.9-1.4h-4.7Zm5.1,3.7h-5.9v1.6h5.9v-1.6Zm-4.9-6.2h4.3v-2.3h-4.3v2.3Z"/><path class="d" d="M114.6,37.8h-2.1v4.5h-3.2v-4.5h-7.4v-2.4l6.5-10.6h4.2v10.3h2.1v2.6Zm-5.3-2.6v-3.6c0-1,0-2.6,.1-3.6h0c-.4,.9-.9,1.9-1.4,2.8l-2.7,4.3h4.1Z"/><path class="d" d="M126.4,35.3s0,.6,0,1c-.3,4.4-.6,6.3-1.2,7-.4,.5-.9,.7-1.6,.8-.6,0-1.5,0-2.5,0,0-.7-.3-1.7-.7-2.3,.9,0,1.6,0,2,0,.3,0,.5,0,.7-.2,.3-.4,.5-1.5,.7-4.2h-4.6c.3-1,.6-2.4,.9-3.8h-1.8v-2.4h8.8v2.4h-4.7c-.1,.5-.2,1.1-.3,1.6h4.2Zm.3-5.3h-7.2v-6.7h7.2v6.7Zm-2.1-4.8h-3.1v2.8h3.1v-2.8Zm12.8,7.9c.5,0,1.3,0,1.7-.2,0,.7,0,1.4,.2,2-.4,.1-1.1,.2-1.7,.2h-2.5c-2,0-2.4-.9-2.4-2.8h-1.7l-.2-1.7,1.9-.2v-1.4h-2.2v3.9c0,3.4-.4,8.3-2.3,11.4-.4-.4-1.5-1.2-2.1-1.5,1.7-2.9,1.9-7,1.9-10v-6.1h4.6v-4.5h2.7v1.3h4.5v2.2h-4.5v1h3.8l1.7,.3c-.3,1.6-.6,3.4-.9,4.5l-2-.5c0-.5,.2-1.3,.3-2.1h-3.1v1.2l2.2-.2,.2,1.8-2.4,.2h0c0,.7,0,1,.5,1h1.9Zm-3.5,2.8c-.1,3.9-.7,6.8-3.3,8.6-.3-.6-.9-1.5-1.5-1.8,2.1-1.4,2.4-3.6,2.5-6.7h2.3Zm4.3,5.6c.2,0,.3,0,.4,0s.2-.3,.2-.5c0-.4,0-1.2,0-2.2,.4,.4,1.3,.9,1.9,1.1,0,1.1-.2,2.3-.3,2.7-.2,.5-.4,.8-.8,1.1-.3,.2-.9,.3-1.3,.3h-1.3c-.6,0-1.2-.2-1.6-.5-.4-.4-.5-.8-.5-2.2v-5.4h2.3v5.2c0,.1,0,.3,0,.3,0,0,.2,.1,.4,.1h.4Z"/></g><g><path class="d" d="M28.5,61.5h-4.5l-.3-1.4,5-5.8h1.7v5.6h1.2v1.6h-1.2v2h-1.9v-2Zm0-1.6v-2.9l-2.4,2.9h2.4Z"/><path class="d" d="M36.1,62.2l1.2-1.4c.8,.7,1.7,1.1,2.7,1.1s1.3-.3,1.3-.9h0c0-.5-.3-.8-1.9-1.2-1.9-.5-3-1-3-2.8h0c0-1.7,1.3-2.8,3.2-2.8s2.5,.4,3.4,1.2l-1.1,1.5c-.8-.6-1.6-.9-2.4-.9s-1.2,.4-1.2,.8h0c0,.6,.4,.8,2,1.2,1.9,.5,2.9,1.2,2.9,2.8h0c0,1.9-1.4,2.9-3.4,2.9s-2.8-.5-3.9-1.5Z"/><path class="d" d="M44.8,54.3h6.9v1.8h-4.9v1.9h4.3v1.8h-4.3v1.9h5v1.8h-7v-9.2Z"/><path class="d" d="M52.8,58.9h0c0-2.6,2-4.8,4.8-4.8s2.8,.6,3.6,1.4l-1.3,1.5c-.7-.6-1.4-1-2.4-1-1.5,0-2.7,1.3-2.7,2.9h0c0,1.6,1.1,2.9,2.7,2.9s1.7-.4,2.4-1.1l1.3,1.3c-.9,1-2,1.6-3.8,1.6-2.7,0-4.7-2.1-4.7-4.7Z"/><path class="d" d="M61.8,58.9h0c0-2.6,2.1-4.8,4.9-4.8s4.9,2.1,4.9,4.7h0c0,2.6-2.1,4.8-4.9,4.8s-4.9-2.1-4.9-4.7Zm7.7,0h0c0-1.6-1.2-2.9-2.8-2.9s-2.8,1.3-2.8,2.9h0c0,1.6,1.2,2.9,2.8,2.9s2.8-1.3,2.8-2.9Z"/><path class="d" d="M73,54.3h1.9l4.3,5.7v-5.7h2v9.2h-1.7l-4.5-5.8v5.8h-2v-9.2Z"/><path class="d" d="M83.1,54.3h3.6c2.9,0,4.9,2,4.9,4.6h0c0,2.6-2,4.6-4.9,4.6h-3.6v-9.2Zm2,1.8v5.5h1.6c1.7,0,2.8-1.1,2.8-2.7h0c0-1.7-1.1-2.8-2.8-2.8h-1.6Z"/><path class="d" d="M96.7,54.3h2v7.4h4.6v1.8h-6.6v-9.2Z"/><path class="d" d="M107.9,54.2h1.9l3.9,9.3h-2.1l-.8-2.1h-3.9l-.8,2.1h-2.1l3.9-9.3Zm2.1,5.4l-1.2-3-1.2,3h2.4Z"/><path class="d" d="M114.7,54.3h1.9l4.3,5.7v-5.7h2v9.2h-1.7l-4.5-5.8v5.8h-2v-9.2Z"/><path class="d" d="M124.8,54.3h6.9v1.8h-4.9v1.9h4.3v1.8h-4.3v1.9h5v1.8h-7v-9.2Z"/></g></g></g></g></g></svg>