<?xml version="1.0" encoding="UTF-8"?><svg xmlns="http://www.w3.org/2000/svg" viewBox="0 0 182.8 119.7"><defs><style>.d{fill:#fff;}.e{fill:#8c6e5a;stroke:#fff;stroke-linecap:round;stroke-linejoin:round;stroke-width:3px;}</style></defs><g id="a"/><g id="b"><g id="c"><g><polygon class="e" points="155.3 1.5 181.3 27.6 181.3 118.2 155.3 92.2 28 92.2 1.5 65.6 1.5 1.5 155.3 1.5"/><g><g><path class="d" d="M44.9,33.8c.8,0,2.1,0,2.7-.2,0,.8,.2,1.7,.3,2.3-.5,.2-1.8,.2-2.8,.2h-4.7c-2.7,0-3.6-.9-3.6-3.1l-3,.3-.2-2.2,3.2-.3v-1.7h-3.8v4.5c0,3.2-.4,7.8-3,10.6-.4-.4-1.5-1.3-2.1-1.6,2.2-2.6,2.5-6.2,2.5-9v-6.6h6v-4.7h2.8v1.5h8.5v2.2h-8.5v1h8.3l1.9,.4c-.4,1.4-1,3-1.5,4.1l-2.3-.6c.2-.5,.4-1,.6-1.7h-6.7v1.4l5.5-.5,.2,2.1-5.7,.5h0c0,.8,.2,1.1,1,1.1h4.4Zm-6.3,3c0,4.7-.5,6.7-5.6,7.7-.2-.6-.8-1.6-1.3-2,4.1-.6,4.3-1.8,4.3-5.6h2.6Zm8.4,5c.7,0,.8-.4,.9-3,.5,.4,1.6,.8,2.3,.9-.3,3.5-.9,4.3-3,4.3h-2.7c-2.5,0-3.1-.7-3.1-2.9v-4.3h2.6v4.2c0,.7,.1,.8,.9,.8h2Z"/><path class="d" d="M64.3,28.3c-.8,.9-1.8,1.7-2.9,2.4,2.9,3.9,2.8,10.5,1.3,12.3-.7,.9-1.5,1.2-2.6,1.2-.5,0-1.2,0-1.8,0,0-.7-.2-1.7-.6-2.4,.7,0,1.3,0,1.8,0s.9,0,1.2-.6c.4-.4,.6-1.5,.6-2.9-1.7,1.6-3.9,3-5.9,4-.3-.6-.9-1.5-1.4-2,2.4-.9,5.3-2.8,7-4.6,0-.4-.1-.7-.2-1.1-1.6,1.2-3.6,2.5-5.3,3.3-.3-.6-.9-1.4-1.3-2,1.9-.7,4.4-2,5.9-3.3-.1-.3-.3-.6-.5-.9-1.3,.7-2.7,1.3-4,1.9-.3-.5-.9-1.4-1.4-1.8,.8-.3,1.5-.6,2.3-1-.4-.8-1-1.9-1.6-2.7l1.9-.9c.6,.8,1.2,1.8,1.6,2.6,.4-.3,.9-.5,1.3-.8-.3-.7-.8-1.5-1.3-2.1l1.9-1c.4,.5,.9,1.2,1.2,1.8,.4-.3,.8-.7,1.1-1l1.7,1.5Zm-.9-4.2c-2.1,1.3-5.2,2.4-8.1,3-.3-.6-.9-1.5-1.3-2,2.8-.5,6-1.6,7.8-2.7l1.6,1.7Zm12.2,2.4s0,1,0,1.3c-.3,10.3-.5,13.9-1.4,15.1-.6,.9-1.3,1.1-2.2,1.3-.9,.1-2.3,0-3.6,0,0-.8-.4-1.9-.9-2.6,1.4,.1,2.7,.1,3.4,.1s.7,0,1-.4c.7-.7,.9-4.1,1.1-12.2h-5.8c-.5,1.2-1.2,2.3-1.8,3.2-.5-.4-1.7-1.2-2.3-1.5,1.6-2,2.9-5.3,3.5-8.4l2.6,.5c-.3,1.2-.7,2.4-1.1,3.6h7.5Zm-6.3,11.7c-.8-1.4-2.7-3.5-4.4-4.9l1.9-1.6c1.7,1.3,3.7,3.3,4.6,4.7l-2.1,1.8Z"/><path class="d" d="M91.3,33.6s0,.7,0,1c-.2,5.7-.5,8-1.1,8.8-.5,.6-1,.8-1.8,.9-.6,0-1.7,.1-2.9,0,0-.7-.3-1.7-.7-2.4,.9,.1,1.9,.1,2.3,.1s.6,0,.8-.3c.4-.4,.6-1.9,.7-5.6h-2.6c-.5,3.2-1.7,6.3-4.2,8.4-.4-.7-1.2-1.6-1.9-2.1,3.1-2.6,3.6-6.8,3.8-10.7h-2.4v-8.2h9.7v8.2h-4.6c0,.6,0,1.3-.1,1.9h5Zm-7.4-4.4h4.4v-3.2h-4.4v3.2Zm11.7,9.4h-2.7v-13.3h2.7v13.3Zm5.6-15.7v18.2c0,1.7-.3,2.4-1.3,2.9-1,.4-2.6,.5-4.7,.5-.1-.8-.5-2.1-1-2.9,1.5,0,3,0,3.5,0s.6-.1,.6-.6V22.8h2.8Z"/><path class="d" d="M118.5,41.6h9.5v2.3h-21.8v-2.3h9.4v-1.3h-6.8v-2.3h6.8v-1.2h2.8v1.2h7.4v2.3h-7.4v1.3Zm-12-6.6c1.3,0,2.8-.2,4.5-.3v-1.2h-3.6v-1.9h3.6v-.9h-3.8v-7.5h10v7.5h-3.9v.9h3.7v1.9h-3.7v1.1l4.2-.3v1.9c-3.9,.4-7.9,.7-10.8,.9l-.2-2.1Zm2.8-9h1.7v-1.1h-1.7v1.1Zm1.7,2.8v-1.1h-1.7v1.1h1.7Zm4-3.9h-1.7v1.1h1.7v-1.1Zm0,2.8h-1.7v1.1h1.7v-1.1Zm6.1,3.3h-3.5v-2.3h4.1c-.9-.6-2-1.3-2.9-1.8l1.5-1.4c.5,.2,1.1,.5,1.6,.9,.4-.3,.9-.7,1.3-1.1h-5.2v-2.1h7.8l1.7,1.2c-1,1.1-2.3,2.3-3.6,3.3,.4,.2,.7,.5,.9,.7l-.4,.4h1.9l1.8,.3c-.4,1.6-.9,3.3-1.3,4.4l-2.2-.4c.2-.5,.4-1.2,.6-2h-1.4v3.6c0,1.2-.2,1.8-1.1,2.2-.8,.4-1.9,.4-3.4,.4,0-.7-.4-1.6-.7-2.2,.9,0,1.9,0,2.1,0,.3,0,.4,0,.4-.3v-3.6Z"/></g><g><path class="d" d="M28.5,54.3h2v3.6h3.7v-3.6h2v9.2h-2v-3.7h-3.7v3.7h-2v-9.2Z"/><path class="d" d="M41.2,54.2h1.9l3.9,9.3h-2.1l-.8-2.1h-3.9l-.8,2.1h-2.1l3.9-9.3Zm2.1,5.4l-1.2-3-1.2,3h2.4Z"/><path class="d" d="M46.4,54.3h2.2l1.9,6.2,2.1-6.2h1.7l2.1,6.2,1.9-6.2h2.1l-3.1,9.3h-1.8l-2.1-6-2.1,6h-1.8l-3.1-9.3Z"/><path class="d" d="M65.2,54.3h3.8c2.2,0,3.5,1.3,3.5,3.2h0c0,2.2-1.7,3.3-3.7,3.3h-1.5v2.8h-2v-9.2Zm3.6,4.6c1,0,1.6-.6,1.6-1.4h0c0-.9-.6-1.4-1.6-1.4h-1.6v2.8h1.6Z"/><path class="d" d="M76,54.2h1.9l3.9,9.3h-2.1l-.8-2.1h-3.9l-.8,2.1h-2.1l3.9-9.3Zm2.1,5.4l-1.2-3-1.2,3h2.4Z"/><path class="d" d="M82.8,54.3h4.2c1.2,0,2.1,.3,2.7,.9,.5,.5,.8,1.2,.8,2.1h0c0,1.5-.8,2.4-2,2.9l2.2,3.3h-2.4l-2-2.9h-1.6v2.9h-2v-9.2Zm4.1,4.5c1,0,1.5-.5,1.5-1.3h0c0-.9-.6-1.3-1.6-1.3h-2v2.6h2Z"/><path class="d" d="M95.5,54.3h2.2l2.4,3.9,2.4-3.9h2.2v9.2h-2v-6l-2.6,3.9h0l-2.6-3.9v6h-2v-9.2Z"/><path class="d" d="M109.7,54.2h1.9l3.9,9.3h-2.1l-.8-2.1h-3.9l-.8,2.1h-2.1l3.9-9.3Zm2.1,5.4l-1.2-3-1.2,3h2.4Z"/><path class="d" d="M116.5,54.3h1.9l4.3,5.7v-5.7h2v9.2h-1.7l-4.5-5.8v5.8h-2v-9.2Z"/><path class="d" d="M125.9,62.2l1.2-1.4c.8,.7,1.7,1.1,2.7,1.1s1.3-.3,1.3-.9h0c0-.5-.3-.8-1.9-1.2-1.9-.5-3-1-3-2.8h0c0-1.7,1.3-2.8,3.2-2.8s2.5,.4,3.4,1.2l-1.1,1.5c-.8-.6-1.6-.9-2.4-.9s-1.2,.4-1.2,.8h0c0,.6,.4,.8,2,1.2,1.9,.5,2.9,1.2,2.9,2.8h0c0,1.9-1.4,2.9-3.4,2.9s-2.8-.5-3.9-1.5Z"/><path class="d" d="M134.7,54.3h2v9.2h-2v-9.2Z"/><path class="d" d="M138.2,58.9h0c0-2.6,2.1-4.8,4.9-4.8s4.9,2.1,4.9,4.7h0c0,2.6-2.1,4.8-4.9,4.8s-4.9-2.1-4.9-4.7Zm7.7,0h0c0-1.6-1.2-2.9-2.8-2.9s-2.8,1.3-2.8,2.9h0c0,1.6,1.2,2.9,2.8,2.9s2.8-1.3,2.8-2.9Z"/><path class="d" d="M149.5,54.3h1.9l4.3,5.7v-5.7h2v9.2h-1.7l-4.5-5.8v5.8h-2v-9.2Z"/></g></g></g></g></g></svg>