<?xml version="1.0" encoding="UTF-8"?><svg xmlns="http://www.w3.org/2000/svg" viewBox="0 0 233.3 131.3"><defs><style>.d{fill:#fff;}.e{fill:#8c6e5a;stroke:#fff;stroke-linecap:round;stroke-linejoin:round;stroke-width:3px;}</style></defs><g id="a"/><g id="b"><g id="c"><g><polygon class="e" points="205.7 1.5 231.8 27.6 231.8 129.8 205.7 103.7 28 103.7 1.5 77.2 1.5 1.5 205.7 1.5"/><g><g><path class="d" d="M49.8,41.5v2.4H28.6v-2.4h9.3v-1.2h-6.6v-2.3h6.6v-1.2h-7.8v-2.4h18.2v2.4h-7.6v1.2h6.6v2.3h-6.6v1.2h9.1Zm-2.3-8.3H30.9v-8.9h6.2c.2-.7,.4-1.4,.5-2l3.5,.2c-.2,.6-.5,1.2-.8,1.7h7.2v8.9Zm-3-6.7h-10.8v1.2h10.8v-1.2Zm0,3.3h-10.8v1.3h10.8v-1.3Z"/><path class="d" d="M62.5,23.3c-.6,1.6-1.4,3.2-2.3,4.8v16.2h-2.8v-12c-.6,.8-1.2,1.5-1.9,2.2-.3-.7-1.2-2.2-1.7-3,2.3-2.2,4.6-5.6,5.9-9.1l2.8,.9Zm13.7,16.7v3h-14.6v-3h14.6Zm-.9-10.9h-12.4v-3h12.4v3Z"/><path class="d" d="M92.5,30.7v.8h7.6v1.7h-7.6v.9h9.3v2h-21.2v-2h9.1v-.9h-7.4v-1.7h7.4v-.8h-6.9v-1.6h6.9v-.9h-9.1v-1.9h9.1v-.9h-6.7v-1.6h6.7v-1.5h2.8v1.5h6.6v2.5h2.7v1.9h-2.7v2.5h-6.6Zm-9,6.1h15.7v7.7h-2.8v-.7h-10.1v.7h-2.7v-7.7Zm2.7,1.8v.9h10.1v-.9h-10.1Zm10.1,3.4v-.9h-10.1v.9h10.1Zm-3.9-15.7h3.8v-.9h-3.8v.9Zm0,2.8h3.8v-.9h-3.8v.9Z"/><path class="d" d="M114.5,24.2c-.6,2-1.4,4.3-2.1,6.2,1.4,1.8,1.7,3.5,1.7,4.9s-.3,2.6-1.1,3.1c-.4,.3-.8,.4-1.3,.5-.4,0-1,0-1.5,0,0-.7-.2-1.7-.6-2.4,.4,0,.8,0,1,0,.2,0,.4,0,.6-.2,.3-.2,.4-.7,.4-1.4,0-1.1-.3-2.6-1.6-4.3,.5-1.4,.9-3.3,1.3-4.9h-1.9v18.6h-2.5V23.3h5.6l1.8,.9Zm11.1,17.5c.4,0,.5-.4,.5-2.8,.5,.4,1.6,.9,2.3,1-.2,3.2-.9,4.1-2.5,4.1h-1.6c-2.1,0-2.6-.8-2.6-3.1v-4.8h-1.6c-.4,4-1.4,6.7-6,8.3-.3-.7-1-1.7-1.6-2.3,3.8-1.2,4.6-3.1,4.9-6h-2.8v-2.5h13.5v2.5h-3.7v4.8c0,.7,0,.8,.4,.8h.9Zm-9.2-12h-1.8v-4.7h5.5c-.3-.8-.6-1.6-1-2.2l2.7-.8c.5,.9,1.1,2.1,1.3,3h4.9v4.7h-1.9v2.1h-9.7v-2.1Zm.8-2.2v1.9h8.1v-1.9h-8.1Z"/><path class="d" d="M153.9,41.8v2.2h-21.5v-2.2h9.3v-1h-7.6v-2h7.6v-1h-6.8v-7.1h16.6v7.1h-7v1h7.7v2h-7.7v1h9.4Zm-.1-12h-21.3v-2.2h5.3c-.2-.4-.4-.9-.6-1.2l1.8-.4h-5.1v-2.2h7.9c-.2-.4-.4-.8-.5-1.1l2.6-.6c.3,.5,.6,1.2,.9,1.7h7.5v2.2h-5.1l2.1,.4c-.3,.5-.5,.9-.7,1.3h5.2v2.2Zm-16.2,3.6h4.2v-1.1h-4.2v1.1Zm4.2,2.7v-1.1h-4.2v1.1h4.2Zm-1.7-10.2c.3,.5,.6,1.1,.8,1.7h4.8c.2-.6,.5-1.2,.7-1.7h-6.2Zm8.7,6.4h-4.2v1.1h4.2v-1.1Zm0,2.6h-4.2v1.1h4.2v-1.1Z"/><path class="d" d="M179.6,41.9h-9.1v2.5h-2.8v-2.5h-8.9v-2.5h8.9v-1.1h-6.5v-8.2h6.5v-1.1h-5.2v-2h5.2v-.9h2.8v.9h5.1v2h-5.1v1.1h6.9v8.2h-6.9v1.1h9.1v2.5Zm-17.9-13.4h-2.7v-5.2h20.3v5.2h-2.8v-2.8h-14.8v2.8Zm2.2,4.8h3.9v-1.3h-3.9v1.3Zm3.9,3.1v-1.3h-3.9v1.3h3.9Zm2.8-4.3v1.3h4.1v-1.3h-4.1Zm4.1,3.1h-4.1v1.3h4.1v-1.3Z"/><path class="d" d="M205.7,41.3v2.5h-20.9v-2.5h8.9v-2h-6.9v-2.4h6.9v-1.8h2.9v1.8h7.2v2.4h-7.2v2h9.1Zm-18.2-12.6h-2.6v-4.5h9.1c-.2-.5-.4-1-.6-1.4l2.7-.8c.4,.7,.8,1.5,1.1,2.2h8.4v4.5h-2.5v1.9h-2.8c1.4,1.2,3.1,2.6,3.9,3.7l-2.2,1.5c-.3-.4-.7-.9-1.3-1.5-10.6,.9-11.8,.9-12.8,1.3-.1-.5-.5-1.8-.8-2.4,.5,0,1-.4,1.7-.9,.4-.3,1.2-.9,2.2-1.7h-3.5v-1.9Zm.1-2v1.4h15.1v-1.4h-15.1Zm11.1,5.7c-.4-.4-.9-.7-1.2-1l1.2-.8h-4.1c-.9,.8-1.8,1.6-2.7,2.3l6.9-.4Z"/></g><g><path class="d" d="M27.8,62.2l1.2-1.4c.8,.7,1.7,1.1,2.7,1.1s1.3-.3,1.3-.9h0c0-.5-.3-.8-1.9-1.2-1.9-.5-3-1-3-2.8h0c0-1.7,1.3-2.8,3.2-2.8s2.5,.4,3.4,1.2l-1.1,1.5c-.8-.6-1.6-.9-2.4-.9s-1.2,.4-1.2,.8h0c0,.6,.4,.8,2,1.2,1.9,.5,2.9,1.2,2.9,2.8h0c0,1.9-1.4,2.9-3.4,2.9s-2.8-.5-3.9-1.5Z"/><path class="d" d="M36,58.9h0c0-2.6,2-4.8,4.8-4.8s2.8,.6,3.6,1.4l-1.3,1.5c-.7-.6-1.4-1-2.4-1-1.5,0-2.7,1.3-2.7,2.9h0c0,1.6,1.1,2.9,2.7,2.9s1.7-.4,2.4-1.1l1.3,1.3c-.9,1-2,1.6-3.8,1.6-2.7,0-4.7-2.1-4.7-4.7Z"/><path class="d" d="M45,58.9h0c0-2.6,2.1-4.8,4.9-4.8s4.9,2.1,4.9,4.7h0c0,2.6-2.1,4.8-4.9,4.8s-4.9-2.1-4.9-4.7Zm7.7,0h0c0-1.6-1.2-2.9-2.8-2.9s-2.8,1.3-2.8,2.9h0c0,1.6,1.2,2.9,2.8,2.9s2.8-1.3,2.8-2.9Z"/><path class="d" d="M56,59.6v-5.3h2v5.2c0,1.5,.7,2.3,2,2.3s2-.7,2-2.2v-5.3h2v5.2c0,2.8-1.6,4.1-4,4.1s-4-1.4-4-4.1Z"/><path class="d" d="M67.8,56.2h-2.8v-1.9h7.6v1.9h-2.8v7.3h-2v-7.3Z"/><path class="d" d="M77.5,54.3h3.6c2.9,0,4.9,2,4.9,4.6h0c0,2.6-2,4.6-4.9,4.6h-3.6v-9.2Zm2,1.8v5.5h1.6c1.7,0,2.8-1.1,2.8-2.7h0c0-1.7-1.1-2.8-2.8-2.8h-1.6Z"/><path class="d" d="M87.4,54.3h6.9v1.8h-4.9v1.9h4.3v1.8h-4.3v1.9h5v1.8h-7v-9.2Z"/><path class="d" d="M96,54.3h1.9l4.3,5.7v-5.7h2v9.2h-1.7l-4.5-5.8v5.8h-2v-9.2Z"/><path class="d" d="M36.7,79.5l-1-.9c-.8,.5-1.7,.8-2.7,.8-2.8,0-4.9-2.1-4.9-4.7h0c0-2.6,2.1-4.8,4.9-4.8s4.9,2.1,4.9,4.7h0c0,1-.3,1.9-.8,2.7l.9,.8-1.3,1.4Zm-2.5-2.2l-1.5-1.3,1.3-1.4,1.5,1.4c.2-.4,.2-.8,.2-1.3h0c0-1.6-1.2-2.9-2.8-2.9s-2.8,1.3-2.8,2.9h0c0,1.6,1.2,2.9,2.8,2.9s.9,0,1.2-.2Z"/><path class="d" d="M39.2,75.3v-5.3h2v5.2c0,1.5,.7,2.3,2,2.3s2-.7,2-2.2v-5.3h2v5.2c0,2.8-1.6,4.1-4,4.1s-4-1.4-4-4.1Z"/><path class="d" d="M49.1,70.1h6.9v1.8h-4.9v1.9h4.3v1.8h-4.3v1.9h5v1.8h-7v-9.2Z"/><path class="d" d="M57.7,70.1h6.9v1.8h-4.9v1.9h4.3v1.8h-4.3v1.9h5v1.8h-7v-9.2Z"/><path class="d" d="M66.3,70.1h1.9l4.3,5.7v-5.7h2v9.2h-1.7l-4.5-5.8v5.8h-2v-9.2Z"/><path class="d" d="M76.4,70.1h2.2l-1.4,4.2h-1l.2-4.2Z"/><path class="d" d="M79.3,77.9l1.2-1.4c.8,.7,1.7,1.1,2.7,1.1s1.3-.3,1.3-.9h0c0-.5-.3-.8-1.9-1.2-1.9-.5-3-1-3-2.8h0c0-1.7,1.3-2.8,3.2-2.8s2.5,.4,3.4,1.2l-1.1,1.5c-.8-.6-1.6-.9-2.4-.9s-1.2,.4-1.2,.8h0c0,.6,.4,.8,2,1.2,1.9,.5,2.9,1.2,2.9,2.8h0c0,1.9-1.4,2.9-3.4,2.9s-2.8-.5-3.9-1.5Z"/><path class="d" d="M91.2,74.7h0c0-2.6,2-4.8,4.8-4.8s2.8,.6,3.6,1.4l-1.3,1.5c-.7-.6-1.4-1-2.4-1-1.5,0-2.7,1.3-2.7,2.9h0c0,1.6,1.1,2.9,2.7,2.9s1.7-.4,2.4-1.1l1.3,1.3c-.9,1-2,1.6-3.8,1.6-2.7,0-4.7-2.1-4.7-4.7Z"/><path class="d" d="M100.1,74.7h0c0-2.6,2.1-4.8,4.9-4.8s4.9,2.1,4.9,4.7h0c0,2.6-2.1,4.8-4.9,4.8s-4.9-2.1-4.9-4.7Zm7.7,0h0c0-1.6-1.2-2.9-2.8-2.9s-2.8,1.3-2.8,2.9h0c0,1.6,1.2,2.9,2.8,2.9s2.8-1.3,2.8-2.9Z"/><path class="d" d="M111.4,70.1h2v7.4h4.6v1.8h-6.6v-9.2Z"/><path class="d" d="M119,70.1h2v7.4h4.6v1.8h-6.6v-9.2Z"/><path class="d" d="M126.7,70.1h6.9v1.8h-4.9v1.9h4.3v1.8h-4.3v1.9h5v1.8h-7v-9.2Z"/><path class="d" d="M134.7,74.7h0c0-2.6,2-4.8,4.8-4.8s2.7,.4,3.6,1.3l-1.3,1.5c-.7-.6-1.3-.9-2.4-.9s-2.6,1.3-2.6,2.9h0c0,1.7,1.2,2.9,2.8,2.9s1.4-.2,1.9-.6v-1.3h-2v-1.7h4v4c-.9,.8-2.2,1.5-3.9,1.5-2.9,0-4.8-2-4.8-4.7Z"/><path class="d" d="M145.1,70.1h6.9v1.8h-4.9v1.9h4.3v1.8h-4.3v1.9h5v1.8h-7v-9.2Z"/></g></g></g></g></g></svg>