<?xml version="1.0" encoding="UTF-8"?><svg xmlns="http://www.w3.org/2000/svg" viewBox="0 0 130.8 131.3"><defs><style>.d{fill:#fff;}.e{fill:#8c6e5a;stroke:#fff;stroke-linecap:round;stroke-linejoin:round;stroke-width:3px;}</style></defs><g id="a"/><g id="b"><g id="c"><g><polygon class="e" points="27.6 129.8 1.5 103.7 1.5 1.5 27.6 27.6 102.8 27.6 129.3 54.1 129.3 129.8 27.6 129.8"/><g><g><path class="d" d="M33.1,63c-.5,1.6-1.2,3.3-2,4.7,.4,.3,.9,.6,1.5,.9,1.6,1,3.8,1.1,6.6,1.1s7-.2,9.6-.6c-.3,.7-.8,2-.8,2.7-2,.1-6.2,.3-8.9,.3s-5.1-.2-6.9-1.2c-1-.6-1.8-1.3-2.3-1.3s-1.4,1.6-2.1,2.9l-1.7-2.5c.7-.9,1.5-1.6,2.2-2.1,.7-.9,1.3-2,1.7-3.2h-2.9c.6-1.1,1.3-2.5,2-3.9h-2.3v-2.2h5.9c-.6,1.3-1.3,2.8-2,4h1l1.4,.4Zm-1.8-9.3h-4.3v-2.3h4.3v-1.2h2.8v1.2h3v2.3h-3v1.2h-2.8v-1.2Zm-1,.9c.5,.9,1.3,2,1.6,2.6l-2.3,1.1c-.4-.7-1.1-1.9-1.6-2.8l2.2-.9Zm8.7,14.7v-1.2h-6v-2h6v-.9h-5v-6.7h5v-.9h-5.6v-1.9h5.6v-1h2.6v1h5.9v1.9h-5.9v.9h5.2v6.7h-5.2v.9h6.3v2h-6.3v1.2h-2.6Zm-2.4-8.2h2.4v-.9h-2.4v.9Zm2.4,2.5v-.9h-2.4v.9h2.4Zm2.2-9.9h-3.2v-2.3h3.2v-1.2h2.8v1.2h4.1v2.3h-4.1v.8h-2.8v-.8Zm.4,6.4v.9h2.5v-.9h-2.5Zm2.5,2.5h-2.5v.9h2.5v-.9Z"/><path class="d" d="M61.1,52.2h2.1v2.6h-2.1v2h-2.6l2.6,.8c-.5,1-1.1,2-1.7,3v11.6h-2.8v-8.1c-.7,.7-1.3,1.3-2,1.9-.5-.5-1.7-1.5-2.3-2,2.4-1.7,4.7-4.4,6.1-7.3v-1.9h-5.3v-2.6h5.3v-2.1h2.8v2.1Zm9.7,17.1c.9,0,1.1-.6,1.3-3.5,.6,.4,1.8,.9,2.5,1.1-.3,3.8-1.1,5-3.5,5h-3.6c-2.8,0-3.6-.9-3.6-3.8v-10.9h2.8v3.4h7.3v2.6h-7.3v4.9c0,1,.1,1.2,1.2,1.2h3Zm-4.7-14.4h-2.2v-2.6h2.2v-2.1h2.8v2.1h5.2v2.6h-5.2v2h-2.8v-2Z"/><path class="d" d="M99.7,52.1v5.9h-2.9v-3.4h-14.6v3.4h-2.7v-5.9h8.4c-.2-.5-.4-.9-.6-1.3l2.9-.9c.4,.7,.8,1.5,1,2.2h8.5Zm-8.8,10.5c-.3,.5-.5,1-.8,1.5h7.8v8.1h-2.9v-.9h-10.7v.9h-2.8v-8.1h5.6c.2-.5,.4-1,.5-1.5h-4.3v-6.5h12.3v6.5h-4.7Zm4,3.9h-10.7v2.4h10.7v-2.4Zm-9-6.1h6.9v-2.1h-6.9v2.1Z"/></g><g><path class="d" d="M26.8,82.1h2v7.4h4.6v1.8h-6.6v-9.2Z"/><path class="d" d="M34.5,82.1h2v9.2h-2v-9.2Z"/><path class="d" d="M38.5,82.1h1.9l4.3,5.7v-5.7h2v9.2h-1.7l-4.5-5.8v5.8h-2v-9.2Z"/><path class="d" d="M52.2,82.1h7v1.8h-5v2h4.4v1.8h-4.4v3.6h-2v-9.2Z"/><path class="d" d="M62.8,82.1h1.9l3.9,9.3h-2.1l-.8-2.1h-3.9l-.8,2.1h-2.1l3.9-9.3Zm2.1,5.4l-1.2-3-1.2,3h2.4Z"/><path class="d" d="M73.3,82.1h2v4l3.7-4h2.4l-3.7,3.9,3.9,5.3h-2.4l-2.8-3.9-1.1,1.1v2.8h-2v-9.2Z"/><path class="d" d="M82.4,87.4v-5.3h2v5.2c0,1.5,.7,2.3,2,2.3s2-.7,2-2.2v-5.3h2v5.2c0,2.8-1.6,4.1-4,4.1s-4-1.4-4-4.1Z"/><path class="d" d="M92.3,82.1h1.9l4.3,5.7v-5.7h2v9.2h-1.7l-4.5-5.8v5.8h-2v-9.2Z"/><path class="d" d="M101.9,86.8h0c0-2.6,2-4.8,4.8-4.8s2.7,.4,3.6,1.3l-1.3,1.5c-.7-.6-1.3-.9-2.4-.9s-2.6,1.3-2.6,2.9h0c0,1.7,1.2,2.9,2.8,2.9s1.4-.2,1.9-.6v-1.3h-2v-1.7h4v4c-.9,.8-2.2,1.5-3.9,1.5-2.9,0-4.8-2-4.8-4.7Z"/><path class="d" d="M29,99.7h-2.8v-1.9h7.6v1.9h-2.8v7.3h-2v-7.3Z"/><path class="d" d="M34.8,97.9h6.9v1.8h-4.9v1.9h4.3v1.8h-4.3v1.9h5v1.8h-7v-9.2Z"/><path class="d" d="M43.4,97.9h2.2l2.4,3.9,2.4-3.9h2.2v9.2h-2v-6l-2.6,3.9h0l-2.6-3.9v6h-2v-9.2Z"/><path class="d" d="M54.6,97.9h3.8c2.2,0,3.5,1.3,3.5,3.2h0c0,2.2-1.7,3.3-3.7,3.3h-1.5v2.8h-2v-9.2Zm3.6,4.6c1,0,1.6-.6,1.6-1.4h0c0-.9-.6-1.4-1.6-1.4h-1.6v2.8h1.6Z"/><path class="d" d="M63,97.9h2v7.4h4.6v1.8h-6.6v-9.2Z"/><path class="d" d="M70.7,97.9h6.9v1.8h-4.9v1.9h4.3v1.8h-4.3v1.9h5v1.8h-7v-9.2Z"/></g></g></g></g></g></svg>