<?xml version="1.0" encoding="UTF-8"?><svg xmlns="http://www.w3.org/2000/svg" viewBox="0 0 233.3 131.3"><defs><style>.d{fill:#fff;}.e{fill:#8c6e5a;stroke:#fff;stroke-linecap:round;stroke-linejoin:round;stroke-width:3px;}</style></defs><g id="a"/><g id="b"><g id="c"><g><polygon class="e" points="205.7 1.5 231.8 27.6 231.8 129.8 205.7 103.7 28 103.7 1.5 77.2 1.5 1.5 205.7 1.5"/><g><g><path class="d" d="M41.3,31.6c1.6,4.6,4.4,8.3,8.8,10.1-.7,.6-1.6,1.8-2.1,2.6-4.3-2-7-5.5-8.9-10-1.3,3.9-3.8,7.6-8.8,10-.4-.8-1.3-1.8-2.1-2.4,5.4-2.4,7.7-6.3,8.6-10.4h-8.1v-2.9h8.6c.2-2.2,.2-4.4,.2-6.3h3.1c0,1.9,0,4.1-.3,6.3h9.3v2.9h-8.3Z"/><path class="d" d="M62.6,38.1c-2.7,1.2-5.6,2.4-7.9,3.3l-.7-2.9c.8-.3,1.8-.6,2.9-1v-7.1h-2.6v-2.7h2.6v-5.1h2.6v5.1h2.6v2.7h-2.6v6.1c.9-.3,1.7-.6,2.5-1l.5,2.5Zm11.2,3.7c0,0,.2,0,.3,0,0-.1,.1-.3,.1-.8,0-.4,0-1.5,0-2.8,.5,.4,1.4,.9,2,1.1,0,1.3-.1,2.7-.3,3.4-.2,.6-.4,1-.8,1.3-.4,.3-.9,.4-1.4,.4h-1.3c-.6,0-1.2-.2-1.6-.6-.4-.5-.6-1-.6-2.8v-7.5h-3.2v1.7c0,3.1-.8,7.2-4.6,9.6-.4-.6-1.4-1.7-1.9-2.2,3.4-2.1,3.7-5,3.7-7.5v-4.2h8.8v10c0,.5,0,.8,0,.9,0,0,.1,.1,.3,.1h.3Zm2.4-13h-13.6v-2.7h5.1c-.3-.9-.8-2.3-1.3-3.4l2.7-.7c.5,1.1,1.1,2.5,1.4,3.4l-2.2,.7h7.8v2.7Z"/><path class="d" d="M94.3,29v2.9h6.8s0,.8,0,1.2c-.3,6.5-.6,9.1-1.3,10-.5,.7-1.1,1-2,1.1-.7,.1-2,.1-3.2,0,0-.8-.4-2-.9-2.8,1.2,0,2.3,.1,2.8,.1s.7,0,.9-.3c.4-.5,.7-2.3,.9-6.8h-3.9c-.4,3.4-1.8,7.2-6.2,10-.5-.6-1.4-1.4-2.2-1.9,5-3.2,5.7-7.4,5.7-10.5v-3h-3.4v1.7h-2.3v5.6c.8-.3,1.6-.6,2.4-.9l.5,2.6c-2.8,1.1-5.8,2.2-8.1,3.1l-.6-3c.9-.2,1.9-.6,3-1v-6.5h-2.6v-2.6h2.6v-5.2h2.7v5.2h2.2v-1.7h6.3c-.2-.9-.6-2.4-1-3.5l2.6-.6c.4,1.1,.9,2.6,1.2,3.5l-2.4,.7h7.5v2.7h-7.8Z"/><path class="d" d="M113.1,34.9c-.1,.8-.4,1.7-.6,2.6,1.1,.8,2.3,1.8,3,2.5l-1.5,2c-.5-.7-1.6-1.5-2.5-2.3-.8,1.4-2.1,2.7-3.8,3.7-.3-.6-1.1-1.7-1.7-2.2,3.2-1.5,4-4.3,4.4-6.2h2.7Zm12.1-.5c-.1,.9-.3,1.8-.6,2.7,.8,1.3,2.2,3,3.7,4-.6,.4-1.4,1.4-1.8,2-1.1-.8-2.1-2.2-2.9-3.4-.8,1.4-1.9,2.7-3.5,3.7-.3-.6-.9-1.4-1.4-1.9v3h-2.8v-10.6c-2.5,.2-4.9,.3-7.1,.3-.4-.7-1.1-2-1.6-2.6,6.1,0,13.8-.3,18.2-1.1l2.1,2.1c-2.5,.5-5.6,.8-8.8,1.1v7.2c2.8-1.7,3.5-4.5,3.9-6.6h2.7Zm1.5-4.5h-19.1v-6.8h19.1v6.8Zm-13.6-4.3h-2.8v1.9h2.8v-1.9Zm5.4,0h-2.8v1.9h2.8v-1.9Zm5.4,0h-2.9v1.9h2.9v-1.9Z"/><path class="d" d="M141,33.7h12.6v10.7h-2.7v-.9h-7.3v.9h-2.6v-8.7l-1.1,1.5c-.4-.6-1.1-1.4-1.8-2.2v9.5h-2.8v-7.9c-.8,.7-1.6,1.4-2.4,2-.2-.8-.9-2.2-1.3-2.7,2.3-1.4,4.6-3.9,6-6.6h-5.2v-2.5h3.2c-.4-.9-1.1-2.3-1.7-3.3l2.2-.9c.7,1.1,1.5,2.5,1.9,3.3l-1.8,.9h3.3l1.6,.9c-.6,1.7-1.4,3.3-2.4,4.8,.6,.5,1.7,1.4,2.3,2v-.8Zm12.6-10.4v2.4h-12.8v-2.4h12.8Zm-1.1,3.4v5.9h-10.4v-5.9h10.4Zm-9,9.2v1.6h2.3v-1.6h-2.3Zm0,5.3h2.3v-1.6h-2.3v1.6Zm6.4-12.4h-5.3v1.7h5.3v-1.7Zm.9,7.1h-2.4v1.6h2.4v-1.6Zm0,5.3v-1.6h-2.4v1.6h2.4Z"/><path class="d" d="M165.8,29.3h4.3v2.6h-4.3v.8c1.2,.9,3.5,3,4.1,3.6l-1.6,2.4c-.6-.7-1.6-1.9-2.5-2.9v8.5h-2.8v-8.3c-1,2.1-2.3,4.1-3.5,5.4-.3-.9-1-2-1.4-2.8,1.7-1.6,3.4-4.3,4.5-6.8h-4v-2.6h4.5v-2.9c-1.3,.3-2.6,.5-3.9,.6-.1-.6-.5-1.6-.8-2.2,3.4-.5,7.2-1.4,9.5-2.4l2,2.2c-1.2,.5-2.5,.9-3.9,1.2v3.5Zm8.4,9.1h-2.8v-13.2h2.8v13.2Zm5-15.7v18.2c0,1.7-.3,2.4-1.3,2.9-1,.5-2.5,.6-4.7,.6-.1-.8-.5-2.1-1-2.9,1.5,0,3.1,0,3.5,0,.4,0,.6-.1,.6-.6V22.7h2.8Z"/><path class="d" d="M197.2,23c-.1,.1-.2,.3-.4,.4,2.2,1.9,6.1,3.5,9.8,4.3-.6,.5-1.4,1.5-1.8,2.2-.5-.1-1-.3-1.5-.4v6.1h-16.4v-6c-.5,.2-1,.3-1.5,.4-.3-.5-1-1.7-1.5-2.2,4.3-1,8.6-3,10.7-5.7l2.5,.9Zm5.4,6.1c-1.1-.4-2.2-.9-3.2-1.4v.6h-8.3v-.5c-.9,.5-1.9,.9-2.9,1.3h14.4Zm-14.3,7.2h13.9v8h-2.9v-.6h-8.2v.6h-2.8v-8.1Zm2.7-2.5c-.1-.7-.4-1.7-.8-2.5l1.8-.5h-2.7v3h1.7Zm0,4.3v.9h8.2v-.9h-8.2Zm8.2,3.7v-.9h-8.2v.9h8.2Zm-5.4-11h-1.8c.4,.8,.8,1.8,.9,2.5l-1.5,.5h2.4v-3Zm3.4-4.4c-.7-.5-1.4-1-2-1.5-.6,.5-1.3,1-2,1.5h4Zm-1.1,4.4v3h2.2l-1.4-.4c.3-.7,.7-1.8,.9-2.6h-1.7Zm4.7,0h-2.5l1.8,.4c-.5,.9-.9,1.9-1.3,2.5h1.9v-3Z"/></g><g><path class="d" d="M30.6,56.2h-2.8v-1.9h7.6v1.9h-2.8v7.3h-2v-7.3Z"/><path class="d" d="M38.6,54.2h1.9l3.9,9.3h-2.1l-.8-2.1h-3.9l-.8,2.1h-2.1l3.9-9.3Zm2.1,5.4l-1.2-3-1.2,3h2.4Z"/><path class="d" d="M45.4,54.3h2v9.2h-2v-9.2Z"/><path class="d" d="M53,54.3h2v3.6h3.7v-3.6h2v9.2h-2v-3.7h-3.7v3.7h-2v-9.2Z"/><path class="d" d="M65.7,54.2h1.9l3.9,9.3h-2.1l-.8-2.1h-3.9l-.8,2.1h-2.1l3.9-9.3Zm2.1,5.4l-1.2-3-1.2,3h2.4Z"/><path class="d" d="M72.5,54.3h1.9l4.3,5.7v-5.7h2v9.2h-1.7l-4.5-5.8v5.8h-2v-9.2Z"/><path class="d" d="M82.2,58.9h0c0-2.6,2-4.8,4.8-4.8s2.7,.4,3.6,1.3l-1.3,1.5c-.7-.6-1.3-.9-2.4-.9s-2.6,1.3-2.6,2.9h0c0,1.7,1.2,2.9,2.8,2.9s1.4-.2,1.9-.6v-1.3h-2v-1.7h4v4c-.9,.8-2.2,1.5-3.9,1.5-2.9,0-4.8-2-4.8-4.7Z"/><path class="d" d="M96.2,54.3h4.2c1.2,0,2.1,.3,2.7,.9,.5,.5,.8,1.2,.8,2.1h0c0,1.5-.8,2.4-2,2.9l2.2,3.3h-2.4l-2-2.9h-1.6v2.9h-2v-9.2Zm4.1,4.5c1,0,1.5-.5,1.5-1.3h0c0-.9-.6-1.3-1.6-1.3h-2v2.6h2Z"/><path class="d" d="M105.4,54.3h6.9v1.8h-4.9v1.9h4.3v1.8h-4.3v1.9h5v1.8h-7v-9.2Z"/><path class="d" d="M113.3,62.2l1.2-1.4c.8,.7,1.7,1.1,2.7,1.1s1.3-.3,1.3-.9h0c0-.5-.3-.8-1.9-1.2-1.9-.5-3-1-3-2.8h0c0-1.7,1.3-2.8,3.2-2.8s2.5,.4,3.4,1.2l-1.1,1.5c-.8-.6-1.6-.9-2.4-.9s-1.2,.4-1.2,.8h0c0,.6,.4,.8,2,1.2,1.9,.5,2.9,1.2,2.9,2.8h0c0,1.9-1.4,2.9-3.4,2.9s-2.8-.5-3.9-1.5Z"/><path class="d" d="M122,54.3h2v9.2h-2v-9.2Z"/><path class="d" d="M126,54.3h3.6c2.9,0,4.9,2,4.9,4.6h0c0,2.6-2,4.6-4.9,4.6h-3.6v-9.2Zm2,1.8v5.5h1.6c1.7,0,2.8-1.1,2.8-2.7h0c0-1.7-1.1-2.8-2.8-2.8h-1.6Z"/><path class="d" d="M135.9,54.3h6.9v1.8h-4.9v1.9h4.3v1.8h-4.3v1.9h5v1.8h-7v-9.2Z"/><path class="d" d="M144.5,54.3h1.9l4.3,5.7v-5.7h2v9.2h-1.7l-4.5-5.8v5.8h-2v-9.2Z"/><path class="d" d="M156.6,56.2h-2.8v-1.9h7.6v1.9h-2.8v7.3h-2v-7.3Z"/><path class="d" d="M161.9,62.2l1.2-1.4c.8,.7,1.7,1.1,2.7,1.1s1.3-.3,1.3-.9h0c0-.5-.3-.8-1.9-1.2-1.9-.5-3-1-3-2.8h0c0-1.7,1.3-2.8,3.2-2.8s2.5,.4,3.4,1.2l-1.1,1.5c-.8-.6-1.6-.9-2.4-.9s-1.2,.4-1.2,.8h0c0,.6,.4,.8,2,1.2,1.9,.5,2.9,1.2,2.9,2.8h0c0,1.9-1.4,2.9-3.4,2.9s-2.8-.5-3.9-1.5Z"/><path class="d" d="M169.8,57.7c.9,0,1.4-.6,1.3-1.3h-.8v-2.1h2.1v1.8c0,1.7-.9,2.4-2.4,2.5l-.2-.8Z"/><path class="d" d="M27.7,70.1h2.2l1.9,6.2,2.1-6.2h1.7l2.1,6.2,1.9-6.2h2.1l-3.1,9.3h-1.8l-2.1-6-2.1,6h-1.8l-3.1-9.3Z"/><path class="d" d="M42.7,70.1h6.9v1.8h-4.9v1.9h4.3v1.8h-4.3v1.9h5v1.8h-7v-9.2Z"/><path class="d" d="M51.3,70.1h2v7.4h4.6v1.8h-6.6v-9.2Z"/><path class="d" d="M59,70.1h7v1.8h-5v2h4.4v1.8h-4.4v3.6h-2v-9.2Z"/><path class="d" d="M69.6,70h1.9l3.9,9.3h-2.1l-.8-2.1h-3.9l-.8,2.1h-2.1l3.9-9.3Zm2.1,5.4l-1.2-3-1.2,3h2.4Z"/><path class="d" d="M76.5,70.1h4.2c1.2,0,2.1,.3,2.7,.9,.5,.5,.8,1.2,.8,2.1h0c0,1.5-.8,2.4-2,2.9l2.2,3.3h-2.4l-2-2.9h-1.6v2.9h-2v-9.2Zm4.1,4.5c1,0,1.5-.5,1.5-1.3h0c0-.9-.6-1.3-1.6-1.3h-2v2.6h2Z"/><path class="d" d="M85.7,70.1h6.9v1.8h-4.9v1.9h4.3v1.8h-4.3v1.9h5v1.8h-7v-9.2Z"/><path class="d" d="M100.9,70h1.9l3.9,9.3h-2.1l-.8-2.1h-3.9l-.8,2.1h-2.1l3.9-9.3Zm2.1,5.4l-1.2-3-1.2,3h2.4Z"/><path class="d" d="M107.1,77.9l1.2-1.4c.8,.7,1.7,1.1,2.7,1.1s1.3-.3,1.3-.9h0c0-.5-.3-.8-1.9-1.2-1.9-.5-3-1-3-2.8h0c0-1.7,1.3-2.8,3.2-2.8s2.5,.4,3.4,1.2l-1.1,1.5c-.8-.6-1.6-.9-2.4-.9s-1.2,.4-1.2,.8h0c0,.6,.4,.8,2,1.2,1.9,.5,2.9,1.2,2.9,2.8h0c0,1.9-1.4,2.9-3.4,2.9s-2.8-.5-3.9-1.5Z"/><path class="d" d="M115.2,77.9l1.2-1.4c.8,.7,1.7,1.1,2.7,1.1s1.3-.3,1.3-.9h0c0-.5-.3-.8-1.9-1.2-1.9-.5-3-1-3-2.8h0c0-1.7,1.3-2.8,3.2-2.8s2.5,.4,3.4,1.2l-1.1,1.5c-.8-.6-1.6-.9-2.4-.9s-1.2,.4-1.2,.8h0c0,.6,.4,.8,2,1.2,1.9,.5,2.9,1.2,2.9,2.8h0c0,1.9-1.4,2.9-3.4,2.9s-2.8-.5-3.9-1.5Z"/><path class="d" d="M123.3,74.7h0c0-2.6,2.1-4.8,4.9-4.8s4.9,2.1,4.9,4.7h0c0,2.6-2.1,4.8-4.9,4.8s-4.9-2.1-4.9-4.7Zm7.7,0h0c0-1.6-1.2-2.9-2.8-2.9s-2.8,1.3-2.8,2.9h0c0,1.6,1.2,2.9,2.8,2.9s2.8-1.3,2.8-2.9Z"/><path class="d" d="M134.1,74.7h0c0-2.6,2-4.8,4.8-4.8s2.8,.6,3.6,1.4l-1.3,1.5c-.7-.6-1.4-1-2.4-1-1.5,0-2.7,1.3-2.7,2.9h0c0,1.6,1.1,2.9,2.7,2.9s1.7-.4,2.4-1.1l1.3,1.3c-.9,1-2,1.6-3.8,1.6-2.7,0-4.7-2.1-4.7-4.7Z"/><path class="d" d="M143.8,70.1h2v9.2h-2v-9.2Z"/><path class="d" d="M150.7,70h1.9l3.9,9.3h-2.1l-.8-2.1h-3.9l-.8,2.1h-2.1l3.9-9.3Zm2.1,5.4l-1.2-3-1.2,3h2.4Z"/><path class="d" d="M158.6,71.9h-2.8v-1.9h7.6v1.9h-2.8v7.3h-2v-7.3Z"/><path class="d" d="M164.5,70.1h2v9.2h-2v-9.2Z"/><path class="d" d="M168,74.7h0c0-2.6,2.1-4.8,4.9-4.8s4.9,2.1,4.9,4.7h0c0,2.6-2.1,4.8-4.9,4.8s-4.9-2.1-4.9-4.7Zm7.7,0h0c0-1.6-1.2-2.9-2.8-2.9s-2.8,1.3-2.8,2.9h0c0,1.6,1.2,2.9,2.8,2.9s2.8-1.3,2.8-2.9Z"/><path class="d" d="M179.3,70.1h1.9l4.3,5.7v-5.7h2v9.2h-1.7l-4.5-5.8v5.8h-2v-9.2Z"/></g></g></g></g></g></svg>