<?xml version="1.0" encoding="UTF-8"?><svg xmlns="http://www.w3.org/2000/svg" viewBox="0 0 259.3 131.3"><defs><style>.d{fill:#fff;}.e{fill:#8c6e5a;stroke:#fff;stroke-linecap:round;stroke-linejoin:round;stroke-width:3px;}</style></defs><g id="a"/><g id="b"><g id="c"><g><polygon class="e" points="231.8 129.8 257.8 103.7 257.8 1.5 231.8 27.6 28 27.6 1.5 54.1 1.5 129.8 231.8 129.8"/><g><g><path class="d" d="M37.7,62.1v-3.4c-1.5,1.5-3.4,2.9-5.3,3.9h14.3v9.5h-3v-.7h-8.9v.7h-2.8v-9.3c-.7,.4-1.4,.7-2.2,.9-.4-.7-1.3-1.8-1.9-2.4,2.5-.7,5.1-1.9,7-3.4h-6.3v-2.5h9.1v-1.7c-2.2,.2-4.3,.3-6.4,.4,0-.7-.4-1.7-.7-2.4,5.2-.2,11.1-.8,14.6-1.6l2,2.2c-2,.5-4.2,.9-6.6,1.1v1.9h9.1v2.5h-5.7c2.3,1.3,4.7,2.8,6.1,3.9l-1.7,2.2c-1.7-1.5-5-3.7-7.9-5.2v3.4h-2.9Zm-2.9,2.7v1.3h8.9v-1.3h-8.9Zm8.9,4.5v-1.3h-8.9v1.3h8.9Z"/><path class="d" d="M57.9,61.3c-.8-.7-2.6-1.8-3.9-2.5l1.6-2c1.3,.6,3,1.5,3.9,2.2l-1.7,2.2Zm8,5.8v1.4c0,.9,.2,1,1.6,1h4.3c1.1,0,1.3-.3,1.4-2.4,.5,.4,1.6,.8,2.2,.9-.3,3-1,3.8-3.4,3.8h-4.7c-2.9,0-3.8-.7-3.8-3.3v-4.6c-.7,.8-1.4,1.5-2.2,2.1-.3-.4-.9-1.1-1.3-1.6-.9,2.3-2,4.9-3,7.1l-2.5-1.6c1-1.7,2.3-4.6,3.3-7.2l1.7,1.2c1.5-1,3-2.8,4-4.5h-3.6v-2.5h3.8v-1.8h-2.9v-2.5h2.9v-2.4h2.7v2.4h3.3v-2.4h2.8v2.4h3v2.5h-3v1.8h3.7v2.5h-3.7c.9,1.6,2.4,3.2,3.9,4.1-.6,.5-1.5,1.5-2,2.2-.8-.5-1.5-1.3-2.2-2.1v3.6h-6.4Zm-6.9-12.1c-.8-.7-2.5-1.8-3.7-2.6l1.7-2c1.2,.6,2.9,1.7,3.8,2.3l-1.7,2.2Zm7.3,4.2c-.3,.7-.6,1.3-1,2h5.5c-.4-.7-.7-1.3-1-2h-3.5Zm3.8,4h-4.2v1.8h4.2v-1.8Zm-3.7-6.5h3.3v-1.8h-3.3v1.8Z"/><path class="d" d="M88.2,64.5c0-.3-.1-.7-.2-1.1-5.3,.9-6.3,1.1-6.9,1.4-.1-.5-.6-1.9-.9-2.6,.7-.1,1.2-.7,2.1-1.5,.4-.3,1-1,1.7-1.9-2,.2-2.6,.4-2.9,.5-.1-.6-.6-1.8-.9-2.6,.5-.1,.9-.5,1.5-1.2,.5-.7,2.3-3.2,3.3-5.6l2.7,1.1c-1,1.9-2.3,3.9-3.7,5.5h1.8c.7-1.1,1.3-2.1,1.9-3.2l2.4,1.6c-1.5,2.3-3.3,4.6-5.2,6.5l2.6-.4c-.2-.6-.4-1.2-.6-1.8l2.2-.6c.6,1.6,1.3,3.6,1.5,4.9l-2.4,.7Zm-4,1.6c-.3,2-1,4.3-1.5,5.7-.6-.3-1.7-.7-2.4-.9,.7-1.3,1.2-3.5,1.5-5.4l2.5,.5Zm2.7-.7c.4,1.6,.7,3.5,.8,4.9l-2.4,.7c0-1.3-.4-3.4-.7-5l2.2-.6Zm2.6-.9c.4,1,.9,2.3,1.2,3.2l-2.2,.9c-.2-.9-.7-2.3-1.1-3.3l2.1-.7Zm12.7,3.9v2.7h-12.7v-2.7h5.1v-13.8h-4.2v-2.8h11.5v2.8h-4.3v13.8h4.7Z"/><path class="d" d="M127,68.2v2.8h-11.4v-8.4h-5.1v8.6h-2.9v-11.4h7.9v-5.4h-8.1v-2.8h11v8.1h5v-8.2h2.9v11h-7.9v5.6h8.5Z"/><path class="d" d="M153.5,65.4h-8.8v3.6c0,1.5-.4,2.3-1.5,2.7-1.1,.4-2.6,.5-4.6,.5-.2-.9-.7-2.1-1.2-2.9,1.5,0,3.2,0,3.7,0s.6,0,.6-.4v-3.5h-8.8v-2.7h8.8v-1.3c1-.5,2-1.2,2.9-1.9h-7.6v-2.6h11.1l1.9,1.3c-1.4,1.4-3.2,3-5.2,4.1v.4h8.8v2.7Zm-17.7-7.6h-2.8v-5.4h8.8c-.3-.5-.6-1.1-.9-1.6l2.8-.9c.6,.7,1.1,1.7,1.4,2.4h8.1v5.4h-2.9v-2.8h-14.6v2.8Z"/><path class="d" d="M171.2,50.8c-.1,.1-.2,.3-.4,.4,2.2,1.9,6.1,3.5,9.8,4.3-.6,.5-1.4,1.5-1.8,2.2-.5-.1-1-.3-1.5-.4v6.1h-16.4v-6c-.5,.2-1,.3-1.5,.4-.3-.5-1-1.7-1.5-2.2,4.3-1,8.6-3,10.7-5.7l2.5,.9Zm5.4,6.1c-1.1-.4-2.2-.9-3.2-1.4v.6h-8.3v-.5c-.9,.5-1.9,.9-2.9,1.3h14.4Zm-14.3,7.2h13.9v8h-2.9v-.6h-8.2v.6h-2.8v-8.1Zm2.7-2.5c-.1-.7-.4-1.7-.8-2.5l1.8-.5h-2.7v3h1.7Zm0,4.3v.9h8.2v-.9h-8.2Zm8.2,3.7v-.9h-8.2v.9h8.2Zm-5.4-11h-1.8c.4,.8,.8,1.8,.9,2.5l-1.5,.5h2.4v-3Zm3.4-4.4c-.7-.5-1.4-1-2-1.5-.6,.5-1.3,1-2,1.5h4Zm-1.1,4.4v3h2.2l-1.4-.4c.3-.7,.7-1.8,.9-2.6h-1.7Zm4.7,0h-2.5l1.8,.4c-.5,.9-.9,1.9-1.3,2.5h1.9v-3Z"/><path class="d" d="M197.3,59.3c1.6,4.6,4.4,8.3,8.8,10.1-.7,.6-1.6,1.8-2.1,2.6-4.3-2-7-5.5-8.9-10-1.3,3.9-3.8,7.6-8.8,10-.4-.8-1.3-1.8-2.1-2.4,5.4-2.4,7.7-6.3,8.6-10.4h-8.1v-2.9h8.6c.2-2.2,.2-4.4,.2-6.3h3.1c0,1.9,0,4.1-.3,6.3h9.3v2.9h-8.3Z"/><path class="d" d="M216.2,64.3c-.3-.7-.7-1.7-1.1-2.6v10.5h-2.6v-9.5c-.4,1.9-1,3.7-1.5,5.1-.3-.9-.9-2.2-1.3-2.9,.9-1.9,1.9-5.4,2.5-7.8h-2v-2.6h2.4v-4.4h2.6v4.4h2v2.6h-2v1c.6,.8,2.4,3.6,2.8,4.2l-1.6,1.9Zm13.3,2.2c-.4,.9-.9,1.7-1.7,2.4,1.6,.5,3,1,4.1,1.5l-1.9,1.8c-1.1-.6-2.8-1.2-4.6-1.8-1.7,.8-4.2,1.4-7.5,1.8-.1-.6-.6-1.5-1-2,2.1-.2,3.7-.4,5.1-.8-1.3-.4-2.5-.7-3.7-.9,.5-.5,1.1-1.2,1.6-1.9h-2.6v-2.1h4.2c.3-.4,.6-.9,.8-1.3h-4.1v-4.3h5.1v-.8h-4.6v-2.3h-1.3v-2.1h1.3v-2.3h4.6v-1.2h2.6v1.2h4.7v2.3h1.2v2h-1.2v2.4h-4.7v.8h5.3v4.3h-6c-.2,.4-.5,.9-.8,1.3h3.2c0-.2,.1-.5,.2-.7h2.5c0,.3,0,.5-.1,.7h2v2.1h-2.7Zm-8.7-5.1h2.6v-.9h-2.6v.9Zm.4-8.4v.9h2.2v-.9h-2.2Zm2.2,3.3v-1h-2.2v1h2.2Zm-.4,10.2c-.2,.3-.5,.6-.7,.9,.9,.2,1.9,.4,2.9,.7,.7-.4,1.3-.9,1.6-1.6h-3.8Zm3-13.5v.9h2.2v-.9h-2.2Zm2.2,3.3v-1h-2.2v1h2.2Zm-2.2,4.2v.9h2.7v-.9h-2.7Z"/></g><g><path class="d" d="M28.5,82.1h2v3.6h3.7v-3.6h2v9.2h-2v-3.7h-3.7v3.7h-2v-9.2Z"/><path class="d" d="M37.7,86.7h0c0-2.6,2.1-4.8,4.9-4.8s4.9,2.1,4.9,4.7h0c0,2.6-2.1,4.8-4.9,4.8s-4.9-2.1-4.9-4.7Zm7.7,0h0c0-1.6-1.2-2.9-2.8-2.9s-2.8,1.3-2.8,2.9h0c0,1.6,1.2,2.9,2.8,2.9s2.8-1.3,2.8-2.9Z"/><path class="d" d="M48.9,82.1h1.9l4.3,5.7v-5.7h2v9.2h-1.7l-4.5-5.8v5.8h-2v-9.2Z"/><path class="d" d="M58.6,86.7h0c0-2.6,2-4.8,4.8-4.8s2.7,.4,3.6,1.3l-1.3,1.5c-.7-.6-1.3-.9-2.4-.9s-2.6,1.3-2.6,2.9h0c0,1.7,1.2,2.9,2.8,2.9s1.4-.2,1.9-.6v-1.3h-2v-1.7h4v4c-.9,.8-2.2,1.5-3.9,1.5-2.9,0-4.8-2-4.8-4.7Z"/><path class="d" d="M72.6,82.1h2v4l3.7-4h2.4l-3.7,3.9,3.9,5.3h-2.4l-2.8-3.9-1.1,1.1v2.8h-2v-9.2Z"/><path class="d" d="M80.8,86.7h0c0-2.6,2.1-4.8,4.9-4.8s4.9,2.1,4.9,4.7h0c0,2.6-2.1,4.8-4.9,4.8s-4.9-2.1-4.9-4.7Zm7.7,0h0c0-1.6-1.2-2.9-2.8-2.9s-2.8,1.3-2.8,2.9h0c0,1.6,1.2,2.9,2.8,2.9s2.8-1.3,2.8-2.9Z"/><path class="d" d="M92.1,82.1h1.9l4.3,5.7v-5.7h2v9.2h-1.7l-4.5-5.8v5.8h-2v-9.2Z"/><path class="d" d="M101.7,86.7h0c0-2.6,2-4.8,4.8-4.8s2.7,.4,3.6,1.3l-1.3,1.5c-.7-.6-1.3-.9-2.4-.9s-2.6,1.3-2.6,2.9h0c0,1.7,1.2,2.9,2.8,2.9s1.4-.2,1.9-.6v-1.3h-2v-1.7h4v4c-.9,.8-2.2,1.5-3.9,1.5-2.9,0-4.8-2-4.8-4.7Z"/><path class="d" d="M115.7,82.1h4.2c1.2,0,2.1,.3,2.7,.9,.5,.5,.8,1.2,.8,2.1h0c0,1.5-.8,2.4-2,2.9l2.2,3.3h-2.4l-2-2.9h-1.6v2.9h-2v-9.2Zm4.1,4.5c1,0,1.5-.5,1.5-1.3h0c0-.9-.6-1.3-1.6-1.3h-2v2.6h2Z"/><path class="d" d="M124.9,82.1h6.9v1.8h-4.9v1.9h4.3v1.8h-4.3v1.9h5v1.8h-7v-9.2Z"/><path class="d" d="M133.5,82.1h3.6c2.9,0,4.9,2,4.9,4.6h0c0,2.6-2,4.6-4.9,4.6h-3.6v-9.2Zm2,1.8v5.5h1.6c1.7,0,2.8-1.1,2.8-2.7h0c0-1.7-1.1-2.8-2.8-2.8h-1.6Z"/><path class="d" d="M146.4,89.9l1.2-1.4c.8,.7,1.7,1.1,2.7,1.1s1.3-.3,1.3-.9h0c0-.5-.3-.8-1.9-1.2-1.9-.5-3-1-3-2.8h0c0-1.7,1.3-2.8,3.2-2.8s2.5,.4,3.4,1.2l-1.1,1.5c-.8-.6-1.6-.9-2.4-.9s-1.2,.4-1.2,.8h0c0,.6,.4,.8,2,1.2,1.9,.5,2.9,1.2,2.9,2.8h0c0,1.9-1.4,2.9-3.4,2.9s-2.8-.5-3.9-1.5Z"/><path class="d" d="M154.2,82.1h2.2l1.9,6.2,2.1-6.2h1.7l2.1,6.2,1.9-6.2h2.1l-3.1,9.3h-1.8l-2.1-6-2.1,6h-1.8l-3.1-9.3Z"/><path class="d" d="M171.6,82h1.9l3.9,9.3h-2.1l-.8-2.1h-3.9l-.8,2.1h-2.1l3.9-9.3Zm2.1,5.4l-1.2-3-1.2,3h2.4Z"/><path class="d" d="M177.8,89.9l1.2-1.4c.8,.7,1.7,1.1,2.7,1.1s1.3-.3,1.3-.9h0c0-.5-.3-.8-1.9-1.2-1.9-.5-3-1-3-2.8h0c0-1.7,1.3-2.8,3.2-2.8s2.5,.4,3.4,1.2l-1.1,1.5c-.8-.6-1.6-.9-2.4-.9s-1.2,.4-1.2,.8h0c0,.6,.4,.8,2,1.2,1.9,.5,2.9,1.2,2.9,2.8h0c0,1.9-1.4,2.9-3.4,2.9s-2.8-.5-3.9-1.5Z"/><path class="d" d="M188.6,83.9h-2.8v-1.9h7.6v1.9h-2.8v7.3h-2v-7.3Z"/><path class="d" d="M194.5,82.1h2v9.2h-2v-9.2Z"/><path class="d" d="M198.5,82.1h2v4l3.7-4h2.4l-3.7,3.9,3.9,5.3h-2.4l-2.8-3.9-1.1,1.1v2.8h-2v-9.2Z"/><path class="d" d="M211.3,82h1.9l3.9,9.3h-2.1l-.8-2.1h-3.9l-.8,2.1h-2.1l3.9-9.3Zm2.1,5.4l-1.2-3-1.2,3h2.4Z"/><path class="d" d="M27.8,105.7l1.2-1.4c.8,.7,1.7,1.1,2.7,1.1s1.3-.3,1.3-.9h0c0-.5-.3-.8-1.9-1.2-1.9-.5-3-1-3-2.8h0c0-1.7,1.3-2.8,3.2-2.8s2.5,.4,3.4,1.2l-1.1,1.5c-.8-.6-1.6-.9-2.4-.9s-1.2,.4-1.2,.8h0c0,.6,.4,.8,2,1.2,1.9,.5,2.9,1.2,2.9,2.8h0c0,1.9-1.4,2.9-3.4,2.9s-2.8-.5-3.9-1.5Z"/><path class="d" d="M36,102.4h0c0-2.6,2.1-4.8,4.9-4.8s4.9,2.1,4.9,4.7h0c0,2.6-2.1,4.8-4.9,4.8s-4.9-2.1-4.9-4.7Zm7.7,0h0c0-1.6-1.2-2.9-2.8-2.9s-2.8,1.3-2.8,2.9h0c0,1.6,1.2,2.9,2.8,2.9s2.8-1.3,2.8-2.9Z"/><path class="d" d="M46.7,102.4h0c0-2.6,2-4.8,4.8-4.8s2.8,.6,3.6,1.4l-1.3,1.5c-.7-.6-1.4-1-2.4-1-1.5,0-2.7,1.3-2.7,2.9h0c0,1.6,1.1,2.9,2.7,2.9s1.7-.4,2.4-1.1l1.3,1.3c-.9,1-2,1.6-3.8,1.6-2.7,0-4.7-2.1-4.7-4.7Z"/><path class="d" d="M56.4,97.8h2v9.2h-2v-9.2Z"/><path class="d" d="M60.4,97.8h6.9v1.8h-4.9v1.9h4.3v1.8h-4.3v1.9h5v1.8h-7v-9.2Z"/><path class="d" d="M71,99.7h-2.8v-1.9h7.6v1.9h-2.8v7.3h-2v-7.3Z"/><path class="d" d="M80,103.4l-3.5-5.6h2.4l2.2,3.7,2.2-3.7h2.3l-3.5,5.5v3.7h-2v-3.6Z"/><path class="d" d="M90.1,97.8h4.3c1.1,0,1.9,.3,2.4,.8,.4,.4,.6,.9,.6,1.6h0c0,1.1-.6,1.6-1.2,2,1.1,.4,1.7,1,1.7,2.3h0c0,1.7-1.4,2.5-3.4,2.5h-4.4v-9.2Zm5.3,2.7c0-.6-.5-.9-1.3-.9h-2v1.9h1.9c.9,0,1.5-.3,1.5-1h0Zm-1,2.7h-2.3v2h2.4c.9,0,1.4-.3,1.4-1h0c0-.6-.5-1-1.5-1Z"/><path class="d" d="M99.2,103.1v-5.3h2v5.2c0,1.5,.7,2.3,2,2.3s2-.7,2-2.2v-5.3h2v5.2c0,2.8-1.6,4.1-4,4.1s-4-1.4-4-4.1Z"/><path class="d" d="M109.1,97.8h2v9.2h-2v-9.2Z"/><path class="d" d="M113,97.8h2v7.4h4.6v1.8h-6.6v-9.2Z"/><path class="d" d="M120.7,97.8h3.6c2.9,0,4.9,2,4.9,4.6h0c0,2.6-2,4.6-4.9,4.6h-3.6v-9.2Zm2,1.8v5.5h1.6c1.7,0,2.8-1.1,2.8-2.7h0c0-1.7-1.1-2.8-2.8-2.8h-1.6Z"/><path class="d" d="M130.7,97.8h2v9.2h-2v-9.2Z"/><path class="d" d="M134.7,97.8h1.9l4.3,5.7v-5.7h2v9.2h-1.7l-4.5-5.8v5.8h-2v-9.2Z"/><path class="d" d="M144.3,102.4h0c0-2.6,2-4.8,4.8-4.8s2.7,.4,3.6,1.3l-1.3,1.5c-.7-.6-1.3-.9-2.4-.9s-2.6,1.3-2.6,2.9h0c0,1.7,1.2,2.9,2.8,2.9s1.4-.2,1.9-.6v-1.3h-2v-1.7h4v4c-.9,.8-2.2,1.5-3.9,1.5-2.9,0-4.8-2-4.8-4.7Z"/></g></g></g></g></g></svg>