<?xml version="1.0" encoding="UTF-8"?><svg xmlns="http://www.w3.org/2000/svg" viewBox="0 0 266.5 117.6"><defs><style>.d{fill:#fff;}.e{fill:#8c6e5a;stroke:#fff;stroke-linecap:round;stroke-linejoin:round;stroke-width:3px;}</style></defs><g id="a"/><g id="b"><g id="c"><g><polygon class="e" points="27.6 1.5 1.5 27.6 1.5 116.1 27.6 90 238.5 90 265 63.5 265 1.5 27.6 1.5"/><g><g><path class="d" d="M28,42.8c1.3-1.3,2.2-3.2,2.5-5.3l2.5,.7c-.4,2.3-1.1,4.6-2.7,6.1l-2.3-1.4Zm21.7-8.3s0,.7,0,1.1c-.3,4.9-.6,7-1.3,7.8-.5,.6-1,.8-1.8,.9-.7,0-1.7,.1-2.9,0,0-.8-.4-1.9-.8-2.6,.9,0,1.8,.1,2.2,0,.4,0,.6,0,.8-.3,.3-.4,.6-1.7,.8-4.7h-15.7v-13.7h16.9v2.4h-7.1v1.5h6.3v2.2h-6.3v1.5h6.3v2.2h-6.3v1.5h8.8Zm-15.9-8.8v1.5h4.3v-1.5h-4.3Zm4.3,3.7h-4.3v1.5h4.3v-1.5Zm-4.3,5.1h4.3v-1.5h-4.3v1.5Zm2.4,3.7c.5,1.5,.9,3.5,.9,4.8l-2.5,.4c0-1.3-.4-3.4-.8-4.9l2.4-.4Zm3.9-.2c.6,1.3,1.2,3.1,1.4,4.3l-2.3,.6c-.1-1.1-.7-3-1.3-4.4l2.2-.5Zm3.2,3.5c-.3-.9-.9-2.3-1.6-3.4l2-.7c.7,1,1.5,2.4,1.8,3.3l-2.2,.8Z"/><path class="d" d="M66.8,34.2c-.2,.4-.4,.8-.7,1.1h9.6s0,.6,0,1c-.3,4.6-.7,6.5-1.3,7.2-.4,.5-1,.7-1.6,.8-.5,0-1.4,0-2.4,0,0-.7-.3-1.6-.6-2.2,.8,0,1.4,0,1.7,0s.5,0,.7-.3c.3-.4,.6-1.6,.9-4.4h-.9c-1,2.6-2.8,5.5-4.7,7-.5-.5-1.3-1.2-2-1.6,1.8-1.1,3.4-3.2,4.4-5.4h-1.4c-1.3,2.3-3.5,4.6-5.5,5.9-.4-.5-1.2-1.3-1.8-1.7,1.7-.9,3.6-2.5,4.8-4.3h-1.4c-.9,.9-1.8,1.7-2.7,2.3-.4-.4-1.3-1.3-1.8-1.7-1.7,.9-3.4,1.7-4.8,2.4l-1-2.8c.8-.3,1.8-.7,2.9-1.2v-6.7h-2.4v-2.6h2.4v-4.7h2.6v4.7h2.2v2.6h-2.2v5.6l1.9-.8,.5,2c.9-.7,1.6-1.6,2.2-2.5h-2.7v-2.4h14.9v2.4h-9.4Zm7.8-3.3h-11.2v-8h11.2v8Zm-2.6-6.1h-6.1v1.1h6.1v-1.1Zm0,3h-6.1v1.1h6.1v-1.1Z"/><path class="d" d="M98.4,41.4c.7,0,.9-.4,.9-3.2,.6,.5,1.8,.9,2.6,1.1-.3,3.7-1,4.8-3.2,4.8h-2.7c-2.6,0-3.3-.9-3.3-3.5v-5.7h-3.5c-.5,4.2-1.7,7.7-7.2,9.8-.3-.8-1.1-1.9-1.7-2.5,4.7-1.5,5.6-4.2,6-7.3h-5.6v-2.7h9.1v-3.8h-4.1c-.5,1.2-1.2,2.3-1.8,3.2-.6-.4-1.8-1-2.5-1.2,1.5-1.9,2.6-5.1,3.1-7.5l2.9,.6c-.2,.7-.4,1.5-.7,2.3h3v-3.2h2.9v3.2h7.2v2.7h-7.2v3.8h9.1v2.7h-6.2v5.7c0,.8,.1,.9,.9,.9h2Z"/><path class="d" d="M128.1,43.3h-7.4v1h-2.5v-12.6c-.1,.2-.3,.4-.4,.6-.3-.3-.7-.7-1.2-1.1v2.2h-3.5v1h3.5v2h-3.5c0,.3,0,.5,0,.8h4.2v2.1h-4.6v.2c1.3,.8,3,1.8,4,2.6l-1.4,1.9c-.8-.7-2.3-1.7-3.6-2.5-.8,1.1-2,2.1-3.8,3-.4-.5-1.1-1.4-1.7-1.8,2-.8,3.1-2,3.7-3.2h-3.5v-2.1h4.2c0-.3,0-.6,0-.8h-3.5v-2h3.5v-1h-3.5v-4.8h3.6v-.7h-2.4v-2.4h-1.8v-2h1.8v-1.2h2.5v1.2h2.3v-1.2h2.6v1.2h1.6v2h-1.6v2.4h-2.7v.7h3.7v.7c1.3-1.9,2.4-4.5,3.1-7l2.6,.6c-.4,1.3-.8,2.5-1.3,3.7h7.2v2.5h-2.6v2.2h2.3v2.4h-2.3v2.3h2.4v2.4h-2.4v2.3h2.7v2.6Zm-19.1-11.6h1.5v-1.3h-1.5v1.3Zm1.6-6.1v.8h2.3v-.8h-2.3Zm3.7,4.8h-1.5v1.3h1.5v-1.3Zm8.6-1.2h-2.2v2.2h2.2v-2.2Zm0,4.6h-2.2v2.3h2.2v-2.3Zm-2.2,7h2.2v-2.3h-2.2v2.3Zm3.1-14.2c-.2-.9-.8-2.2-1.3-3.2l2.4-.8c.6,.9,1.2,2.2,1.4,3l-2.5,.9Z"/><path class="d" d="M151.4,31.7c-.9,3.2-2.3,5.7-4.2,7.7,1.9,1.1,4.1,1.9,6.8,2.4-.6,.6-1.4,1.8-1.8,2.6-2.8-.6-5.2-1.6-7.2-3-1.8,1.3-3.9,2.3-6.3,3-.4-.7-1-1.8-1.6-2.4,2.1-.5,4-1.4,5.6-2.5-1.2-1.3-2.3-2.7-3.1-4.5-1.1,3.1-2.7,6.2-5.3,8.5-.6-.7-1.5-1.5-2.4-2,4.1-3.4,5.6-8.7,6.3-13h-5.4v-2.7h5.7c.1-1.5,.1-2.8,.2-3.5h2.9c0,.9,0,2.1-.2,3.5h11.9v2.7h-12.2c-.1,.8-.3,1.6-.4,2.4h8.8l1.9,.7Zm-9.6,2c.8,1.5,1.8,2.9,3.1,4,1.1-1.1,2.1-2.5,2.7-4h-5.8Z"/><path class="d" d="M161.5,38.2c-.2,2.1-.6,4.4-1.1,5.8-.5-.3-1.6-.7-2.2-.8,.6-1.4,.9-3.5,1-5.4l2.3,.4Zm4.5-1.3c0-.3-.1-.7-.2-1.1-5.1,.8-6,1-6.5,1.3-.1-.5-.6-1.8-.9-2.5,.6-.2,1.2-.7,2-1.6,.3-.3,.9-1,1.5-1.9-1.9,.2-2.4,.4-2.8,.5-.1-.5-.5-1.8-.9-2.4,.5-.1,.9-.6,1.4-1.3,.5-.7,2.1-3.3,3-5.8l2.6,1.1c-.9,1.9-2.1,3.9-3.3,5.6h1.7c.6-1.2,1.3-2.2,1.8-3.3l2.4,1.5c-1.4,2.4-3.2,4.9-5,6.9l2.4-.3c-.2-.6-.4-1.2-.7-1.7l2.1-.8c.7,1.5,1.5,3.6,1.8,4.8l-2.2,.9Zm-1.7,.7c.3,1.7,.6,3.9,.7,5.3l-2.4,.6c0-1.4-.3-3.7-.6-5.4l2.2-.6Zm2.7-.7c.5,1.4,1.1,3.2,1.4,4.5l-2.2,.8c-.2-1.3-.8-3.1-1.3-4.6l2.1-.7Zm9.3,4.5c1.1,0,1.2-.6,1.3-3.9,.6,.5,1.9,1,2.6,1.2-.3,4-1,5.3-3.8,5.3h-3.8c-2.9,0-3.8-.9-3.8-3.8v-9.3h7.2v-4.5h-7.6v-2.9h10.5v11.4h-2.9v-1.3h-4.2v6.5c0,1,.2,1.2,1.2,1.2h3.2Z"/><path class="d" d="M190.5,28.6c-1.5,.8-3.1,1.5-4.8,2-.4-.7-1.2-1.8-1.7-2.3,4.5-1.2,8.4-3.5,10.3-6.4l2.5,1c-.1,.2-.2,.4-.3,.5,2.3,2,6.4,3.8,9.8,4.8-.6,.6-1.5,1.7-1.9,2.4-1.6-.6-3.2-1.3-4.8-2.2v1.4h-9v-1.2Zm-6.2,13.8c.8-1.7,1.7-4,2.2-6l2.5,1c-.5,1.9-1.3,4.5-2,6.2l-2.6-1.2Zm18.2-10.4c-.9,1.7-2.5,3.7-3.8,5.1-.5-.4-1.5-1-2.2-1.3,.7-.7,1.4-1.6,2-2.4h-11.1v-2.4h13.2l1.9,1Zm.6,3.6c1,2.1,2.4,4.8,3.1,6.5l-2.8,1c-.3-.8-.7-1.9-1.2-3.1-.4,3.2-1.2,4-3.9,4h-4.5c-3.3,0-4.2-.8-4.2-3.4v-4.1h2.8v4c0,.7,.2,.9,1.6,.9h4.1c1.1,0,1.3-.4,1.5-2.7,.5,.4,1.6,.8,2.4,1-.5-1.1-1-2.3-1.5-3.3l2.6-.9Zm-8.7-1.2c1.2,1.3,2.8,3.3,3.6,4.5l-2.5,1.4c-.7-1.2-2.3-3.2-3.4-4.7l2.3-1.2Zm3.7-6.9c-1.1-.7-2.2-1.5-3.1-2.3-.8,.9-1.7,1.6-2.7,2.3h5.9Z"/><path class="d" d="M210.4,23.4h8.1v2.6h-2.9c-.3,1.6-.7,3.2-1.3,4.8h3.8v10.8h-3.9v1.7h-2.3v-7.4c-.3,.4-.6,.9-1,1.3,0-.8-.6-2.6-1-3.4,1.5-2,2.4-4.8,3-8h-2.5v-2.6Zm5.3,9.8h-1.6v5.9h1.6v-5.9Zm16.3,6.9h-3.9v4.4h-2.7v-4.4h-6.9v-2.4h2.2c-.5-.4-1.1-.9-1.6-1.2,1.3-.7,2.2-1.5,2.9-2.4h-2.6v-9.5h3.4c.2-.7,.3-1.4,.4-2.1l3.3,.3c-.3,.6-.5,1.2-.8,1.8h5.5v9.5h-6.1c-.7,1.3-1.7,2.6-3.3,3.6h3.6v-3.1h2.7v3.1h3.9v2.4Zm-10-11.9h2v-1.5h-2v1.5Zm1.3,3.6c.2-.5,.4-1.1,.5-1.6h-1.8v1.6h1.3Zm5.3-1.6h-2.2c0,.5-.2,1-.4,1.6h2.6v-1.6Zm0-3.6h-2v1.5h2v-1.5Z"/></g><g><path class="d" d="M28.5,54.3h4.2c1.2,0,2.1,.3,2.7,.9,.5,.5,.8,1.2,.8,2.1h0c0,1.5-.8,2.4-2,2.9l2.2,3.3h-2.4l-2-2.9h-1.6v2.9h-2v-9.2Zm4.1,4.5c1,0,1.5-.5,1.5-1.3h0c0-.9-.6-1.3-1.6-1.3h-2v2.6h2Z"/><path class="d" d="M41,54.2h1.9l3.9,9.3h-2.1l-.8-2.1h-3.9l-.8,2.1h-2.1l3.9-9.3Zm2.1,5.4l-1.2-3-1.2,3h2.4Z"/><path class="d" d="M46.9,58.9h0c0-2.6,2-4.8,4.8-4.8s2.8,.6,3.6,1.4l-1.3,1.5c-.7-.6-1.4-1-2.4-1-1.5,0-2.7,1.3-2.7,2.9h0c0,1.6,1.1,2.9,2.7,2.9s1.7-.4,2.4-1.1l1.3,1.3c-.9,1-2,1.6-3.8,1.6-2.7,0-4.7-2.1-4.7-4.7Z"/><path class="d" d="M56.5,54.3h6.9v1.8h-4.9v1.9h4.3v1.8h-4.3v1.9h5v1.8h-7v-9.2Z"/><path class="d" d="M68.2,58.9h0c0-2.6,2-4.8,4.8-4.8s2.8,.6,3.6,1.4l-1.3,1.5c-.7-.6-1.4-1-2.4-1-1.5,0-2.7,1.3-2.7,2.9h0c0,1.6,1.1,2.9,2.7,2.9s1.7-.4,2.4-1.1l1.3,1.3c-.9,1-2,1.6-3.8,1.6-2.7,0-4.7-2.1-4.7-4.7Z"/><path class="d" d="M77.2,58.9h0c0-2.6,2.1-4.8,4.9-4.8s4.9,2.1,4.9,4.7h0c0,2.6-2.1,4.8-4.9,4.8s-4.9-2.1-4.9-4.7Zm7.7,0h0c0-1.6-1.2-2.9-2.8-2.9s-2.8,1.3-2.8,2.9h0c0,1.6,1.2,2.9,2.8,2.9s2.8-1.3,2.8-2.9Z"/><path class="d" d="M88.3,59.6v-5.3h2v5.2c0,1.5,.7,2.3,2,2.3s2-.7,2-2.2v-5.3h2v5.2c0,2.8-1.6,4.1-4,4.1s-4-1.4-4-4.1Z"/><path class="d" d="M98.1,54.3h4.2c1.2,0,2.1,.3,2.7,.9,.5,.5,.8,1.2,.8,2.1h0c0,1.5-.8,2.4-2,2.9l2.2,3.3h-2.4l-2-2.9h-1.6v2.9h-2v-9.2Zm4.1,4.5c1,0,1.5-.5,1.5-1.3h0c0-.9-.6-1.3-1.6-1.3h-2v2.6h2Z"/><path class="d" d="M106.6,62.2l1.2-1.4c.8,.7,1.7,1.1,2.7,1.1s1.3-.3,1.3-.9h0c0-.5-.3-.8-1.9-1.2-1.9-.5-3-1-3-2.8h0c0-1.7,1.3-2.8,3.2-2.8s2.5,.4,3.4,1.2l-1.1,1.5c-.8-.6-1.6-.9-2.4-.9s-1.2,.4-1.2,.8h0c0,.6,.4,.8,2,1.2,1.9,.5,2.9,1.2,2.9,2.8h0c0,1.9-1.4,2.9-3.4,2.9s-2.8-.5-3.9-1.5Z"/><path class="d" d="M115.4,54.3h6.9v1.8h-4.9v1.9h4.3v1.8h-4.3v1.9h5v1.8h-7v-9.2Z"/><path class="d" d="M127.4,54.3h7v1.8h-5v2h4.4v1.8h-4.4v3.6h-2v-9.2Z"/><path class="d" d="M135.7,54.3h2v9.2h-2v-9.2Z"/><path class="d" d="M139.7,54.3h4.2c1.2,0,2.1,.3,2.7,.9,.5,.5,.8,1.2,.8,2.1h0c0,1.5-.8,2.4-2,2.9l2.2,3.3h-2.4l-2-2.9h-1.6v2.9h-2v-9.2Zm4.1,4.5c1,0,1.5-.5,1.5-1.3h0c0-.9-.6-1.3-1.6-1.3h-2v2.6h2Z"/><path class="d" d="M148.9,54.3h6.9v1.8h-4.9v1.9h4.3v1.8h-4.3v1.9h5v1.8h-7v-9.2Z"/><path class="d" d="M161,54.3h2.2l2.4,3.9,2.4-3.9h2.2v9.2h-2v-6l-2.6,3.9h0l-2.6-3.9v6h-2v-9.2Z"/><path class="d" d="M172.2,54.3h6.9v1.8h-4.9v1.9h4.3v1.8h-4.3v1.9h5v1.8h-7v-9.2Z"/><path class="d" d="M180.8,54.3h2.2l2.4,3.9,2.4-3.9h2.2v9.2h-2v-6l-2.6,3.9h0l-2.6-3.9v6h-2v-9.2Z"/><path class="d" d="M191.4,58.9h0c0-2.6,2.1-4.8,4.9-4.8s4.9,2.1,4.9,4.7h0c0,2.6-2.1,4.8-4.9,4.8s-4.9-2.1-4.9-4.7Zm7.7,0h0c0-1.6-1.2-2.9-2.8-2.9s-2.8,1.3-2.8,2.9h0c0,1.6,1.2,2.9,2.8,2.9s2.8-1.3,2.8-2.9Z"/><path class="d" d="M202.7,54.3h4.2c1.2,0,2.1,.3,2.7,.9,.5,.5,.8,1.2,.8,2.1h0c0,1.5-.8,2.4-2,2.9l2.2,3.3h-2.4l-2-2.9h-1.6v2.9h-2v-9.2Zm4.1,4.5c1,0,1.5-.5,1.5-1.3h0c0-.9-.6-1.3-1.6-1.3h-2v2.6h2Z"/><path class="d" d="M211.9,54.3h2v9.2h-2v-9.2Z"/><path class="d" d="M218.9,54.2h1.9l3.9,9.3h-2.1l-.8-2.1h-3.9l-.8,2.1h-2.1l3.9-9.3Zm2.1,5.4l-1.2-3-1.2,3h2.4Z"/><path class="d" d="M225.7,54.3h2v7.4h4.6v1.8h-6.6v-9.2Z"/></g></g></g></g></g></svg>