<?xml version="1.0" encoding="UTF-8"?><svg xmlns="http://www.w3.org/2000/svg" viewBox="0 0 233.3 131.3"><defs><style>.d{fill:#fff;}.e{fill:#8c6e5a;stroke:#fff;stroke-linecap:round;stroke-linejoin:round;stroke-width:3px;}</style></defs><g id="a"/><g id="b"><g id="c"><g><polygon class="e" points="205.7 1.5 231.8 27.6 231.8 129.8 205.7 103.7 28 103.7 1.5 77.2 1.5 1.5 205.7 1.5"/><g><g><path class="d" d="M37.7,34.4v-3.4c-1.5,1.5-3.4,2.9-5.3,3.9h14.3v9.5h-3v-.7h-8.9v.7h-2.8v-9.3c-.7,.4-1.4,.7-2.2,.9-.4-.7-1.3-1.8-1.9-2.4,2.5-.7,5.1-1.9,7-3.4h-6.3v-2.5h9.1v-1.7c-2.2,.2-4.3,.3-6.4,.4,0-.7-.4-1.7-.7-2.4,5.2-.2,11.1-.8,14.6-1.6l2,2.2c-2,.5-4.2,.9-6.6,1.1v1.9h9.1v2.5h-5.7c2.3,1.3,4.7,2.8,6.1,3.9l-1.7,2.2c-1.7-1.5-5-3.7-7.9-5.2v3.4h-2.9Zm-2.9,2.7v1.3h8.9v-1.3h-8.9Zm8.9,4.5v-1.3h-8.9v1.3h8.9Z"/><path class="d" d="M57.9,33.5c-.8-.7-2.6-1.8-3.9-2.5l1.6-2c1.3,.6,3,1.5,3.9,2.2l-1.7,2.2Zm8,5.8v1.4c0,.9,.2,1,1.6,1h4.3c1.1,0,1.3-.3,1.4-2.4,.5,.4,1.6,.8,2.2,.9-.3,3-1,3.8-3.4,3.8h-4.7c-2.9,0-3.8-.7-3.8-3.3v-4.6c-.7,.8-1.4,1.5-2.2,2.1-.3-.4-.9-1.1-1.3-1.6-.9,2.3-2,4.9-3,7.1l-2.5-1.6c1-1.7,2.3-4.6,3.3-7.2l1.7,1.2c1.5-1,3-2.8,4-4.5h-3.6v-2.5h3.8v-1.8h-2.9v-2.5h2.9v-2.4h2.7v2.4h3.3v-2.4h2.8v2.4h3v2.5h-3v1.8h3.7v2.5h-3.7c.9,1.6,2.4,3.2,3.9,4.1-.6,.5-1.5,1.5-2,2.2-.8-.5-1.5-1.3-2.2-2.1v3.6h-6.4Zm-6.9-12.1c-.8-.7-2.5-1.8-3.7-2.6l1.7-2c1.2,.6,2.9,1.7,3.8,2.3l-1.7,2.2Zm7.3,4.2c-.3,.7-.6,1.3-1,2h5.5c-.4-.7-.7-1.3-1-2h-3.5Zm3.8,4h-4.2v1.8h4.2v-1.8Zm-3.7-6.5h3.3v-1.8h-3.3v1.8Z"/><path class="d" d="M100.9,26.4v11.8h-3v-1.2h-5.3v7.4h-3v-7.4h-5.3v1.3h-2.8v-11.9h8.2v-4.1h3v4.1h8.3Zm-11.3,7.8v-5.1h-5.3v5.1h5.3Zm8.3,0v-5.1h-5.3v5.1h5.3Z"/><path class="d" d="M118.5,38.1v1.2h7.9v2.3h-7.9v2.8h-2.8v-2.8h-7.8v-2.3h7.8v-1.2h-9.2v-2.4h9.2v-5.3h-8.6v-2.3h20.2v2.3h-8.8v5.3h9.5v2.4h-9.5Zm-6.9-11.9h-5v-2.5h5v-1.3h2.7v1.3h2.4v2.5h-2.4v1.3h-2.7v-1.3Zm1,4.6v1h2.2v2.4h-2.2v1.1h-2.6v-1.1h-3v-2.4h3v-1h2.6Zm7.2-4.6h-2.3v-2.5h2.3v-1.3h2.7v1.3h5.1v2.5h-5.1v1.3h-2.7v-1.3Zm1.9,9.1v-1.3h-2.3v-2.4h2.3v-.9h2.6v.9h2.8v2.4h-2.8v1.3h-2.6Z"/><path class="d" d="M138,33.3c-.4,2.2-.9,4.5-1.7,6.4,.4,.2,.9,.6,1.5,1,1.6,.9,3.9,1.1,6.7,1.1s7-.3,9.7-.6c-.3,.7-.8,2-.8,2.7-1.9,0-6.2,.3-9,.3s-5.2-.2-6.9-1.2c-1-.6-1.8-1.3-2.4-1.3s-1.1,1.6-1.5,2.9l-1.8-2.6c.8-1.1,1.6-1.9,2.3-2.3,.5-1.2,.9-2.7,1.2-4.2h-2.6c.5-1.4,1-3.3,1.5-5.1h-1.9v-2.5h4.8c-.4,1.7-.9,3.5-1.4,5.2h1.2l1.1,.3Zm-3.5-6.2c-.3-1.1-.8-2.8-1.1-4.1l2.2-.6c.4,1.3,.9,2.9,1.2,3.9l-2.2,.8Zm5.2,.5h-1.9v-2.3h3c-.2-.8-.4-1.7-.7-2.4l2.5-.4c.4,.9,.7,2,.9,2.8h2.2v1.3c.8-1.3,1.4-2.9,1.8-4.5l2.4,.6c-.2,.6-.4,1.2-.6,1.8h4.6v2.3h-5.6c-.3,.5-.5,1-.8,1.4h4.9l1.5,1c-.8,.9-1.7,1.9-2.6,2.7v.9h2.7v2.2h-2.7v2.8c0,1.1-.1,1.8-.9,2.2-.7,.4-1.7,.4-3,.4,0-.7-.4-1.7-.8-2.3,.9,0,1.7,0,2,0s.4,0,.4-.3v-2.8h-2.6v-2.2h2.6v-1.5c.4-.3,.8-.7,1.2-1.2h-3.2v-1.5c-.4-.4-1.2-.9-1.6-1.3h-3.2v1.7h3.7v1c-.1,6.4-.3,8.7-.8,9.4-.4,.6-.8,.8-1.3,.9-.5,0-1.3,0-2.1,0,0-.7-.3-1.6-.6-2.2,.6,0,1.1,0,1.4,0s.4,0,.6-.3c.3-.4,.4-2.1,.5-6.6h-1.3c0,2.8-.6,6.4-2.9,8.7-.4-.5-1.1-1.3-1.6-1.6,2-2.3,2.2-5.8,2.2-8.3v-2.8Z"/><path class="d" d="M166.9,39.2c-1.7,2-4.4,3.8-7.2,4.5-.4-.7-1.3-1.8-1.8-2.3,2.6-.5,5.4-1.7,6.8-3.1l2.3,.9Zm-3.1-4.8c0-.3,0-.6-.1-1-3.5,.5-4.2,.6-4.6,.8-.1-.4-.5-1.5-.7-2,.5-.1,.9-.6,1.5-1.3,.2-.3,.8-.9,1.3-1.7-1.4,.2-1.8,.3-2.1,.4-.1-.4-.5-1.5-.7-2,.4,0,.7-.4,1-.9,.3-.5,1.4-2.3,1.9-4.1l2.2,.8c-.6,1.4-1.4,2.8-2.2,4h1.2c.4-.8,.8-1.4,1.1-2.1l2,1.1c-1.1,1.9-2.6,3.9-4.1,5.6l1.9-.2c0-.5-.2-1.1-.3-1.5l1.8-.4c.4,1.3,.7,3,.9,4.2l-1.9,.4Zm6.8,3.2v6.7h-2.8v-6.7h-9.4v-2.3h9.4v-1.1h2.8v1.1h9.1v2.3h-9.1Zm1.9-13.2v9.3h-6.6v-9.3h1.9c.2-.8,.4-1.6,.4-2.2l2.6,.4-.8,1.8h2.6Zm-2.5,2.1h-1.8v1.6h1.8v-1.6Zm0,3.5h-1.8v1.7h1.8v-1.7Zm3.5,8.1c2.1,1,4.9,2.7,6.3,3.8l-1.8,2c-1.3-1.2-4.1-2.9-6.2-4.1l1.7-1.7Zm5.5-8c.4,1.3,.8,3,1,4.1l-1.9,.5c0-.3,0-.6-.1-.9-3.5,.4-4.2,.5-4.6,.7-.1-.4-.5-1.6-.7-2.1,.5-.1,.9-.6,1.5-1.2,.3-.3,.8-.9,1.4-1.8-1.6,.2-2.1,.4-2.4,.5-.1-.5-.5-1.5-.7-2.1,.3,0,.7-.4,1-.9,.3-.5,1.4-2.4,1.9-4.2l2.3,.6c-.6,1.5-1.4,3-2.2,4.2h1.6c.3-.7,.7-1.4,1-2l2,1.2c-1.2,1.9-2.7,3.9-4.2,5.6l1.8-.2c-.1-.5-.2-1-.4-1.5l1.7-.4Z"/><path class="d" d="M197.2,23c-.1,.1-.2,.3-.4,.4,2.2,1.9,6.1,3.5,9.8,4.3-.6,.5-1.4,1.5-1.8,2.2-.5-.1-1-.3-1.5-.4v6.1h-16.4v-6c-.5,.2-1,.3-1.5,.4-.3-.5-1-1.7-1.5-2.2,4.3-1,8.6-3,10.7-5.7l2.5,.9Zm5.4,6.1c-1.1-.4-2.2-.9-3.2-1.4v.6h-8.3v-.5c-.9,.5-1.9,.9-2.9,1.3h14.4Zm-14.3,7.2h13.9v8h-2.9v-.6h-8.2v.6h-2.8v-8.1Zm2.7-2.5c-.1-.7-.4-1.7-.8-2.5l1.8-.5h-2.7v3h1.7Zm0,4.3v.9h8.2v-.9h-8.2Zm8.2,3.7v-.9h-8.2v.9h8.2Zm-5.4-11h-1.8c.4,.8,.8,1.8,.9,2.5l-1.5,.5h2.4v-3Zm3.4-4.4c-.7-.5-1.4-1-2-1.5-.6,.5-1.3,1-2,1.5h4Zm-1.1,4.4v3h2.2l-1.4-.4c.3-.7,.7-1.8,.9-2.6h-1.7Zm4.7,0h-2.5l1.8,.4c-.5,.9-.9,1.9-1.3,2.5h1.9v-3Z"/></g><g><path class="d" d="M28,58.9h0c0-2.6,2-4.8,4.8-4.8s2.8,.6,3.6,1.4l-1.3,1.5c-.7-.6-1.4-1-2.4-1-1.5,0-2.7,1.3-2.7,2.9h0c0,1.6,1.1,2.9,2.7,2.9s1.7-.4,2.4-1.1l1.3,1.3c-.9,1-2,1.6-3.8,1.6-2.7,0-4.7-2.1-4.7-4.7Z"/><path class="d" d="M37.7,54.3h2v3.6h3.7v-3.6h2v9.2h-2v-3.7h-3.7v3.7h-2v-9.2Z"/><path class="d" d="M47.5,54.3h2v9.2h-2v-9.2Z"/><path class="d" d="M51.4,54.3h1.9l4.3,5.7v-5.7h2v9.2h-1.7l-4.5-5.8v5.8h-2v-9.2Z"/><path class="d" d="M61.6,54.3h6.9v1.8h-4.9v1.9h4.3v1.8h-4.3v1.9h5v1.8h-7v-9.2Z"/><path class="d" d="M69.4,62.2l1.2-1.4c.8,.7,1.7,1.1,2.7,1.1s1.3-.3,1.3-.9h0c0-.5-.3-.8-1.9-1.2-1.9-.5-3-1-3-2.8h0c0-1.7,1.3-2.8,3.2-2.8s2.5,.4,3.4,1.2l-1.1,1.5c-.8-.6-1.6-.9-2.4-.9s-1.2,.4-1.2,.8h0c0,.6,.4,.8,2,1.2,1.9,.5,2.9,1.2,2.9,2.8h0c0,1.9-1.4,2.9-3.4,2.9s-2.8-.5-3.9-1.5Z"/><path class="d" d="M78.2,54.3h6.9v1.8h-4.9v1.9h4.3v1.8h-4.3v1.9h5v1.8h-7v-9.2Z"/><path class="d" d="M90.2,54.3h4.2c1.2,0,2.1,.3,2.7,.9,.5,.5,.8,1.2,.8,2.1h0c0,1.5-.8,2.4-2,2.9l2.2,3.3h-2.4l-2-2.9h-1.6v2.9h-2v-9.2Zm4.1,4.5c1,0,1.5-.5,1.5-1.3h0c0-.9-.6-1.3-1.6-1.3h-2v2.6h2Z"/><path class="d" d="M99.5,54.3h6.9v1.8h-4.9v1.9h4.3v1.8h-4.3v1.9h5v1.8h-7v-9.2Z"/><path class="d" d="M107.4,58.9h0c0-2.6,2-4.8,4.8-4.8s2.8,.6,3.6,1.4l-1.3,1.5c-.7-.6-1.4-1-2.4-1-1.5,0-2.7,1.3-2.7,2.9h0c0,1.6,1.1,2.9,2.7,2.9s1.7-.4,2.4-1.1l1.3,1.3c-.9,1-2,1.6-3.8,1.6-2.7,0-4.7-2.1-4.7-4.7Z"/><path class="d" d="M117.1,54.3h4.2c1.2,0,2.1,.3,2.7,.9,.5,.5,.8,1.2,.8,2.1h0c0,1.5-.8,2.4-2,2.9l2.2,3.3h-2.4l-2-2.9h-1.6v2.9h-2v-9.2Zm4.1,4.5c1,0,1.5-.5,1.5-1.3h0c0-.9-.6-1.3-1.6-1.3h-2v2.6h2Z"/><path class="d" d="M126.3,54.3h6.9v1.8h-4.9v1.9h4.3v1.8h-4.3v1.9h5v1.8h-7v-9.2Z"/><path class="d" d="M138,54.2h1.9l3.9,9.3h-2.1l-.8-2.1h-3.9l-.8,2.1h-2.1l3.9-9.3Zm2.1,5.4l-1.2-3-1.2,3h2.4Z"/><path class="d" d="M145.9,56.2h-2.8v-1.9h7.6v1.9h-2.8v7.3h-2v-7.3Z"/><path class="d" d="M151.8,54.3h2v9.2h-2v-9.2Z"/><path class="d" d="M155.3,58.9h0c0-2.6,2.1-4.8,4.9-4.8s4.9,2.1,4.9,4.7h0c0,2.6-2.1,4.8-4.9,4.8s-4.9-2.1-4.9-4.7Zm7.7,0h0c0-1.6-1.2-2.9-2.8-2.9s-2.8,1.3-2.8,2.9h0c0,1.6,1.2,2.9,2.8,2.9s2.8-1.3,2.8-2.9Z"/><path class="d" d="M166.5,54.3h1.9l4.3,5.7v-5.7h2v9.2h-1.7l-4.5-5.8v5.8h-2v-9.2Z"/><path class="d" d="M179.8,58.9h0c0-2.6,2-4.8,4.8-4.8s2.8,.6,3.6,1.4l-1.3,1.5c-.7-.6-1.4-1-2.4-1-1.5,0-2.7,1.3-2.7,2.9h0c0,1.6,1.1,2.9,2.7,2.9s1.7-.4,2.4-1.1l1.3,1.3c-.9,1-2,1.6-3.8,1.6-2.7,0-4.7-2.1-4.7-4.7Z"/><path class="d" d="M189.4,54.3h2v7.4h4.6v1.8h-6.6v-9.2Z"/><path class="d" d="M196.9,59.6v-5.3h2v5.2c0,1.5,.7,2.3,2,2.3s2-.7,2-2.2v-5.3h2v5.2c0,2.8-1.6,4.1-4,4.1s-4-1.4-4-4.1Z"/><path class="d" d="M206.7,54.3h4.3c1,0,1.9,.3,2.4,.8,.4,.4,.6,.9,.6,1.6h0c0,1.1-.6,1.6-1.2,2,1.1,.4,1.7,1,1.7,2.3h0c0,1.7-1.4,2.5-3.4,2.5h-4.4v-9.2Zm5.3,2.7c0-.6-.5-.9-1.3-.9h-2v1.9h1.9c.9,0,1.5-.3,1.5-1h0Zm-1,2.7h-2.3v2h2.4c.9,0,1.4-.3,1.4-1h0c0-.6-.5-1-1.5-1Z"/><path class="d" d="M215.4,64.8c.9,0,1.4-.6,1.3-1.3h-.8v-2.1h2.1v1.8c0,1.7-.9,2.4-2.4,2.5l-.2-.8Z"/><path class="d" d="M28.5,70.1h2v3.6h3.7v-3.6h2v9.2h-2v-3.7h-3.7v3.7h-2v-9.2Z"/><path class="d" d="M37.7,74.7h0c0-2.6,2.1-4.8,4.9-4.8s4.9,2.1,4.9,4.7h0c0,2.6-2.1,4.8-4.9,4.8s-4.9-2.1-4.9-4.7Zm7.7,0h0c0-1.6-1.2-2.9-2.8-2.9s-2.8,1.3-2.8,2.9h0c0,1.6,1.2,2.9,2.8,2.9s2.8-1.3,2.8-2.9Z"/><path class="d" d="M48.9,70.1h1.9l4.3,5.7v-5.7h2v9.2h-1.7l-4.5-5.8v5.8h-2v-9.2Z"/><path class="d" d="M58.6,74.7h0c0-2.6,2-4.8,4.8-4.8s2.7,.4,3.6,1.3l-1.3,1.5c-.7-.6-1.3-.9-2.4-.9s-2.6,1.3-2.6,2.9h0c0,1.7,1.2,2.9,2.8,2.9s1.4-.2,1.9-.6v-1.3h-2v-1.7h4v4c-.9,.8-2.2,1.5-3.9,1.5-2.9,0-4.8-2-4.8-4.7Z"/><path class="d" d="M72.6,70.1h2v4l3.7-4h2.4l-3.7,3.9,3.9,5.3h-2.4l-2.8-3.9-1.1,1.1v2.8h-2v-9.2Z"/><path class="d" d="M80.8,74.7h0c0-2.6,2.1-4.8,4.9-4.8s4.9,2.1,4.9,4.7h0c0,2.6-2.1,4.8-4.9,4.8s-4.9-2.1-4.9-4.7Zm7.7,0h0c0-1.6-1.2-2.9-2.8-2.9s-2.8,1.3-2.8,2.9h0c0,1.6,1.2,2.9,2.8,2.9s2.8-1.3,2.8-2.9Z"/><path class="d" d="M92.1,70.1h1.9l4.3,5.7v-5.7h2v9.2h-1.7l-4.5-5.8v5.8h-2v-9.2Z"/><path class="d" d="M101.7,74.7h0c0-2.6,2-4.8,4.8-4.8s2.7,.4,3.6,1.3l-1.3,1.5c-.7-.6-1.3-.9-2.4-.9s-2.6,1.3-2.6,2.9h0c0,1.7,1.2,2.9,2.8,2.9s1.4-.2,1.9-.6v-1.3h-2v-1.7h4v4c-.9,.8-2.2,1.5-3.9,1.5-2.9,0-4.8-2-4.8-4.7Z"/></g></g></g></g></g></svg>