<?xml version="1.0" encoding="UTF-8"?><svg xmlns="http://www.w3.org/2000/svg" viewBox="0 0 233.5 131.3"><defs><style>.d{fill:#fff;}.e{fill:#8c6e5a;stroke:#fff;stroke-linecap:round;stroke-linejoin:round;stroke-width:3px;}</style></defs><g id="a"/><g id="b"><g id="c"><g><polygon class="e" points="205.9 129.8 232 103.7 232 1.5 205.9 27.6 28 27.6 1.5 54.1 1.5 129.8 205.9 129.8"/><g><g><path class="d" d="M34.5,50.9c-.1,.3-.3,.6-.4,.9,1.4,.8,2.8,1.8,3.6,2.6l-1.1,2.3c-.2-.2-.4-.4-.5-.5v2.2h-2v1.7h2.8v2.4h-2.8v5.5l2.8-.5v2.2c-2.6,.7-5.6,1.3-7.9,1.8l-.5-2.5c.9-.1,2.1-.4,3.4-.6v-5.9h-3v-2.4h3v-1.7h-1.7v-1c-.4,.4-.7,.7-1.1,1-.1-.6-.7-2.2-1-2.9,1.7-1.3,3.5-3.3,4.6-5.5l2,.9Zm-4,12.4c.4,1.3,.7,3,.9,4.1l-1.8,.5c0-1.1-.4-2.8-.7-4.1l1.7-.5Zm5.3-7.3c-.8-.8-1.9-1.5-3-2.2-.5,.8-1.1,1.5-1.7,2.2h4.6Zm-1.7,11.1c.3-1.1,.7-2.8,.8-4l1.9,.5c-.4,1.4-.9,3-1.2,4l-1.6-.5Zm15.4,2.2c0,1.3-.2,2-1,2.4-.8,.4-1.9,.5-3.5,.5,0-.7-.4-1.9-.7-2.6,1,0,2.1,0,2.5,0s.4-.1,.4-.4v-15.8h-7.1v18.7h-2.3v-21.2h11.8v18.4Zm-3.4-11.8h-5.1v-2.3h5.1v2.3Zm-3.3,9.1v1.2h-1.7v-8.5h4.8v7.3h-3.1Zm0-5.2v3h1.4v-3h-1.4Z"/><path class="d" d="M59.2,60.1h2.5v2.4h-2.5v5.5l2.4-.5v2.2c-2.3,.7-4.9,1.3-6.9,1.8l-.5-2.5c.8-.1,1.8-.3,2.9-.6v-5.9h-2.6v-2.4h2.6v-1.7h-1.4v-1.1c-.3,.4-.7,.8-1,1.1-.1-.6-.6-2.2-.9-2.9,1.5-1.3,3.1-3.3,4-5.5l1.8,.9c-.1,.3-.2,.6-.4,.9,1.3,.9,2.5,1.9,3.2,2.7l-1,2.3c-.2-.2-.3-.4-.5-.6v2.2h-1.8v1.7Zm-3,3.2c.3,1.3,.6,3,.7,4l-1.6,.5c0-1.1-.4-2.8-.7-4.1l1.5-.5Zm4.6-7.3c-.7-.8-1.7-1.6-2.6-2.2-.4,.8-.9,1.5-1.5,2.2h4.1Zm-1.5,11.1c.3-1.1,.6-2.8,.7-4l1.7,.5c-.4,1.4-.8,3-1.1,3.9l-1.4-.5Zm4.8,.7c-.2,1.5-.5,3.2-.7,4.2-.4-.2-1.1-.3-1.5-.4,.3-1.1,.6-2.7,.8-4.1l1.5,.3Zm2.8-.7c0-.3,0-.5-.2-.9-3,.5-3.6,.7-4,.9,0-.4-.4-1.2-.5-1.7,.4,0,.8-.5,1.3-1.2,.2-.3,.6-.8,1-1.6-1.2,0-1.6,.2-1.9,.3,0-.4-.4-1.3-.6-1.7,.3,0,.6-.4,.9-.9,.3-.4,1.2-2.2,1.7-3.9h-1.7v-5.6h12.5v5.6h-10.7l1.7,.7c-.5,1.3-1.2,2.6-2,3.8h1c.4-.8,.8-1.6,1.1-2.4l1.7,.9c-.9,1.9-2.2,3.9-3.4,5.5l1.4-.2c-.1-.4-.2-.9-.3-1.2l1.5-.3c.4,1.1,.8,2.6,1,3.5l-1.5,.4Zm-1,.4c.2,1.2,.4,2.8,.4,3.8l-1.5,.3c0-1-.1-2.6-.3-3.8l1.5-.2Zm-.5-13h1.3v-1.6h-1.3v1.6Zm2.2,12.7c.4,1.1,.8,2.5,1,3.4l-1.4,.4c-.1-.9-.6-2.4-.9-3.5l1.3-.4Zm8.6,4.1h-5.4v1h-2v-9.1c-.4-.4-.9-.9-1.2-1.1,1-1.4,1.7-3.5,2.2-5.5l1.9,.4c-.2,.8-.4,1.6-.7,2.3h1.5c-.2-.7-.4-1.5-.7-2.2l1.7-.5c.4,.9,.7,1.9,.9,2.7h1.5v2.1h-1.7v1.3h1.5v2h-1.5v1.2h1.5v2h-1.5v1.3h1.9v2.1Zm-7.7-16.8h1.4v-1.6h-1.4v1.6Zm3.8,6.9h-1.6v1.3h1.6v-1.3Zm0,3.3h-1.6v1.2h1.6v-1.2Zm-1.6,4.5h1.6v-1.3h-1.6v1.3Zm.9-14.7h1.4v-1.6h-1.4v1.6Z"/><path class="d" d="M83.4,60.9c-.7-.7-2.2-1.8-3.4-2.4l1.5-2c1.2,.6,2.7,1.5,3.5,2.2l-1.7,2.2Zm.4-6.1c-.6-.8-2.1-1.9-3.3-2.6l1.6-1.9c1.2,.6,2.7,1.6,3.4,2.4l-1.7,2.1Zm-3.3,15.6c.9-1.8,2.1-4.8,2.9-7.6l2.2,1.4c-.8,2.5-1.7,5.2-2.6,7.5l-2.5-1.4Zm6.3-11.3c-.2,1.2-.5,2.4-1,3.2-.3-.2-.8-.7-1.2-.8,.4-.8,.6-1.7,.8-2.7l1.3,.3Zm2.9-1c0-.2-.1-.4-.2-.7-3,.4-3.6,.6-4,.7,0-.2-.4-.8-.5-1.2,.4,0,.7-.4,1.1-.8,.2-.2,.7-.8,1.2-1.5-1.2,.1-1.6,.2-1.8,.3,0-.2-.4-.8-.6-1.1,.3,0,.5-.3,.8-.6,.3-.4,1.1-1.7,1.4-3l1.5,.5c-.4,.9-.9,1.8-1.5,2.6h1.1c.2-.4,.4-.8,.6-1.1l1.4,.7c-.7,1.2-1.6,2.4-2.5,3.5h1.3c0-.4-.2-.6-.3-.8l1.2-.4c.4,.8,.9,1.8,1,2.5l-1.2,.5Zm11.6,8.8s0,.7-.1,1c-.4,1.9-.8,2.9-1.4,3.5-.6,.4-1.3,.6-2.2,.6-.8,0-2.2,0-3.7,0,0-.6-.4-1.5-.8-2.1,1.4,.1,3,.2,3.5,.2s.8,0,1-.2c.3-.2,.5-.6,.7-1.2h-12c.4-1.1,.8-2.7,1.1-4h10.1v-.8h-10.8v-1.6h13.4v3.9h-10.5l-.2,.8h11.8Zm-13.8-5.2c0-.7-.2-1.8-.4-2.7l1.2-.3c.3,.9,.5,1.9,.5,2.6l-1.3,.4Zm2-.5c0-.7-.3-1.7-.6-2.5l1.1-.4c.3,.8,.6,1.8,.7,2.4l-1.2,.5Zm6.6-7.5h-5.6v-1.5h2.2c-.2-.5-.4-1.2-.7-1.7l1.8-.4c.3,.6,.7,1.3,.9,1.8l-.9,.2h2.4v1.5Zm-5,4.3h4.5v3.5h-4.5v-3.5Zm4.5-2.5h-4.5v-1.3h4.5v1.3Zm0,1.8h-4.5v-1.3h4.5v1.3Zm-2.9,2.9h1.2v-1h-1.2v1Zm5.1-1.4c-.2,1.2-.5,2.4-1,3.1-.2-.2-.8-.6-1.1-.8,.4-.7,.6-1.7,.8-2.7l1.3,.4Zm3-.8c0-.2-.1-.5-.2-.8-3,.4-3.6,.5-4,.7,0-.3-.3-.9-.5-1.2,.4,0,.7-.3,1.1-.8,.2-.2,.7-.8,1.2-1.5-1.2,.1-1.6,.2-1.9,.3,0-.2-.3-.8-.5-1.1,.3,0,.5-.3,.8-.6,.3-.3,1.1-1.7,1.4-3l1.5,.6c-.4,.9-.9,1.8-1.5,2.6h1.1c.2-.4,.4-.8,.5-1.1l1.4,.6c-.7,1.2-1.6,2.4-2.5,3.5h1.3c0-.4-.2-.6-.3-.8l1.2-.4c.4,.8,.9,1.8,1.1,2.5l-1.2,.5Zm-2.3,3.9c0-.8-.2-2-.5-3l1.2-.3c.3,.9,.5,2.2,.5,2.9l-1.3,.4Zm2.5-3.7c.4,.9,.8,2.1,.9,2.9l-1.2,.5c0-.8-.4-2.1-.8-3l1.1-.4Z"/><path class="d" d="M119.2,61.6c1.7,3.8,4.7,6.5,9.3,7.7-.7,.6-1.5,1.8-1.9,2.6-4.4-1.4-7.3-4.2-9.3-8-1.3,3.1-4,6.1-9.3,8.1-.4-.7-1.2-1.9-1.8-2.4,5.5-1.9,7.8-5,8.7-8h-7.9v-2.9h8.5c0-.6,0-1.2,0-1.8v-2.4h-7.7v-2.9h18.7v2.9h-8v2.4c0,.6,0,1.2,0,1.8h9v2.9h-8.2Z"/><path class="d" d="M154.1,56.6v2.7h-16.5c0,3.9-.7,9.5-3.4,13-.5-.6-1.7-1.6-2.3-1.9,2.6-3.3,2.8-8.2,2.8-11.7v-6.5c5.6-.3,11.9-.9,15.7-1.9l2.3,2.3c-4.3,1-9.9,1.7-15.1,2v2.1h16.5Zm-15.3,5.3h13.7v10.2h-3v-1h-7.9v1.1h-2.9v-10.3Zm2.9,2.6v4h7.9v-4h-7.9Z"/><path class="d" d="M170.7,56.8v4.2h6.8v11h-3.1v-1h-10.7v1.1h-3v-11.1h6.8v-4.2h-9.2v-2.7h9.2v-4h3.1v4h9.2v2.7h-9.2Zm3.8,6.9h-10.7v4.6h10.7v-4.6Z"/><path class="d" d="M205.9,51.9v2.3h-17.7v4.8c0,3.8-.3,9.5-2.2,13.2-.4-.5-1.6-1.3-2.2-1.6,1.6-3.3,1.7-8.1,1.7-11.6v-7.1h8.4c-.2-.4-.5-.9-.8-1.2l2.4-.9c.5,.6,1,1.4,1.3,2.1h8.8Zm-.6,17.6c0,1.2-.2,1.8-1,2.2-.7,.4-1.8,.4-3.3,.4,0-.7-.4-1.7-.7-2.3,.9,0,1.8,0,2.1,0s.4,0,.4-.4v-3.4h-2.8c-.3,2.2-1,4.5-2.4,6.2-.4-.5-1.4-1.4-1.9-1.7,.4-.4,.7-.9,.9-1.4h-2.6v3h-2.4v-3h-3.5v-2.2h3.5v-1.1h-2.6v-6.6h2.6v-1h-3v-2h3v-1.5h2.4v1.5h3.1v2h-3.1v1h2.7v6.6h-2.7v1.1h3.1v.8c.6-2,.7-4.2,.7-6v-6.3h7.4v14Zm-14.1-7.7h3.4v-1h-3.4v1Zm0,2.5h3.4v-1h-3.4v1Zm11.6-.2v-2.3h-2.5c0,.7,0,1.5,0,2.3h2.5Zm-2.5-6.4v2.2h2.5v-2.2h-2.5Z"/></g><g><path class="d" d="M30.6,83.9h-2.8v-1.9h7.6v1.9h-2.8v7.3h-2v-7.3Z"/><path class="d" d="M36.5,82.1h2v9.2h-2v-9.2Z"/><path class="d" d="M40.5,82.1h1.9l4.3,5.7v-5.7h2v9.2h-1.7l-4.5-5.8v5.8h-2v-9.2Z"/><path class="d" d="M54.2,82.1h2v3.6h3.7v-3.6h2v9.2h-2v-3.7h-3.7v3.7h-2v-9.2Z"/><path class="d" d="M66.9,82h1.9l3.9,9.3h-2.1l-.8-2.1h-3.9l-.8,2.1h-2.1l3.9-9.3Zm2.1,5.4l-1.2-3-1.2,3h2.4Z"/><path class="d" d="M73.1,87.3v-5.3h2v5.2c0,1.5,.7,2.3,2,2.3s2-.7,2-2.2v-5.3h2v5.2c0,2.8-1.6,4.1-4,4.1s-4-1.4-4-4.1Z"/><path class="d" d="M88.6,83.9h-2.8v-1.9h7.6v1.9h-2.8v7.3h-2v-7.3Z"/><path class="d" d="M94.5,82.1h6.9v1.8h-4.9v1.9h4.3v1.8h-4.3v1.9h5v1.8h-7v-9.2Z"/><path class="d" d="M103.1,82.1h2.2l2.4,3.9,2.4-3.9h2.2v9.2h-2v-6l-2.6,3.9h0l-2.6-3.9v6h-2v-9.2Z"/><path class="d" d="M114.3,82.1h3.8c2.2,0,3.5,1.3,3.5,3.2h0c0,2.2-1.7,3.3-3.7,3.3h-1.5v2.8h-2v-9.2Zm3.6,4.6c1,0,1.6-.6,1.6-1.4h0c0-.9-.6-1.4-1.6-1.4h-1.6v2.8h1.6Z"/><path class="d" d="M122.7,82.1h2v7.4h4.6v1.8h-6.6v-9.2Z"/><path class="d" d="M130.3,82.1h6.9v1.8h-4.9v1.9h4.3v1.8h-4.3v1.9h5v1.8h-7v-9.2Z"/><path class="d" d="M28,102.4h0c0-2.6,2-4.8,4.8-4.8s2.8,.6,3.6,1.4l-1.3,1.5c-.7-.6-1.4-1-2.4-1-1.5,0-2.7,1.3-2.7,2.9h0c0,1.6,1.1,2.9,2.7,2.9s1.7-.4,2.4-1.1l1.3,1.3c-.9,1-2,1.6-3.8,1.6-2.7,0-4.7-2.1-4.7-4.7Z"/><path class="d" d="M40.9,97.7h1.9l3.9,9.3h-2.1l-.8-2.1h-3.9l-.8,2.1h-2.1l3.9-9.3Zm2.1,5.4l-1.2-3-1.2,3h2.4Z"/><path class="d" d="M47.2,103.1v-5.3h2v5.2c0,1.5,.7,2.3,2,2.3s2-.7,2-2.2v-5.3h2v5.2c0,2.8-1.6,4.1-4,4.1s-4-1.4-4-4.1Z"/><path class="d" d="M56.3,105.7l1.2-1.4c.8,.7,1.7,1.1,2.7,1.1s1.3-.3,1.3-.9h0c0-.5-.3-.8-1.9-1.2-1.9-.5-3-1-3-2.8h0c0-1.7,1.3-2.8,3.2-2.8s2.5,.4,3.4,1.2l-1.1,1.5c-.8-.6-1.6-.9-2.4-.9s-1.2,.4-1.2,.8h0c0,.6,.4,.8,2,1.2,1.9,.5,2.9,1.2,2.9,2.8h0c0,1.9-1.4,2.9-3.4,2.9s-2.8-.5-3.9-1.5Z"/><path class="d" d="M65,97.8h6.9v1.8h-4.9v1.9h4.3v1.8h-4.3v1.9h5v1.8h-7v-9.2Z"/><path class="d" d="M72.8,97.8h2.2l1.9,6.2,2.1-6.2h1.7l2.1,6.2,1.9-6.2h2.1l-3.1,9.3h-1.8l-2.1-6-2.1,6h-1.8l-3.1-9.3Z"/><path class="d" d="M90.2,97.7h1.9l3.9,9.3h-2.1l-.8-2.1h-3.9l-.8,2.1h-2.1l3.9-9.3Zm2.1,5.4l-1.2-3-1.2,3h2.4Z"/><path class="d" d="M98.4,103.4l-3.5-5.6h2.4l2.2,3.7,2.2-3.7h2.3l-3.5,5.5v3.7h-2v-3.6Z"/><path class="d" d="M108.5,97.8h4.3c1.1,0,1.9,.3,2.4,.8,.4,.4,.6,.9,.6,1.6h0c0,1.1-.6,1.6-1.2,2,1.1,.4,1.7,1,1.7,2.3h0c0,1.7-1.4,2.5-3.4,2.5h-4.4v-9.2Zm5.3,2.7c0-.6-.5-.9-1.3-.9h-2v1.9h1.9c.9,0,1.5-.3,1.5-1h0Zm-1,2.7h-2.3v2h2.4c.9,0,1.4-.3,1.4-1h0c0-.6-.5-1-1.5-1Z"/><path class="d" d="M120.6,97.7h1.9l3.9,9.3h-2.1l-.8-2.1h-3.9l-.8,2.1h-2.1l3.9-9.3Zm2.1,5.4l-1.2-3-1.2,3h2.4Z"/><path class="d" d="M128.9,103.4l-3.5-5.6h2.4l2.2,3.7,2.2-3.7h2.3l-3.5,5.5v3.7h-2v-3.6Z"/></g></g></g></g></g></svg>