<?xml version="1.0" encoding="UTF-8"?><svg xmlns="http://www.w3.org/2000/svg" viewBox="0 0 224 112.1"><defs><style>.d{fill:#fff;}.e{fill:#8c6e5a;stroke:#fff;stroke-linecap:round;stroke-linejoin:round;stroke-width:3px;}</style></defs><g id="a"/><g id="b"><g id="c"><g><polygon class="e" points="27.6 110.6 1.5 84.5 1.5 1.5 27.6 27.6 196 27.6 222.5 54.1 222.5 110.6 27.6 110.6"/><g><g><path class="d" d="M28.2,64.4c-.6,1.7-1.6,3.6-2.4,4.8-.4-.4-1.3-1-1.8-1.3,.8-1.1,1.6-2.7,2.1-4.2l2.2,.6Zm3.3-1.4v7.8h-2.7v-7.8h-4.4v-2.4h4.4v-1.8h-4.5v-2.3h2.3c-.1-.7-.4-1.7-.7-2.5l1.9-.5h-3.2v-2.3h4c-.2-.6-.5-1.3-.7-1.9l2.8-.7c.4,.8,.8,1.7,1.1,2.6h3.4v2.3h-3l1.9,.4c-.4,.9-.7,1.8-1.1,2.6h2.5v2.3h-4v1.8h3.7v2.4h-3.7Zm-3.4-9.4c.4,.8,.7,1.8,.8,2.5l-1.7,.5h3.4c.4-.9,.8-2.1,1-2.9h-3.5Zm18,5.7h-2.2v11.6h-2.7v-11.6h-2.2v.3c0,3.5-.3,8.3-2.3,11.4-.5-.5-1.6-1.4-2.2-1.7,.4-.7,.8-1.5,1.1-2.3l-1.7,1c-.4-.9-1.2-2.5-1.8-3.5l1.8-1c.6,.9,1.4,2.2,1.8,3.1,.7-2.3,.7-4.8,.7-7v-8.4c2.6-.5,5.4-1.2,7.2-2l2.2,2.1c-1.9,.8-4.4,1.3-6.7,1.8v3.7h7.1v2.6Z"/><path class="d" d="M56.5,56.7c.9,.9,2.8,3.3,3.3,3.9l-1.5,2.7c-.4-.8-1.1-1.9-1.8-3v10.8h-2.7v-8.8c-.7,1.8-1.5,3.4-2.4,4.6-.3-.8-1-1.9-1.4-2.6,1.5-2.1,2.9-5.4,3.6-8.3h-3v-2.6h3.2v-4.4h2.7v4.4h2.7v2.6h-2.7v.7Zm15.5,0h-3v10.8c0,1.7-.4,2.5-1.4,3-1,.5-2.7,.6-5,.6,0-.9-.6-2.2-1-3,1.7,0,3.4,0,3.9,0,.5,0,.7-.2,.7-.7v-10.7h-6.4v-2.8h6.4v-4.8h2.8v4.8h3v2.8Zm-9.4,8.2c-.4-1.5-1.4-3.9-2.4-5.6l2.4-.9c1,1.7,2.1,4,2.5,5.5l-2.5,1.1Z"/><path class="d" d="M82.9,54.8c-.5,1.1-1.1,2.2-1.7,3.2v13h-2.6v-9.6c-.5,.6-1,1.1-1.4,1.5-.3-.6-1-2-1.5-2.6,1.9-1.5,3.7-4,4.8-6.4l2.5,.9Zm-.5-4.9c-1.3,2.1-3.2,4.3-5,5.7-.3-.6-1-1.6-1.5-2.1,1.5-1.1,3.2-3,4-4.5l2.5,.9Zm15.7,9.1h-1.8v8.9c0,1.4-.2,2.1-1.1,2.6-.8,.4-2,.5-3.6,.5,0-.7-.4-1.7-.7-2.5-3.1,.4-6.3,.7-8.7,1l-.3-2.6c1,0,2.2-.2,3.6-.3v-2.8h-2.9v-2.4h2.9v-2.3h2.6v2.3h2.9v2.4h-2.9v2.6c1.1-.1,2.2-.2,3.3-.4v2.2c.8,0,1.4,0,1.7,0,.3,0,.4,0,.4-.4v-8.8h-1.9v-2.5h6.5v2.5Zm-12.6-5.2h-2.7v-2.3h2.7v-2.6h2.7v2.6h2.7v2.3h-2.7v2.3h3v2.4h-8.8v-2.4h3.1v-2.3Zm12.2-1.2h-5.9v-2.5h5.9v2.5Z"/><path class="d" d="M101.9,66.9l1.6-2.2c1,1,2.3,1.8,3.9,1.8s3-.9,3-2.4-1-2.8-4.8-2.8v-2.5c3.2,0,4.3-1.1,4.3-2.7s-.9-2.2-2.3-2.2c-1.3,0-2.3,.6-3.3,1.6l-1.8-2.1c1.5-1.3,3.2-2.2,5.2-2.2,3.4,0,5.7,1.7,5.7,4.7s-1.1,3.3-2.9,4h0c2,.7,3.5,2.1,3.5,4.4s-2.8,5.1-6.1,5.1-4.6-1-5.9-2.4Z"/><path class="d" d="M118.6,60.2c0-6.1,2.4-9,5.9-9s5.9,3,5.9,9-2.4,9.1-5.9,9.1-5.9-3.1-5.9-9.1Zm8.6,0c0-4.9-1.1-6.3-2.6-6.3s-2.6,1.4-2.6,6.3,1.1,6.4,2.6,6.4,2.6-1.5,2.6-6.4Z"/><path class="d" d="M135,61h6.5v2.5h-6.5v-2.5Z"/><path class="d" d="M145.6,66.9l1.6-2.2c1,1,2.3,1.8,3.9,1.8s3-.9,3-2.4-1-2.8-4.8-2.8v-2.5c3.2,0,4.3-1.1,4.3-2.7s-.9-2.2-2.3-2.2c-1.3,0-2.3,.6-3.3,1.6l-1.8-2.1c1.5-1.3,3.2-2.2,5.2-2.2,3.4,0,5.7,1.7,5.7,4.7s-1.1,3.3-2.9,4h0c2,.7,3.5,2.1,3.5,4.4s-2.8,5.1-6.1,5.1-4.6-1-5.9-2.4Z"/><path class="d" d="M163.2,66.2h3.8v-11.1h-3.2v-2.2c1.7-.3,3-.8,4.1-1.5h2.6v14.7h3.3v2.8h-10.5v-2.8Z"/><path class="d" d="M186.3,61.9s0,.6,0,1c-.3,4.4-.6,6.3-1.2,7-.4,.5-.9,.7-1.6,.8-.6,0-1.5,0-2.5,0,0-.7-.3-1.7-.7-2.3,.9,0,1.6,0,2,0,.3,0,.5,0,.7-.2,.3-.4,.5-1.5,.7-4.2h-4.6c.3-1,.6-2.4,.9-3.8h-1.8v-2.4h8.8v2.4h-4.7c-.1,.5-.2,1.1-.3,1.6h4.2Zm.3-5.3h-7.2v-6.7h7.2v6.7Zm-2.1-4.8h-3.1v2.8h3.1v-2.8Zm12.8,7.9c.5,0,1.3,0,1.7-.2,0,.7,0,1.4,.2,2-.4,.1-1.1,.2-1.7,.2h-2.5c-2,0-2.4-.9-2.4-2.8h-1.7l-.2-1.7,1.9-.2v-1.4h-2.2v3.9c0,3.4-.4,8.3-2.3,11.4-.4-.4-1.5-1.2-2.1-1.5,1.7-2.9,1.9-7,1.9-10v-6.1h4.6v-4.5h2.7v1.3h4.5v2.2h-4.5v1h3.8l1.7,.3c-.3,1.6-.6,3.4-.9,4.5l-2-.5c0-.5,.2-1.3,.3-2.1h-3.1v1.2l2.2-.2,.2,1.8-2.4,.2h0c0,.7,0,1,.5,1h1.9Zm-3.5,2.8c-.1,3.9-.7,6.8-3.3,8.6-.3-.6-.9-1.5-1.5-1.8,2.1-1.4,2.4-3.6,2.5-6.7h2.3Zm4.3,5.6c.2,0,.3,0,.4,0s.2-.3,.2-.5c0-.4,0-1.2,0-2.2,.4,.4,1.3,.9,1.9,1.1,0,1.1-.2,2.3-.3,2.7-.2,.5-.4,.8-.8,1.1-.3,.2-.9,.3-1.3,.3h-1.3c-.6,0-1.2-.2-1.6-.5-.4-.4-.5-.8-.5-2.2v-5.4h2.3v5.2c0,.1,0,.3,0,.3,0,0,.2,.1,.4,.1h.4Z"/></g><g><path class="d" d="M23.8,88.7l1.4-1.3c.6,.7,1.3,1.1,2.2,1.1s1.3-.4,1.3-1.1h0c0-.8-.7-1.2-1.8-1.2h-.8l-.3-1.3,2.2-2.2h-3.6v-1.7h6.2v1.5l-2.3,2.2c1.2,.2,2.5,.9,2.5,2.6h0c0,1.8-1.3,3-3.3,3s-2.8-.7-3.6-1.6Z"/><path class="d" d="M31.8,85.6h0c0-2.7,1.7-4.8,4.1-4.8s4.1,2.1,4.1,4.7h0c0,2.7-1.6,4.8-4.1,4.8s-4.1-2.1-4.1-4.7Zm6.1,0h0c0-1.7-.8-3-2-3s-2,1.2-2,2.9h0c0,1.7,.8,3,2,3s2-1.2,2-2.9Z"/><path class="d" d="M41.4,85.1h4v1.9h-4v-1.9Z"/><path class="d" d="M45.9,88.7l1.4-1.3c.6,.7,1.3,1.1,2.2,1.1s1.3-.4,1.3-1.1h0c0-.8-.7-1.2-1.8-1.2h-.8l-.3-1.3,2.2-2.2h-3.6v-1.7h6.2v1.5l-2.3,2.2c1.2,.2,2.5,.9,2.5,2.6h0c0,1.8-1.3,3-3.3,3s-2.8-.7-3.6-1.6Z"/><path class="d" d="M55.6,82.9l-1.6,.4-.4-1.7,2.6-.8h1.4v9.3h-2v-7.2Z"/><path class="d" d="M62.5,88.8l1.2-1.4c.8,.7,1.7,1.1,2.7,1.1s1.3-.3,1.3-.9h0c0-.5-.3-.8-1.9-1.2-1.9-.5-3-1-3-2.8h0c0-1.7,1.3-2.8,3.2-2.8s2.5,.4,3.4,1.2l-1.1,1.5c-.8-.6-1.6-.9-2.4-.9s-1.2,.4-1.2,.8h0c0,.6,.4,.8,2,1.2,1.9,.5,2.9,1.2,2.9,2.8h0c0,1.9-1.4,2.9-3.4,2.9s-2.8-.5-3.9-1.5Z"/><path class="d" d="M71.1,86.2v-5.3h2v5.2c0,1.5,.7,2.3,2,2.3s2-.7,2-2.2v-5.3h2v5.2c0,2.8-1.6,4.1-4,4.1s-4-1.4-4-4.1Z"/><path class="d" d="M80.9,81h1.9l4.3,5.7v-5.7h2v9.2h-1.7l-4.5-5.8v5.8h-2v-9.2Z"/><path class="d" d="M94.2,85.6h0c0-2.6,2-4.8,4.8-4.8s2.8,.6,3.6,1.4l-1.3,1.5c-.7-.6-1.4-1-2.4-1-1.5,0-2.7,1.3-2.7,2.9h0c0,1.6,1.1,2.9,2.7,2.9s1.7-.4,2.4-1.1l1.3,1.3c-.9,1-2,1.6-3.8,1.6-2.7,0-4.7-2.1-4.7-4.7Z"/><path class="d" d="M103.8,81h2v3.6h3.7v-3.6h2v9.2h-2v-3.7h-3.7v3.7h-2v-9.2Z"/><path class="d" d="M113.4,86.2v-5.3h2v5.2c0,1.5,.7,2.3,2,2.3s2-.7,2-2.2v-5.3h2v5.2c0,2.8-1.6,4.1-4,4.1s-4-1.4-4-4.1Z"/><path class="d" d="M123.3,81h1.9l4.3,5.7v-5.7h2v9.2h-1.7l-4.5-5.8v5.8h-2v-9.2Z"/><path class="d" d="M136.3,88.8l1.2-1.4c.8,.7,1.7,1.1,2.7,1.1s1.3-.3,1.3-.9h0c0-.5-.3-.8-1.9-1.2-1.9-.5-3-1-3-2.8h0c0-1.7,1.3-2.8,3.2-2.8s2.5,.4,3.4,1.2l-1.1,1.5c-.8-.6-1.6-.9-2.4-.9s-1.2,.4-1.2,.8h0c0,.6,.4,.8,2,1.2,1.9,.5,2.9,1.2,2.9,2.8h0c0,1.9-1.4,2.9-3.4,2.9s-2.8-.5-3.9-1.5Z"/><path class="d" d="M147.1,82.8h-2.8v-1.9h7.6v1.9h-2.8v7.3h-2v-7.3Z"/><path class="d" d="M153,81h4.2c1.2,0,2.1,.3,2.7,.9,.5,.5,.8,1.2,.8,2.1h0c0,1.5-.8,2.4-2,2.9l2.2,3.3h-2.4l-2-2.9h-1.6v2.9h-2v-9.2Zm4.1,4.5c1,0,1.5-.5,1.5-1.3h0c0-.9-.6-1.3-1.6-1.3h-2v2.6h2Z"/><path class="d" d="M162.2,81h6.9v1.8h-4.9v1.9h4.3v1.8h-4.3v1.9h5v1.8h-7v-9.2Z"/><path class="d" d="M170.8,81h6.9v1.8h-4.9v1.9h4.3v1.8h-4.3v1.9h5v1.8h-7v-9.2Z"/><path class="d" d="M181.4,82.8h-2.8v-1.9h7.6v1.9h-2.8v7.3h-2v-7.3Z"/></g></g></g></g></g></svg>