<?xml version="1.0" encoding="UTF-8"?><svg xmlns="http://www.w3.org/2000/svg" viewBox="0 0 259.3 159.3"><defs><style>.d{fill:#fff;}.e{fill:#8c6e5a;stroke:#fff;stroke-linecap:round;stroke-linejoin:round;stroke-width:3px;}</style></defs><g id="a"/><g id="b"><g id="c"><g><polygon class="e" points="231.8 157.8 257.8 131.8 257.8 1.5 231.8 27.6 28 27.6 1.5 54.1 1.5 157.8 231.8 157.8"/><g><g><path class="d" d="M35.9,61c-2.7,.2-5.3,.4-7.4,.5l-.2-2.1c.6,0,1.2,0,1.9,0v-6.3h-1.7v-2h11.3v2h-1.4v8.9h-2.5v-.9Zm14,8.2v2.2H28.7v-2.2h9v-1.2h-7.9v-2.3h7.9v-1.2c-2.2,.1-4.5,.2-6.6,.2,0-.6-.3-1.6-.6-2.2,5.6,0,12.1-.4,16-1.1l1.6,2.1c-2.2,.4-4.8,.7-7.6,.9v1.3h8.1v2.3h-8.1v1.2h9.4Zm-17.2-16.1v1h3.2v-1h-3.2Zm0,3.6h3.2v-1h-3.2v1Zm0,2.6c1,0,2.1,0,3.2-.2v-.9h-3.2v1.1Zm16.4,1.4h-8.7v-8.8h8.7v8.8Zm-2.7-6.5h-3.4v4.1h3.4v-4.1Z"/><path class="d" d="M58,66.1c-.3,2-.9,4.3-1.5,5.7-.6-.3-1.7-.7-2.4-.8,.7-1.3,1.2-3.5,1.5-5.3l2.4,.5Zm4.2-1.4c0-.4-.1-.7-.2-1.2-5.4,.8-6.3,1.1-6.9,1.4-.1-.5-.6-1.8-.9-2.6,.6-.1,1.2-.6,2-1.5,.4-.3,1-1,1.7-2-2.1,.3-2.6,.4-3,.6-.1-.5-.5-1.8-.9-2.5,.5-.1,.9-.6,1.5-1.3,.5-.7,2.2-3.2,3.2-5.7l2.6,1.1c-1,1.9-2.3,3.9-3.6,5.6h2c.6-1.1,1.3-2.1,1.8-3.1l2.3,1.6c-1.4,2.3-3.3,4.6-5.2,6.6l2.6-.4c-.2-.6-.4-1.2-.6-1.7l2.2-.6c.6,1.6,1.3,3.7,1.6,5l-2.4,.7Zm-1.5,.7c.4,1.7,.7,3.8,.8,5.3l-2.3,.6c0-1.4-.4-3.6-.7-5.3l2.2-.6Zm2.7-.6c.6,1.4,1.2,3.2,1.5,4.3l-2.1,.8c-.2-1.2-.9-3.1-1.4-4.5l2-.7Zm12.1-10.5s0,1,0,1.3c-.3,10.2-.5,13.8-1.4,15-.7,.9-1.3,1.2-2.3,1.3-.9,.2-2.3,.1-3.7,0,0-.8-.4-2-.9-2.8,1.4,.1,2.7,.1,3.4,.1,.4,0,.7,0,1-.4,.7-.7,.9-4.1,1.1-12h-5.6c-.6,1.2-1.2,2.3-1.8,3.1-.5-.4-1.7-1.2-2.4-1.6,1.6-2,2.9-5.2,3.5-8.4l2.8,.5c-.3,1.2-.6,2.5-1.1,3.6h7.4Zm-6.2,11.8c-.7-1.5-2.5-3.6-4-5.1l1.9-1.4c1.6,1.4,3.5,3.5,4.2,4.9l-2.1,1.6Z"/><path class="d" d="M97.9,50.8c-.2,.3-.3,.5-.5,.8,1.2,1.5,3.1,2.9,5,3.7-.4,.6-.8,1.6-1,2.3v11.7c0,1.1-.2,1.8-.9,2.2-.7,.4-1.6,.4-2.9,.4,0-.7-.4-1.8-.6-2.4,.7,0,1.4,0,1.6,0s.3,0,.3-.3v-2.3c-.9,.7-1.7,1.3-2.5,1.9l-.9-1.7v2.3c0,1.1-.1,1.7-.8,2.2s-1.5,.4-2.7,.4c0-.7-.4-1.7-.7-2.4,.7,0,1.3,0,1.6,0,.2,0,.3,0,.3-.3v-2.2c-.9,.7-1.8,1.4-2.7,2l-.5-.9h-3.6v4h-2.7v-3.9h-3.7v-2.5h3.7v-1.3h-2.9v-8.4h2.9v-1.3h-3.5v-2.5h3.5v-2.2h2.7v2.2h3.5v2.5h-3.5v1.3h2.8c-.2-.2-.3-.4-.4-.5,2.6-1.3,5.1-3.3,6.5-5.6l2.6,.9Zm-14.6,8.5h3.8v-1.1h-3.8v1.1Zm0,3.1h3.8v-1.1h-3.8v1.1Zm6.9,4.2c.9-.6,2-1.3,3.1-2v-1.2l-1.6,.8c-.3-.8-.9-2.1-1.5-3l1.7-.8c.5,.7,1.1,1.7,1.4,2.5v-3.4h-2.9v-1.6c-.2-.4-.5-.9-.8-1.3v8h-3v1.3h3.6v.7Zm5.5,0c.9-.5,2.2-1.4,3.4-2.2v-1.1l-1.7,.9c-.3-.8-.9-2.1-1.5-3l1.7-.8c.5,.8,1.1,1.8,1.5,2.6v-3.4h-2.9v-2.3h3.8c-1.5-1-2.9-2.2-4-3.5-1.2,1.3-2.5,2.6-3.9,3.5h3.6v9.4Z"/><path class="d" d="M116.3,67.4c-.6-.7-1.5-1.6-2.6-2.5v4.2c0,1.3-.3,2-1.1,2.4-.8,.4-2,.5-3.7,.5-.1-.7-.5-1.8-.8-2.5,1,0,2,0,2.4,0s.5-.1,.5-.5v-3.4c-1.3,.9-2.6,1.9-3.8,2.7l-1.3-2.3c1.3-.8,3.2-2.1,5-3.4v-6.1h-4.6v-2.6h4.6v-3.9h2.8v3.9h2.3c-.4-.8-1.3-1.9-2.1-2.7l1.9-1.1c.9,.8,1.8,1.9,2.2,2.7l-1.9,1.2h1.8v2.6h-4.3v3.2c.6-.8,1.2-1.7,1.6-2.4l2.4,.9c-1,1.5-2.2,3-3.2,4.1,1.4,1,2.9,2.2,3.7,3.2l-2,1.8Zm-7.5-9.7c.9,1.2,1.7,2.8,2.1,3.9l-2.2,1.1c-.3-1.1-1.2-2.8-2-4l2.1-.9Zm18.1-.6c-.4,3.3-1.1,6.3-2.4,8.7,1.1,1.6,2.4,2.9,3.9,3.9-.7,.6-1.6,1.7-2.1,2.5-1.4-1-2.6-2.2-3.5-3.7-1.2,1.6-2.8,2.8-4.8,3.7-.4-.7-1.3-1.7-2.1-2.4,2.3-.9,4.1-2.3,5.4-4.1-.6-1.3-1.1-2.7-1.5-4.3-.3,.6-.6,1-1,1.5-.4-.5-1.5-1.6-2.1-2.1,1.9-2.5,2.9-6.5,3.5-10.8l2.8,.4c-.2,1.3-.4,2.6-.7,3.9h5.8v2.6h-1.3Zm-5.2,0c0,.3-.2,.6-.3,.9,.4,1.7,.9,3.3,1.5,4.8,.7-1.7,1.1-3.6,1.4-5.7h-2.7Z"/><path class="d" d="M139.7,51c-.6,1.6-1.4,3.3-2.3,4.9v16.2h-2.7v-12.1c-.5,.7-1.1,1.3-1.6,1.9-.3-.7-1-2.2-1.5-2.9,2.1-2.1,4.2-5.5,5.4-8.9l2.7,.9Zm4.7,13c-.2,.3-.4,.6-.7,.9h10s0,.6,0,.9c-.4,3.4-.8,4.9-1.4,5.5-.4,.5-.9,.6-1.5,.7-.5,0-1.3,0-2.2,0,0-.6-.2-1.4-.6-2-.7,.9-1.5,1.6-2.3,2.2-.4-.4-1.3-1.1-1.8-1.4,1.5-1,2.8-2.4,3.8-4h-1.5c-1.3,2-3.3,3.9-5.2,5.1-.4-.4-1.2-1.2-1.7-1.5,1.6-.9,3.1-2.2,4.2-3.6h-1.5c-.8,.7-1.6,1.4-2.4,1.9-.4-.4-1.2-1.3-1.7-1.7,1.4-.7,2.8-1.8,3.9-3h-3.3v-2.1h15.9v2.1h-9.9Zm-3.2-7.6c-.3,.4-.7,.9-1,1.2-.4-.5-1.4-1.3-2.1-1.7,1.5-1.4,2.9-3.7,3.7-5.9l2.5,.7c-.2,.4-.3,.8-.5,1.2h10v2h-11c-.2,.3-.4,.6-.5,.9h9.9v6.3h-10.9v-4.7Zm2.6,.9h5.7v-.9h-5.7v.9Zm0,2.3h5.7v-.9h-5.7v.9Zm6.3,7.2c-.6,1.2-1.3,2.2-2.1,3.2,.7,0,1.3,0,1.6,0s.5,0,.7-.2c.3-.3,.6-1.2,.9-3h-1.1Z"/><path class="d" d="M166.5,52c-.6,2-1.4,4.6-2.1,6.4,1.4,1.8,1.7,3.4,1.7,4.8s-.3,2.5-1.1,3c-.4,.3-.8,.4-1.3,.5-.4,0-1,0-1.5,0,0-.7-.2-1.7-.6-2.4,.4,0,.8,0,1,0,.3,0,.5,0,.7-.2,.3-.2,.4-.7,.4-1.3,0-1.1-.3-2.6-1.6-4.2,.5-1.5,.9-3.5,1.3-5.2h-1.8v18.6h-2.4v-21.1h5.5l1.8,.9Zm13.4,6.8c-.9,.6-1.8,1.2-2.8,1.7,.8,2.4,2.2,5,3.6,6.5-.6,.4-1.4,1.2-1.8,1.8-1.4-1.7-2.9-4.6-3.8-7.2h0c1.1,3.8,.6,7.8-.7,9.1-.7,.9-1.5,1.2-2.8,1.2-.5,0-1.3,0-1.9,0,0-.7-.2-1.7-.7-2.5,.8,0,1.6,.1,2.1,.1s.9,0,1.3-.7c.4-.4,.7-1.6,.7-3-1.7,1.4-4,2.6-5.9,3.4-.4-.6-1.1-1.5-1.7-2,2.6-.7,5.7-2.4,7.4-4,0-.4-.2-.8-.3-1.2-1.3,1.1-3.1,2.2-4.6,2.9-.3-.6-.9-1.5-1.5-2,1.7-.6,4-1.8,5.3-2.9-.2-.4-.5-.9-.8-1.3-1.3,.9-2.6,1.7-3.8,2.2-.3-.5-1.1-1.5-1.6-2,1.7-.6,3.5-1.6,4.9-2.6h-4.1v-2.4h3.7c-.6-.8-1.4-1.7-2.2-2.4l2.1-1.3c1.1,.8,2.2,2,2.8,2.8l-1.1,.8h2.1c.7-1,1.7-2.6,2.2-3.7l2.7,.8c-.6,1-1.3,2.1-2,2.9h3.5v2.4h-6.3c-.3,.3-.6,.6-1,.9,.7,.7,1.2,1.6,1.6,2.5,1.4-.8,2.9-1.8,3.9-2.7l1.7,1.8Z"/><path class="d" d="M37.7,90.5v-3.4c-1.5,1.5-3.4,2.9-5.3,3.9h14.3v9.5h-3v-.7h-8.9v.7h-2.8v-9.3c-.7,.4-1.4,.7-2.2,.9-.4-.7-1.3-1.8-1.9-2.4,2.5-.7,5.1-1.9,7-3.4h-6.3v-2.5h9.1v-1.7c-2.2,.2-4.3,.3-6.4,.4,0-.7-.4-1.7-.7-2.4,5.2-.2,11.1-.8,14.6-1.6l2,2.2c-2,.5-4.2,.9-6.6,1.1v1.9h9.1v2.5h-5.7c2.3,1.3,4.7,2.8,6.1,3.9l-1.7,2.2c-1.7-1.5-5-3.7-7.9-5.2v3.4h-2.9Zm-2.9,2.7v1.3h8.9v-1.3h-8.9Zm8.9,4.5v-1.3h-8.9v1.3h8.9Z"/><path class="d" d="M57.9,89.6c-.8-.7-2.6-1.8-3.9-2.5l1.6-2c1.3,.6,3,1.5,3.9,2.2l-1.7,2.2Zm8,5.8v1.4c0,.9,.2,1,1.6,1h4.3c1.1,0,1.3-.3,1.4-2.4,.5,.4,1.6,.8,2.2,.9-.3,3-1,3.8-3.4,3.8h-4.7c-2.9,0-3.8-.7-3.8-3.3v-4.6c-.7,.8-1.4,1.5-2.2,2.1-.3-.4-.9-1.1-1.3-1.6-.9,2.3-2,4.9-3,7.1l-2.5-1.6c1-1.7,2.3-4.6,3.3-7.2l1.7,1.2c1.5-1,3-2.8,4-4.5h-3.6v-2.5h3.8v-1.8h-2.9v-2.5h2.9v-2.4h2.7v2.4h3.3v-2.4h2.8v2.4h3v2.5h-3v1.8h3.7v2.5h-3.7c.9,1.6,2.4,3.2,3.9,4.1-.6,.5-1.5,1.5-2,2.2-.8-.5-1.5-1.3-2.2-2.1v3.6h-6.4Zm-6.9-12.1c-.8-.7-2.5-1.8-3.7-2.6l1.7-2c1.2,.6,2.9,1.7,3.8,2.3l-1.7,2.2Zm7.3,4.2c-.3,.7-.6,1.3-1,2h5.5c-.4-.7-.7-1.3-1-2h-3.5Zm3.8,4h-4.2v1.8h4.2v-1.8Zm-3.7-6.5h3.3v-1.8h-3.3v1.8Z"/><path class="d" d="M95.7,78.8c1.1,3.5,3.5,6.8,6.8,8.5-.6,.6-1.5,1.8-2,2.6-.6-.4-1.2-.9-1.8-1.4-.3,7-.5,9.7-1.4,10.7-.6,.8-1.2,1-2.2,1.1-.8,.1-2.2,.1-3.6,0,0-.9-.4-2-.9-2.8,1.3,0,2.5,.1,3.1,.1s.7,0,.9-.3c.5-.5,.7-2.6,.9-7.5h-4.7c-.6,4.5-2.1,8.6-8.2,10.9-.4-.8-1.2-2-1.9-2.6,5.3-1.7,6.6-4.8,7-8.3h-4v-1.6c-.6,.6-1.2,1.2-1.8,1.7-.5-.6-1.7-1.6-2.4-2.1,2.7-1.9,4.8-5.1,5.9-8.6l3,.7c-.9,2.6-2.2,5.1-3.7,7.1h12.2c-1.5-1.7-2.7-3.7-3.6-5.6h-3.8v-2.6h5.8Z"/><path class="d" d="M123.2,97.1c1.5,0,3.4-.1,4.3-.3,0,.7,.3,2,.4,2.6-.9,.2-3,.3-4.9,.3h-9.3c-4.2,0-6.1-1.3-6.1-5.6v-12.3h-.9v-2.5h20.1v2.5h-16.4v12.5c0,2.1,.7,2.9,3.1,2.9h9.7Zm-11.7-7.6h6.5v6.4h-6.5v-6.4Zm2.3,4.5h1.8v-2.6h-1.8v2.6Zm9.4-5.5h-9.3v-5.6h9.3v5.6Zm-2.8-3.8h-3.9v1.9h3.9v-1.9Zm5.3,11.2h-6.7v-6.4h6.7v6.4Zm-2.4-4.5h-1.9v2.6h1.9v-2.6Z"/><path class="d" d="M139,93c0-.4-.1-.8-.2-1.2-4.5,.9-5.3,1.2-5.8,1.4-.1-.4-.5-1.7-.8-2.3,.6-.1,1.1-.7,1.8-1.6,.3-.3,.9-1.1,1.5-2.1-1.8,.2-2.3,.4-2.7,.5-.1-.5-.5-1.7-.8-2.3,.4-.1,.8-.6,1.3-1.3,.5-.7,1.9-3.3,2.7-5.8l2.4,1c-.8,2-2,4.1-3.2,5.8h1.7c.6-1.2,1.2-2.2,1.6-3.3l2.2,1.2c-1.3,2.5-3,5.1-4.8,7.2l2.4-.4c-.1-.5-.3-1.1-.5-1.5l1.9-.5c.5,1.5,1.1,3.4,1.3,4.6l-2,.7Zm-3.8,1.3c-.2,2.1-.7,4.3-1.2,5.7-.4-.2-1.4-.5-1.9-.7,.6-1.4,.9-3.5,1.1-5.4l2,.3Zm2.2-.5c.3,1.6,.5,3.6,.6,4.9l-1.9,.5c0-1.4-.3-3.4-.5-5l1.8-.4Zm2.2-.5c.3,1.2,.7,2.6,.9,3.7,.4-1.1,.7-2.3,.9-3.4l1.9,.7c-.4,1.7-.9,4-1.6,5.4l-2-.9c.3-.5,.5-1,.7-1.7l-1.8,.5c-.1-1-.5-2.6-.8-3.9l1.8-.5Zm12.7,6c-.2-.7-.5-1.6-.9-2.5-.2,2.6-.8,3.3-2.6,3.3h-2.7c-2.2,0-2.8-.6-2.8-2.6v-3.8h2.3v3.8c0,.6,.1,.7,.8,.7h2.1c.6,0,.7-.3,.8-2.1l-1.3,.7c-.4-.9-1.4-2.6-2.1-3.7l1.6-.8h-6.2v-11.6h3.6c.3-.8,.6-1.7,.7-2.4l2.9,.4c-.3,.7-.7,1.3-1,1.9h5.6v11.6h-5.2c.7,1.1,1.7,2.6,2.1,3.5l-.5,.3c.5,.3,1.4,.6,2,.8-.3-.9-.7-1.8-1-2.6l1.9-.8c.7,1.6,1.5,3.7,2,5l-2,.9Zm-8.5-16.5v3.3c.6-.3,1.1-.7,1.5-1-.4-.4-.7-.8-1.1-1.1l1.4-.9c.3,.3,.6,.5,.9,.8,.3-.3,.5-.7,.7-1l1.7,.3c-.4,.6-.8,1.2-1.3,1.8,.2,.2,.4,.4,.6,.6,.4-.4,.7-.9,.9-1.3l1.5,.3v-1.8h-6.8Zm0,7.1h6.8v-4.9c-.4,.6-.9,1.3-1.4,1.8,.5,.7,1,1.3,1.3,1.9l-1.5,1.1c-.3-.5-.7-1.1-1.2-1.7-.8,.6-1.6,1.2-2.6,1.8-.2-.4-.7-1-1-1.2,1-.5,1.9-1.2,2.7-1.8-.2-.2-.4-.4-.6-.6-.5,.4-1.1,.8-1.7,1.2-.2-.3-.5-.7-.9-1v3.5Z"/><path class="d" d="M169.5,84c-.5,1.1-1,2.4-1.4,3.4h2.8v2.6h-12.5v-2.6h3c-.2-1-.7-2.3-1.2-3.3l1.9-.5h-3.2v-2.5h4.5c-.2-.7-.5-1.4-.8-2.1l2.6-.7c.4,.9,.9,1.9,1.1,2.8h4v2.5h-2.8l1.9,.4Zm-10.1,7.6h10.5v8.8h-2.8v-.9h-5.1v1.1h-2.7v-8.9Zm2.7,2.5v2.9h5.1v-2.9h-5.1Zm.6-10.5c.6,1.1,1.1,2.5,1.3,3.4l-1.4,.4h2.8c.5-1.1,1-2.6,1.3-3.8h-4Zm17.5-2.9c-.8,2.3-1.8,5-2.7,7,1.9,2.1,2.2,4,2.2,5.5s-.4,2.9-1.3,3.5c-.4,.3-.9,.5-1.6,.6-.5,0-1.2,0-1.8,0,0-.7-.3-1.8-.7-2.6,.5,0,1,0,1.3,0s.6,0,.9-.2c.4-.2,.5-.8,.5-1.6,0-1.3-.5-3-2.3-4.9,.7-1.7,1.4-4.1,1.9-5.9h-2.6v18.3h-2.5v-20.9h6.5l2,1.1Z"/></g><g><path class="d" d="M27.8,118.4l1.2-1.4c.8,.7,1.7,1.1,2.7,1.1s1.3-.3,1.3-.9h0c0-.5-.3-.8-1.9-1.2-1.9-.5-3-1-3-2.8h0c0-1.7,1.3-2.8,3.2-2.8s2.5,.4,3.4,1.2l-1.1,1.5c-.8-.6-1.6-.9-2.4-.9s-1.2,.4-1.2,.8h0c0,.6,.4,.8,2,1.2,1.9,.5,2.9,1.2,2.9,2.8h0c0,1.9-1.4,2.9-3.4,2.9s-2.8-.5-3.9-1.5Z"/><path class="d" d="M38.6,112.4h-2.8v-1.9h7.6v1.9h-2.8v7.3h-2v-7.3Z"/><path class="d" d="M43.4,117.7h2.1v2.1h-2.1v-2.1Z"/><path class="d" d="M49.8,118.5l1.3-1.4c.5,.6,1,.9,1.7,.9s1.2-.5,1.2-1.5v-5.9h2.1v6c0,1.1-.3,1.9-.9,2.5-.6,.6-1.4,.9-2.4,.9-1.4,0-2.4-.6-3-1.4Z"/><path class="d" d="M57.4,115.2h0c0-2.6,2.1-4.8,4.9-4.8s4.9,2.1,4.9,4.7h0c0,2.6-2.1,4.8-4.9,4.8s-4.9-2.1-4.9-4.7Zm7.7,0h0c0-1.6-1.2-2.9-2.8-2.9s-2.8,1.3-2.8,2.9h0c0,1.6,1.2,2.9,2.8,2.9s2.8-1.3,2.8-2.9Z"/><path class="d" d="M68.6,110.6h2v3.6h3.7v-3.6h2v9.2h-2v-3.7h-3.7v3.7h-2v-9.2Z"/><path class="d" d="M78.4,110.6h1.9l4.3,5.7v-5.7h2v9.2h-1.7l-4.5-5.8v5.8h-2v-9.2Z"/><path class="d" d="M92,110.6h2v3.6h3.7v-3.6h2v9.2h-2v-3.7h-3.7v3.7h-2v-9.2Z"/><path class="d" d="M101.3,115.2h0c0-2.6,2.1-4.8,4.9-4.8s4.9,2.1,4.9,4.7h0c0,2.6-2.1,4.8-4.9,4.8s-4.9-2.1-4.9-4.7Zm7.7,0h0c0-1.6-1.2-2.9-2.8-2.9s-2.8,1.3-2.8,2.9h0c0,1.6,1.2,2.9,2.8,2.9s2.8-1.3,2.8-2.9Z"/><path class="d" d="M112.5,110.6h1.9l4.3,5.7v-5.7h2v9.2h-1.7l-4.5-5.8v5.8h-2v-9.2Z"/><path class="d" d="M122.1,115.2h0c0-2.6,2-4.8,4.8-4.8s2.7,.4,3.6,1.3l-1.3,1.5c-.7-.6-1.3-.9-2.4-.9s-2.6,1.3-2.6,2.9h0c0,1.7,1.2,2.9,2.8,2.9s1.4-.2,1.9-.6v-1.3h-2v-1.7h4v4c-.9,.8-2.2,1.5-3.9,1.5-2.9,0-4.8-2-4.8-4.7Z"/><path class="d" d="M136.1,110.6h2v4l3.7-4h2.4l-3.7,3.9,3.9,5.3h-2.4l-2.8-3.9-1.1,1.1v2.8h-2v-9.2Z"/><path class="d" d="M144.4,115.2h0c0-2.6,2.1-4.8,4.9-4.8s4.9,2.1,4.9,4.7h0c0,2.6-2.1,4.8-4.9,4.8s-4.9-2.1-4.9-4.7Zm7.7,0h0c0-1.6-1.2-2.9-2.8-2.9s-2.8,1.3-2.8,2.9h0c0,1.6,1.2,2.9,2.8,2.9s2.8-1.3,2.8-2.9Z"/><path class="d" d="M155.6,110.6h1.9l4.3,5.7v-5.7h2v9.2h-1.7l-4.5-5.8v5.8h-2v-9.2Z"/><path class="d" d="M165.3,115.2h0c0-2.6,2-4.8,4.8-4.8s2.7,.4,3.6,1.3l-1.3,1.5c-.7-.6-1.3-.9-2.4-.9s-2.6,1.3-2.6,2.9h0c0,1.7,1.2,2.9,2.8,2.9s1.4-.2,1.9-.6v-1.3h-2v-1.7h4v4c-.9,.8-2.2,1.5-3.9,1.5-2.9,0-4.8-2-4.8-4.7Z"/><path class="d" d="M179.3,110.6h2v9.2h-2v-9.2Z"/><path class="d" d="M182.7,118.4l1.2-1.4c.8,.7,1.7,1.1,2.7,1.1s1.3-.3,1.3-.9h0c0-.5-.3-.8-1.9-1.2-1.9-.5-3-1-3-2.8h0c0-1.7,1.3-2.8,3.2-2.8s2.5,.4,3.4,1.2l-1.1,1.5c-.8-.6-1.6-.9-2.4-.9s-1.2,.4-1.2,.8h0c0,.6,.4,.8,2,1.2,1.9,.5,2.9,1.2,2.9,2.8h0c0,1.9-1.4,2.9-3.4,2.9s-2.8-.5-3.9-1.5Z"/><path class="d" d="M191.4,110.6h2v7.4h4.6v1.8h-6.6v-9.2Z"/><path class="d" d="M202.6,110.5h1.9l3.9,9.3h-2.1l-.8-2.1h-3.9l-.8,2.1h-2.1l3.9-9.3Zm2.1,5.4l-1.2-3-1.2,3h2.4Z"/><path class="d" d="M209.4,110.6h1.9l4.3,5.7v-5.7h2v9.2h-1.7l-4.5-5.8v5.8h-2v-9.2Z"/><path class="d" d="M219.5,110.6h3.6c2.9,0,4.9,2,4.9,4.6h0c0,2.6-2,4.6-4.9,4.6h-3.6v-9.2Zm2,1.8v5.5h1.6c1.7,0,2.8-1.1,2.8-2.7h0c0-1.7-1.1-2.8-2.8-2.8h-1.6Z"/><path class="d" d="M28,131h0c0-2.6,2-4.8,4.8-4.8s2.8,.6,3.6,1.4l-1.3,1.5c-.7-.6-1.4-1-2.4-1-1.5,0-2.7,1.3-2.7,2.9h0c0,1.6,1.1,2.9,2.7,2.9s1.7-.4,2.4-1.1l1.3,1.3c-.9,1-2,1.6-3.8,1.6-2.7,0-4.7-2.1-4.7-4.7Z"/><path class="d" d="M37,131h0c0-2.6,2.1-4.8,4.9-4.8s4.9,2.1,4.9,4.7h0c0,2.6-2.1,4.8-4.9,4.8s-4.9-2.1-4.9-4.7Zm7.7,0h0c0-1.6-1.2-2.9-2.8-2.9s-2.8,1.3-2.8,2.9h0c0,1.6,1.2,2.9,2.8,2.9s2.8-1.3,2.8-2.9Z"/><path class="d" d="M48.2,126.3h2.2l2.4,3.9,2.4-3.9h2.2v9.2h-2v-6l-2.6,3.9h0l-2.6-3.9v6h-2v-9.2Z"/><path class="d" d="M59.4,126.3h2.2l2.4,3.9,2.4-3.9h2.2v9.2h-2v-6l-2.6,3.9h0l-2.6-3.9v6h-2v-9.2Z"/><path class="d" d="M73.5,126.3h1.9l3.9,9.3h-2.1l-.8-2.1h-3.9l-.8,2.1h-2.1l3.9-9.3Zm2.1,5.4l-1.2-3-1.2,3h2.4Z"/><path class="d" d="M80.3,126.3h1.9l4.3,5.7v-5.7h2v9.2h-1.7l-4.5-5.8v5.8h-2v-9.2Z"/><path class="d" d="M90.4,126.3h3.6c2.9,0,4.9,2,4.9,4.6h0c0,2.6-2,4.6-4.9,4.6h-3.6v-9.2Zm2,1.8v5.5h1.6c1.7,0,2.8-1.1,2.8-2.7h0c0-1.7-1.1-2.8-2.8-2.8h-1.6Z"/><path class="d" d="M104,126.3h2v3.6h3.7v-3.6h2v9.2h-2v-3.7h-3.7v3.7h-2v-9.2Z"/><path class="d" d="M113.7,126.3h6.9v1.8h-4.9v1.9h4.3v1.8h-4.3v1.9h5v1.8h-7v-9.2Z"/><path class="d" d="M125.4,126.3h1.9l3.9,9.3h-2.1l-.8-2.1h-3.9l-.8,2.1h-2.1l3.9-9.3Zm2.1,5.4l-1.2-3-1.2,3h2.4Z"/><path class="d" d="M132.2,126.3h3.6c2.9,0,4.9,2,4.9,4.6h0c0,2.6-2,4.6-4.9,4.6h-3.6v-9.2Zm2,1.8v5.5h1.6c1.7,0,2.8-1.1,2.8-2.7h0c0-1.7-1.1-2.8-2.8-2.8h-1.6Z"/><path class="d" d="M150.3,135.8l-1-.9c-.8,.5-1.7,.8-2.7,.8-2.8,0-4.9-2.1-4.9-4.7h0c0-2.6,2.1-4.8,4.9-4.8s4.9,2.1,4.9,4.7h0c0,1-.3,1.9-.8,2.7l.9,.8-1.3,1.4Zm-2.5-2.2l-1.5-1.3,1.3-1.4,1.5,1.4c.2-.4,.2-.8,.2-1.3h0c0-1.6-1.2-2.9-2.8-2.9s-2.8,1.3-2.8,2.9h0c0,1.6,1.2,2.9,2.8,2.9s.9,0,1.2-.2Z"/><path class="d" d="M152.9,131.6v-5.3h2v5.2c0,1.5,.7,2.3,2,2.3s2-.7,2-2.2v-5.3h2v5.2c0,2.8-1.6,4.1-4,4.1s-4-1.4-4-4.1Z"/><path class="d" d="M165.3,126.3h1.9l3.9,9.3h-2.1l-.8-2.1h-3.9l-.8,2.1h-2.1l3.9-9.3Zm2.1,5.4l-1.2-3-1.2,3h2.4Z"/><path class="d" d="M172.1,126.3h4.2c1.2,0,2.1,.3,2.7,.9,.5,.5,.8,1.2,.8,2.1h0c0,1.5-.8,2.4-2,2.9l2.2,3.3h-2.4l-2-2.9h-1.6v2.9h-2v-9.2Zm4.1,4.5c1,0,1.5-.5,1.5-1.3h0c0-.9-.6-1.3-1.6-1.3h-2v2.6h2Z"/><path class="d" d="M183.4,128.2h-2.8v-1.9h7.6v1.9h-2.8v7.3h-2v-7.3Z"/><path class="d" d="M189.2,126.3h6.9v1.8h-4.9v1.9h4.3v1.8h-4.3v1.9h5v1.8h-7v-9.2Z"/><path class="d" d="M197.8,126.3h4.2c1.2,0,2.1,.3,2.7,.9,.5,.5,.8,1.2,.8,2.1h0c0,1.5-.8,2.4-2,2.9l2.2,3.3h-2.4l-2-2.9h-1.6v2.9h-2v-9.2Zm4.1,4.5c1,0,1.5-.5,1.5-1.3h0c0-.9-.6-1.3-1.6-1.3h-2v2.6h2Z"/><path class="d" d="M206.3,134.2l1.2-1.4c.8,.7,1.7,1.1,2.7,1.1s1.3-.3,1.3-.9h0c0-.5-.3-.8-1.9-1.2-1.9-.5-3-1-3-2.8h0c0-1.7,1.3-2.8,3.2-2.8s2.5,.4,3.4,1.2l-1.1,1.5c-.8-.6-1.6-.9-2.4-.9s-1.2,.4-1.2,.8h0c0,.6,.4,.8,2,1.2,1.9,.5,2.9,1.2,2.9,2.8h0c0,1.9-1.4,2.9-3.4,2.9s-2.8-.5-3.9-1.5Z"/></g></g></g></g></g></svg>