<?xml version="1.0" encoding="utf-8"?>
<!-- Generator: Adobe Illustrator 26.2.1, SVG Export Plug-In . SVG Version: 6.00 Build 0)  -->
<svg version="1.1" id="Layer_1" xmlns="http://www.w3.org/2000/svg" xmlns:xlink="http://www.w3.org/1999/xlink" x="0px" y="0px"
	 viewBox="0 0 6874.1 6770.2" style="enable-background:new 0 0 6874.1 6770.2;" xml:space="preserve">
<style type="text/css">
	.st0{fill:#C9CACA;}
	.st1{fill:none;}
	.st2{clip-path:url(#SVGID_00000032632828915498749810000000691606855050311826_);}
	.st3{fill:none;stroke:#FFFFFF;stroke-width:109.6;stroke-linecap:round;stroke-linejoin:round;}
	.st4{fill:none;stroke:#FFFFFF;stroke-width:82.2;stroke-linecap:round;stroke-linejoin:round;}
	.st5{fill:none;stroke:#FFFFFF;stroke-width:90.4;stroke-linecap:round;stroke-linejoin:round;}
	.st6{fill:none;stroke:#FFFFFF;stroke-width:51.7;stroke-linecap:round;stroke-linejoin:round;}
	.st7{fill:#231916;}
	.st8{font-family:'NotoSansCJKtc-Regular-B5pc-H';}
	.st9{font-size:152.6px;}
	.st10{letter-spacing:15;}
	.st11{font-family:'Gotham-Bold';}
	.st12{font-size:61px;}
	.st13{letter-spacing:-6;}
	.st14{fill:#898989;}
	.st15{font-family:'KozGoPr6N-Regular-83pv-RKSJ-H';}
	.st16{font-size:62.9px;}
	.st17{letter-spacing:6;}
	.st18{enable-background:new    ;}
	.st19{font-family:'ArialMT';}
	.st20{font-size:21.5px;}
	.st21{letter-spacing:2;}
	.st22{letter-spacing:-2;}
	.st23{font-size:47.5px;}
	.st24{fill:#DCDDDD;}
	.st25{font-size:44px;}
	.st26{font-size:82.4px;}
	.st27{letter-spacing:8;}
	.st28{font-size:79.6px;}
	.st29{font-size:42.5px;}
	.st30{letter-spacing:-4;}
	.st31{font-size:82.8px;}
	.st32{font-size:44.2px;}
	.st33{fill:#8C6E5A;}
	.st34{fill:#E63278;}
	.st35{fill:#E63479;stroke:#FFFFFF;stroke-width:11.9;stroke-linecap:round;stroke-linejoin:round;}
	.st36{fill:#FFFFFF;}
</style>
<g id="a">
	<rect x="-52.7" y="-51.9" class="st0" width="6926.8" height="6822.1"/>
	<rect x="3158.9" y="1892.4" class="st1" width="2157.7" height="2598.6"/>
	<g>
		<defs>
			<rect id="SVGID_1_" width="6874.1" height="6770.2"/>
		</defs>
		<clipPath id="SVGID_00000036230934616884509800000001708278935151002808_">
			<use xlink:href="#SVGID_1_"  style="overflow:visible;"/>
		</clipPath>
		<g style="clip-path:url(#SVGID_00000036230934616884509800000001708278935151002808_);">
			<g>
				<g>
					<g>
						<line class="st3" x1="577.6" y1="2485.4" x2="1690.9" y2="2197.4"/>
						<path class="st3" d="M1866.5,1377.5l77.1,391.4l-435.8,716.5l169.4,1613c30,285.7-175.6,542.4-461,575.4l-719,83.2
							c-283,32.7-540.4-166.6-579.4-448.8l-43.3-296"/>
						<path class="st3" d="M-1016.8,1859.7l386.3,1634.1c91.1,375.7,469.6,606.5,845.3,515.4l0,0
							c375.7-91.1,606.5-469.6,515.4-845.3L435.3,1947.8c-13.7-56.5-40.8-108.8-78.9-152.6l-220.7-253.4L17.8,1071"/>
						<polyline class="st3" points="1290.6,2300.9 1160.8,1858.4 987.7,1902 						"/>
					</g>
					<polyline class="st3" points="-757.7,1289.3 1840.6,542.2 5696.9,240.1 6466,-117 					"/>
					<polyline class="st4" points="-73.5,1092.6 480.3,222.2 1167.3,735.8 					"/>
					<line class="st4" x1="279.5" y1="537.7" x2="721.2" y2="864.1"/>
					<line class="st5" x1="2624.4" y1="480.8" x2="2692.3" y2="2178"/>
					<line class="st3" x1="1352.8" y1="379.3" x2="1840.6" y2="542.2"/>
					<path class="st4" d="M5316.6,4818.7c61.8,0,134.9-74.1,134.9-373.4s-45.5-866.8-61.8-1081c-3.6-46.8,14.5-92.6,49-124.3
						l582.7-536.1c74.4-68.5,108.1-170.7,88.8-270l-119.3-616.6l1751.8-724.7"/>
					<path class="st4" d="M5792.8,2700.9c0,0,64.4-22.2,122.3-67.9c58-45.7,68.7-164.6,27.9-252.6c-40.8-88-182.4-64.4-169.6,42.9
						l35.9,475.7"/>
				</g>
				<g>
					<path class="st3" d="M500.4,222.2L980.9-117l371.9,496.2l245.8,824.6L2854,2017.5l424.2,300.4l1485.3-1.9l42.9-28.1
						c103.3-67.6,197.4-124.1,256.4-232.5l39.5-70"/>
					<line class="st4" x1="4141.9" y1="2329.9" x2="4143.1" y2="3335.7"/>
					<path class="st4" d="M3828.8,2330.3l1.2,914.8c0,53.9,43.8,97.6,97.8,97.5l841.4-1.1"/>
					<path class="st4" d="M3829.6,2964.9l-489.5,0.6c-33.7,0-61.1-27.2-61.1-61l-0.7-573.6"/>
					<line class="st4" x1="3289.1" y1="2516.6" x2="4768.1" y2="2514.7"/>
					<polyline class="st3" points="4767.9,2329.1 4770,3934.9 4918.1,4324.4 					"/>
					<line class="st4" x1="4454.9" y1="2329.5" x2="4456.8" y2="3800.5"/>
					<line class="st4" x1="3553.5" y1="2330.6" x2="3554.4" y2="2965.2"/>
					<line class="st4" x1="4007" y1="3608.3" x2="4769.5" y2="3607.3"/>
					<line class="st4" x1="3829.8" y1="3065.8" x2="4768.8" y2="3064.6"/>
					<line class="st4" x1="3829.4" y1="2790.8" x2="4768.5" y2="2789.6"/>
					<path class="st3" d="M4777.3,2526.1l387.3-50.2c32.5-9,51.5-42.7,42.5-75.1l-104.7-415.3l193.8-966.3l400.7-779.1"/>
					<path class="st5" d="M1546.6,7107.8l860.4-924.6c172.6-185.5,268.6-429.5,268.6-682.9V4068.4c0-196.3,159.1-355.4,355.4-355.4
						l0,0c148.7,0,281.6,92.5,333.3,231.9L3985.2,5621c49.5,133.6,176.9,222.3,319.4,222.3h979.8c112.8,0,203.9-92.2,202.5-205
						l-7.5-623.4c-1.3-110.9-91.6-200.1-202.5-200.1l0,0c-115.8,0-227-45.8-309.1-127.5l-89.6-89.1L3179.8,3015.4
						c-14.9-15-27.1-32.4-36-51.5l-451.3-786l-437-290.9l119.4-164.6"/>
					<path class="st6" d="M3158.9,2233.5c88.3-80.2,151.3-196.2,143.5-324.7c-8.9-146.2-77.2-158.3-200.1-186.4
						c-122.9-28.1-389.3-18.3-416.6-395.4s-61.3-846.2-61.3-846.2"/>
					<line class="st3" x1="4766.5" y1="313.1" x2="4768.4" y2="2989.8"/>
				</g>
			</g>
			<g>
				<text transform="matrix(1 0 0 1 1888.1 276.8)" class="st7 st8 st9 st10">銅鑼灣</text>
				<text transform="matrix(1 0 0 1 1882.2 368.8999)" class="st7 st11 st12">C</text>
				<text transform="matrix(1 0 0 1 1924.7 368.8999)" class="st7 st11 st12">A</text>
				<text transform="matrix(1 0 0 1 1968.5 368.8999)" class="st7 st11 st12">U</text>
				<text transform="matrix(1 0 0 1 2012.2999 368.8999)" class="st7 st11 st12">S</text>
				<text transform="matrix(1 0 0 1 2049.3 368.8999)" class="st7 st11 st12">E</text>
				<text transform="matrix(1 0 0 1 2088.3 368.8999)" class="st7 st11 st12 st13">W</text>
				<text transform="matrix(1 0 0 1 2150.2 368.8999)" class="st7 st11 st12 st13">A</text>
				<text transform="matrix(1 0 0 1 2190.2 368.8999)" class="st7 st11 st12">Y </text>
				<text transform="matrix(1 0 0 1 2249.2 368.8999)" class="st7 st11 st12">B</text>
				<text transform="matrix(1 0 0 1 2290.2 368.8999)" class="st7 st11 st12 st13">A</text>
				<text transform="matrix(1 0 0 1 2330.2 368.8999)" class="st7 st11 st12">Y</text>
			</g>
			<g>
				<text transform="matrix(1 0 0 1 3515.7 2338.3999)" class="st14 st15 st16 st17">銅</text>
				<text transform="matrix(1 0 0 1 3584.8999 2338.3999)" class="st14 st15 st16">鑼</text>
				<text transform="matrix(1 0 0 1 3653.3999 2338.3999)" class="st14 st15 st16">灣</text>
				<text transform="matrix(1 0 0 1 3722.2 2338.3999)" class="st18"><tspan x="0" y="0" class="st14 st15 st16 st17">道</tspan><tspan x="69.2" y="0" class="st14 st19 st16 st17">    </tspan></text>
				<text transform="matrix(1 0 0 1 3873.0999 2338.3999)" class="st14 st19 st16">T</text>
				<text transform="matrix(1 0 0 1 3911.0999 2338.3999)" class="st14 st19 st16">U</text>
				<text transform="matrix(1 0 0 1 3956.8999 2338.3999)" class="st14 st19 st16">N</text>
				<text transform="matrix(1 0 0 1 4004.3999 2338.3999)" class="st14 st19 st16">G </text>
				<text transform="matrix(1 0 0 1 4069.3999 2338.3999)" class="st14 st19 st16">L</text>
				<text transform="matrix(1 0 0 1 4103.8999 2338.3999)" class="st14 st19 st16">O </text>
				<text transform="matrix(1 0 0 1 4173 2338.3999)" class="st14 st19 st16 st13">W</text>
				<text transform="matrix(1 0 0 1 4236.2002 2338.3999)" class="st14 st19 st16">A</text>
				<text transform="matrix(1 0 0 1 4283.1001 2338.3999)" class="st14 st19 st16">N </text>
				<text transform="matrix(1 0 0 1 4348.5 2338.3999)" class="st14 st19 st16">R</text>
				<text transform="matrix(1 0 0 1 4390.8999 2338.3999)" class="st14 st19 st16">O</text>
				<text transform="matrix(1 0 0 1 4438.8999 2338.3999)" class="st14 st19 st16">A</text>
				<text transform="matrix(1 0 0 1 4485.7998 2338.3999)" class="st14 st19 st16">D</text>
				<text transform="matrix(1 0 0 1 3574.8 2539.1001)" class="st14 st15 st16">書</text>
				<text transform="matrix(1 0 0 1 3643.6001 2539.1001)" class="st14 st15 st16">館</text>
				<text transform="matrix(1 0 0 1 3712.6001 2539.1001)" class="st18"><tspan x="0" y="0" class="st14 st15 st16 st17">街</tspan><tspan x="69.2" y="0" class="st14 st19 st16 st17">    </tspan></text>
				<text transform="matrix(1 0 0 1 3863.5 2539.1001)" class="st14 st19 st16">S</text>
				<text transform="matrix(1 0 0 1 3900.8 2539.1001)" class="st14 st19 st16">C</text>
				<text transform="matrix(1 0 0 1 3944.5 2539.1001)" class="st14 st19 st16">H</text>
				<text transform="matrix(1 0 0 1 3990 2539.1001)" class="st14 st19 st16">O</text>
				<text transform="matrix(1 0 0 1 4040.7 2539.1001)" class="st14 st19 st16">O</text>
				<text transform="matrix(1 0 0 1 4091.8 2539.1001)" class="st14 st19 st16">L </text>
				<text transform="matrix(1 0 0 1 4146.5 2539.1001)" class="st14 st19 st16">S</text>
				<text transform="matrix(1 0 0 1 4184 2539.1001)" class="st14 st19 st16">T</text>
				<text transform="matrix(1 0 0 1 4221.7002 2539.1001)" class="st14 st19 st16">R</text>
				<text transform="matrix(1 0 0 1 4264.8999 2539.1001)" class="st14 st19 st16">E</text>
				<text transform="matrix(1 0 0 1 4305.1001 2539.1001)" class="st14 st19 st16">E</text>
				<text transform="matrix(1 0 0 1 4345.1001 2539.1001)" class="st14 st19 st16">T</text>
				<text transform="matrix(1 0 0 1 3319.7 2969.3999)" class="st14 st15 st20">第</text>
				<text transform="matrix(1 0 0 1 3342.7 2969.3999)" class="st14 st15 st20">二</text>
				<text transform="matrix(1 0 0 1 3365.5999 2969.3999)" class="st14 st15 st20">巷</text>
				<text transform="matrix(1 0 0 1 3319.7 2995.2)" class="st14 st19 st20">S</text>
				<text transform="matrix(1 0 0 1 3333 2995.2)" class="st14 st19 st20">E</text>
				<text transform="matrix(1 0 0 1 3346.7 2995.2)" class="st14 st19 st20">C</text>
				<text transform="matrix(1 0 0 1 3361.5 2995.2)" class="st14 st19 st20">O</text>
				<text transform="matrix(1 0 0 1 3379.3 2995.2)" class="st14 st19 st20">N</text>
				<text transform="matrix(1 0 0 1 3396 2995.2)" class="st14 st19 st20">D </text>
				<text transform="matrix(1 0 0 1 3418.2 2995.2)" class="st14 st19 st20">L</text>
				<text transform="matrix(1 0 0 1 3431.5 2995.2)" class="st14 st19 st20">A</text>
				<text transform="matrix(1 0 0 1 3447.8 2995.2)" class="st14 st19 st20">N</text>
				<text transform="matrix(1 0 0 1 3464.5 2995.2)" class="st14 st19 st20">E</text>
				<text transform="matrix(1 0 0 1 4188 3074.7)" class="st14 st15 st20 st21">施</text>
				<text transform="matrix(1 0 0 1 4211.7998 3074.7)" class="st14 st15 st20 st21">弼</text>
				<text transform="matrix(1 0 0 1 4235.8999 3074.7)" class="st18"><tspan x="0" y="0" class="st14 st15 st20 st21">街</tspan><tspan x="23.6" y="0" class="st14 st19 st20 st21">  </tspan></text>
				<text transform="matrix(1 0 0 1 4273.6001 3074.7)" class="st14 st19 st20">S</text>
				<text transform="matrix(1 0 0 1 4286.8999 3074.7)" class="st14 st19 st20">H</text>
				<text transform="matrix(1 0 0 1 4302.8999 3074.7)" class="st14 st19 st20">E</text>
				<text transform="matrix(1 0 0 1 4316.8999 3074.7)" class="st14 st19 st20">P</text>
				<text transform="matrix(1 0 0 1 4330.7002 3074.7)" class="st14 st19 st20">H</text>
				<text transform="matrix(1 0 0 1 4346.7002 3074.7)" class="st14 st19 st20">E</text>
				<text transform="matrix(1 0 0 1 4360.7998 3074.7)" class="st14 st19 st20">R</text>
				<text transform="matrix(1 0 0 1 4375.8999 3074.7)" class="st14 st19 st20">D </text>
				<text transform="matrix(1 0 0 1 4398.1001 3074.7)" class="st14 st19 st20">S</text>
				<text transform="matrix(1 0 0 1 4411.2998 3074.7)" class="st14 st19 st20">T</text>
				<text transform="matrix(1 0 0 1 4424.5 3074.7)" class="st14 st19 st20">R</text>
				<text transform="matrix(1 0 0 1 4439.7002 3074.7)" class="st14 st19 st20">E</text>
				<text transform="matrix(1 0 0 1 4453.7002 3074.7)" class="st14 st19 st20">E</text>
				<text transform="matrix(1 0 0 1 4467.7002 3074.7)" class="st14 st19 st20">T</text>
				<text transform="matrix(1 0 0 1 4423.7002 3350.3999)" class="st14 st15 st20">新</text>
				<text transform="matrix(1 0 0 1 4447 3350.3999)" class="st14 st15 st20 st21">村</text>
				<text transform="matrix(1 0 0 1 4471 3350.3999)" class="st18"><tspan x="0" y="0" class="st14 st15 st20">街</tspan><tspan x="21.5" y="0" class="st14 st19 st20">  </tspan></text>
				<text transform="matrix(1 0 0 1 4508.7002 3350.3999)" class="st14 st19 st20">S</text>
				<text transform="matrix(1 0 0 1 4521.9004 3350.3999)" class="st14 st19 st20">U</text>
				<text transform="matrix(1 0 0 1 4537.9004 3350.3999)" class="st14 st19 st20">N </text>
				<text transform="matrix(1 0 0 1 4560.3003 3350.3999)" class="st14 st19 st20">C</text>
				<text transform="matrix(1 0 0 1 4575.6001 3350.3999)" class="st14 st19 st20">H</text>
				<text transform="matrix(1 0 0 1 4591.7002 3350.3999)" class="st14 st19 st20">U</text>
				<text transform="matrix(1 0 0 1 4607.7002 3350.3999)" class="st14 st19 st20">N </text>
				<text transform="matrix(1 0 0 1 4630.1001 3350.3999)" class="st14 st19 st20">S</text>
				<text transform="matrix(1 0 0 1 4643.2002 3350.3999)" class="st14 st19 st20">T</text>
				<text transform="matrix(1 0 0 1 4656.5 3350.3999)" class="st14 st19 st20">R</text>
				<text transform="matrix(1 0 0 1 4671.6001 3350.3999)" class="st14 st19 st20">E</text>
				<text transform="matrix(1 0 0 1 4685.7002 3350.3999)" class="st14 st19 st20">E</text>
				<text transform="matrix(1 0 0 1 4699.7002 3350.3999)" class="st14 st19 st20">T</text>
				<text transform="matrix(1 0 0 1 4067.5 3642.8)" class="st14 st15 st20">新</text>
				<text transform="matrix(1 0 0 1 4090.8 3642.8)" class="st14 st15 st20 st21">村</text>
				<text transform="matrix(1 0 0 1 4114.7998 3642.8)" class="st18"><tspan x="0" y="0" class="st14 st15 st20">街</tspan><tspan x="21.5" y="0" class="st14 st19 st20">  </tspan></text>
				<text transform="matrix(1 0 0 1 4152.5 3642.8)" class="st14 st19 st20">S</text>
				<text transform="matrix(1 0 0 1 4165.7002 3642.8)" class="st14 st19 st20">U</text>
				<text transform="matrix(1 0 0 1 4181.7002 3642.8)" class="st14 st19 st20">N </text>
				<text transform="matrix(1 0 0 1 4204.1001 3642.8)" class="st14 st19 st20">C</text>
				<text transform="matrix(1 0 0 1 4219.3999 3642.8)" class="st14 st19 st20">H</text>
				<text transform="matrix(1 0 0 1 4235.5 3642.8)" class="st14 st19 st20">U</text>
				<text transform="matrix(1 0 0 1 4251.5 3642.8)" class="st14 st19 st20">N </text>
				<text transform="matrix(1 0 0 1 4273.8999 3642.8)" class="st14 st19 st20">S</text>
				<text transform="matrix(1 0 0 1 4287 3642.8)" class="st14 st19 st20">T</text>
				<text transform="matrix(1 0 0 1 4300.2998 3642.8)" class="st14 st19 st20">R</text>
				<text transform="matrix(1 0 0 1 4315.3999 3642.8)" class="st14 st19 st20">E</text>
				<text transform="matrix(1 0 0 1 4329.5 3642.8)" class="st14 st19 st20">E</text>
				<text transform="matrix(1 0 0 1 4343.5 3642.8)" class="st14 st19 st20">T</text>
				<text transform="matrix(-1.745302e-03 1 -1 -1.745302e-03 4111.6997 2664.3)" class="st14 st15 st20">布</text>
				<text transform="matrix(-1.745302e-03 1 -1 -1.745302e-03 4111.6587 2687.5)" class="st14 st15 st20 st21">朗</text>
				<text transform="matrix(-1.745302e-03 1 -1 -1.745302e-03 4111.6177 2711.3)" class="st18"><tspan x="0" y="0" class="st14 st15 st20 st21">街</tspan><tspan x="23.6" y="0" class="st14 st19 st20 st21">     </tspan></text>
				<text transform="matrix(-1.745302e-03 1 -1 -1.745302e-03 4111.5161 2769.8999)" class="st14 st19 st20">B</text>
				<text transform="matrix(-1.745302e-03 1 -1 -1.745302e-03 4111.4888 2785.0999)" class="st14 st19 st20">R</text>
				<text transform="matrix(-1.745302e-03 1 -1 -1.745302e-03 4111.4634 2799.9998)" class="st14 st19 st20">O</text>
				<text transform="matrix(-1.745302e-03 1 -1 -1.745302e-03 4111.4341 2816.9998)" class="st14 st19 st20">W</text>
				<text transform="matrix(-1.745302e-03 1 -1 -1.745302e-03 4111.3931 2840.2998)" class="st14 st19 st20">N </text>
				<text transform="matrix(-1.745302e-03 1 -1 -1.745302e-03 4111.354 2862.6997)" class="st14 st19 st20">S</text>
				<text transform="matrix(-1.745302e-03 1 -1 -1.745302e-03 4111.3306 2875.8997)" class="st14 st19 st20">T</text>
				<text transform="matrix(-1.745302e-03 1 -1 -1.745302e-03 4111.3071 2889.0996)" class="st14 st19 st20">R</text>
				<text transform="matrix(-1.745302e-03 1 -1 -1.745302e-03 4111.2817 2904.1997)" class="st14 st19 st20">E</text>
				<text transform="matrix(-1.745302e-03 1 -1 -1.745302e-03 4111.2563 2918.2996)" class="st14 st19 st20">E</text>
				<text transform="matrix(-1.745302e-03 1 -1 -1.745302e-03 4111.2329 2932.2996)" class="st14 st19 st20">T</text>
				<text transform="matrix(-1.745302e-03 1 -1 -1.745302e-03 3794.8992 2375.7)" class="st14 st15 st20">華</text>
				<text transform="matrix(-1.745302e-03 1 -1 -1.745302e-03 3794.8582 2399.2998)" class="st14 st15 st20">倫</text>
				<text transform="matrix(-1.745302e-03 1 -1 -1.745302e-03 3794.8171 2422.9998)" class="st18"><tspan x="0" y="0" class="st14 st15 st20 st21">街</tspan><tspan x="23.6" y="0" class="st14 st19 st20 st21">     </tspan></text>
				<text transform="matrix(-1.745302e-03 1 -1 -1.745302e-03 3794.7156 2481.6997)" class="st14 st19 st20">W</text>
				<text transform="matrix(-1.745302e-03 1 -1 -1.745302e-03 3794.6765 2503.6997)" class="st14 st19 st20">A</text>
				<text transform="matrix(-1.745302e-03 1 -1 -1.745302e-03 3794.6472 2520.0996)" class="st14 st19 st20">RR</text>
				<text transform="matrix(-1.745302e-03 1 -1 -1.745302e-03 3794.5945 2550.2996)" class="st14 st19 st20">E</text>
				<text transform="matrix(-1.745302e-03 1 -1 -1.745302e-03 3794.571 2564.3997)" class="st14 st19 st20">N </text>
				<text transform="matrix(-1.745302e-03 1 -1 -1.745302e-03 3794.532 2586.7996)" class="st14 st19 st20">S</text>
				<text transform="matrix(-1.745302e-03 1 -1 -1.745302e-03 3794.5085 2599.9995)" class="st14 st19 st20">T</text>
				<text transform="matrix(-1.745302e-03 1 -1 -1.745302e-03 3794.4851 2613.1995)" class="st14 st19 st20">R</text>
				<text transform="matrix(-1.745302e-03 1 -1 -1.745302e-03 3794.4597 2628.2996)" class="st14 st19 st20">E</text>
				<text transform="matrix(-1.745302e-03 1 -1 -1.745302e-03 3794.4343 2642.3994)" class="st14 st19 st20">E</text>
				<text transform="matrix(-1.745302e-03 1 -1 -1.745302e-03 3794.4109 2656.3994)" class="st14 st19 st20">T</text>
				<text transform="matrix(-1.745302e-03 1 -1 -1.745302e-03 3529.1003 2375.7)" class="st14 st15 st20">重</text>
				<text transform="matrix(-1.745302e-03 1 -1 -1.745302e-03 3529.0593 2398.7998)" class="st14 st15 st20">士</text>
				<text transform="matrix(-1.745302e-03 1 -1 -1.745302e-03 3529.0183 2422.2)" class="st18"><tspan x="0" y="0" class="st14 st15 st20">街</tspan><tspan x="21.5" y="0" class="st14 st19 st20">     </tspan></text>
				<text transform="matrix(-1.745302e-03 1 -1 -1.745302e-03 3528.9167 2480.8997)" class="st14 st19 st20">J</text>
				<text transform="matrix(-1.745302e-03 1 -1 -1.745302e-03 3528.8972 2492.4998)" class="st14 st19 st20">O</text>
				<text transform="matrix(-1.745302e-03 1 -1 -1.745302e-03 3528.866 2510.2998)" class="st14 st19 st20">N</text>
				<text transform="matrix(-1.745302e-03 1 -1 -1.745302e-03 3528.8367 2526.9998)" class="st14 st19 st20">E</text>
				<text transform="matrix(-1.745302e-03 1 -1 -1.745302e-03 3528.8113 2540.9998)" class="st14 st19 st20">S </text>
				<text transform="matrix(-1.745302e-03 1 -1 -1.745302e-03 3528.7781 2560.0996)" class="st14 st19 st20">S</text>
				<text transform="matrix(-1.745302e-03 1 -1 -1.745302e-03 3528.7546 2573.2996)" class="st14 st19 st20">T</text>
				<text transform="matrix(-1.745302e-03 1 -1 -1.745302e-03 3528.7332 2586.4995)" class="st14 st19 st20">R</text>
				<text transform="matrix(-1.745302e-03 1 -1 -1.745302e-03 3528.7058 2601.5996)" class="st14 st19 st20">E</text>
				<text transform="matrix(-1.745302e-03 1 -1 -1.745302e-03 3528.6804 2615.6995)" class="st14 st19 st20">E</text>
				<text transform="matrix(-1.745302e-03 1 -1 -1.745302e-03 3528.657 2629.6995)" class="st14 st19 st20">T</text>
				<text transform="matrix(-1.745302e-03 1 -1 -1.745302e-03 3247.0007 2375.6001)" class="st14 st15 st20 st21">禮</text>
				<text transform="matrix(-1.745302e-03 1 -1 -1.745302e-03 3246.9578 2399.3999)" class="st14 st15 st20">賢</text>
				<text transform="matrix(-1.745302e-03 1 -1 -1.745302e-03 3246.9187 2422.6001)" class="st18"><tspan x="0" y="0" class="st14 st15 st20 st21">街</tspan><tspan x="23.6" y="0" class="st14 st19 st20 st21">     </tspan></text>
				<text transform="matrix(-1.745302e-03 1 -1 -1.745302e-03 3246.8152 2481.2998)" class="st14 st19 st20">L</text>
				<text transform="matrix(-1.745302e-03 1 -1 -1.745302e-03 3246.7917 2494.4998)" class="st14 st19 st20">A</text>
				<text transform="matrix(-1.745302e-03 1 -1 -1.745302e-03 3246.7644 2510.7998)" class="st14 st19 st20">I </text>
				<text transform="matrix(-1.745302e-03 1 -1 -1.745302e-03 3246.7429 2523.0999)" class="st14 st19 st20">Y</text>
				<text transform="matrix(-1.745302e-03 1 -1 -1.745302e-03 3246.7175 2537.8999)" class="st14 st19 st20">I</text>
				<text transform="matrix(-1.745302e-03 1 -1 -1.745302e-03 3246.7058 2544.2998)" class="st14 st19 st20">N </text>
				<text transform="matrix(-1.745302e-03 1 -1 -1.745302e-03 3246.6667 2566.6997)" class="st14 st19 st20">S</text>
				<text transform="matrix(-1.745302e-03 1 -1 -1.745302e-03 3246.6433 2579.7998)" class="st14 st19 st20">T</text>
				<text transform="matrix(-1.745302e-03 1 -1 -1.745302e-03 3246.6199 2592.9998)" class="st14 st19 st20">R</text>
				<text transform="matrix(-1.745302e-03 1 -1 -1.745302e-03 3246.5945 2608.1997)" class="st14 st19 st20">E</text>
				<text transform="matrix(-1.745302e-03 1 -1 -1.745302e-03 3246.5691 2622.1997)" class="st14 st19 st20">E</text>
				<text transform="matrix(-1.745302e-03 1 -1 -1.745302e-03 3246.5457 2636.1997)" class="st14 st19 st20">T</text>
				<text transform="matrix(-1.745302e-03 1 -1 -1.745302e-03 4423.6997 3420)" class="st14 st15 st20">安</text>
				<text transform="matrix(-1.745302e-03 1 -1 -1.745302e-03 4423.6587 3443.5999)" class="st14 st15 st20 st21">庶</text>
				<text transform="matrix(-1.745302e-03 1 -1 -1.745302e-03 4423.6177 3467.5999)" class="st14 st15 st20 st21">庇</text>
				<text transform="matrix(-1.745302e-03 1 -1 -1.745302e-03 4423.5747 3491.4998)" class="st18"><tspan x="0" y="0" class="st14 st15 st20">街</tspan><tspan x="21.5" y="0" class="st14 st19 st20">     </tspan></text>
				<text transform="matrix(-1.745302e-03 1 -1 -1.745302e-03 4423.4731 3550.1997)" class="st14 st19 st20">O</text>
				<text transform="matrix(-1.745302e-03 1 -1 -1.745302e-03 4423.4419 3567.9998)" class="st14 st19 st20">R</text>
				<text transform="matrix(-1.745302e-03 1 -1 -1.745302e-03 4423.4146 3583.1997)" class="st14 st19 st20">M</text>
				<text transform="matrix(-1.745302e-03 1 -1 -1.745302e-03 4423.3833 3601.3997)" class="st14 st19 st20">S</text>
				<text transform="matrix(-1.745302e-03 1 -1 -1.745302e-03 4423.3599 3614.6997)" class="st14 st19 st20">B</text>
				<text transform="matrix(-1.745302e-03 1 -1 -1.745302e-03 4423.3345 3628.9995)" class="st14 st19 st20">Y </text>
				<text transform="matrix(-1.745302e-03 1 -1 -1.745302e-03 4423.2993 3649.7996)" class="st14 st19 st20">S</text>
				<text transform="matrix(-1.745302e-03 1 -1 -1.745302e-03 4423.2759 3662.9995)" class="st14 st19 st20">T</text>
				<text transform="matrix(-1.745302e-03 1 -1 -1.745302e-03 4423.2524 3676.1995)" class="st14 st19 st20">R</text>
				<text transform="matrix(-1.745302e-03 1 -1 -1.745302e-03 4423.2271 3691.2996)" class="st14 st19 st20">E</text>
				<text transform="matrix(-1.745302e-03 1 -1 -1.745302e-03 4423.2017 3705.3994)" class="st14 st19 st20">E</text>
				<text transform="matrix(-1.745302e-03 1 -1 -1.745302e-03 4423.1782 3719.3994)" class="st14 st19 st20">T</text>
				<text transform="matrix(-1.745302e-03 1 -1 -1.745302e-03 4744.5005 2664.3)" class="st14 st15 st16 st17">浣</text>
				<text transform="matrix(-1.745302e-03 1 -1 -1.745302e-03 4744.3794 2733.5999)" class="st14 st15 st16">紗</text>
				<text transform="matrix(-1.745302e-03 1 -1 -1.745302e-03 4744.2583 2802.3999)" class="st18"><tspan x="0" y="0" class="st14 st15 st16">街</tspan><tspan x="62.9" y="0" class="st14 st19 st16">     </tspan></text>
				<text transform="matrix(-1.745302e-03 1 -1 -1.745302e-03 4743.9595 2973.6995)" class="st14 st19 st16">W</text>
				<text transform="matrix(-1.745302e-03 1 -1 -1.745302e-03 4743.8423 3041.2993)" class="st14 st19 st16">U</text>
				<text transform="matrix(-1.745302e-03 1 -1 -1.745302e-03 4743.7622 3087.0994)" class="st14 st19 st16">N </text>
				<text transform="matrix(-1.745302e-03 1 -1 -1.745302e-03 4743.647 3152.4993)" class="st14 st19 st16">S</text>
				<text transform="matrix(-1.745302e-03 1 -1 -1.745302e-03 4743.5806 3190.4993)" class="st14 st19 st16">H</text>
				<text transform="matrix(-1.745302e-03 1 -1 -1.745302e-03 4743.5024 3235.499)" class="st14 st19 st16">A </text>
				<text transform="matrix(-1.745302e-03 1 -1 -1.745302e-03 4743.3892 3300.8989)" class="st14 st19 st16">S</text>
				<text transform="matrix(-1.745302e-03 1 -1 -1.745302e-03 4743.3228 3338.3989)" class="st14 st19 st16">T</text>
				<text transform="matrix(-1.745302e-03 1 -1 -1.745302e-03 4743.2583 3375.999)" class="st14 st19 st16">R</text>
				<text transform="matrix(-1.745302e-03 1 -1 -1.745302e-03 4743.1821 3419.2988)" class="st14 st19 st16">E</text>
				<text transform="matrix(-1.745302e-03 1 -1 -1.745302e-03 4743.1118 3459.4988)" class="st14 st19 st16">E</text>
				<text transform="matrix(-1.745302e-03 1 -1 -1.745302e-03 4743.0415 3499.4988)" class="st14 st19 st16">T</text>
				<text transform="matrix(1 0 0 1 4258.3999 2800.6001)" class="st14 st15 st20 st21">京</text>
				<text transform="matrix(1 0 0 1 4282.1997 2800.6001)" class="st18"><tspan x="0" y="0" class="st14 st15 st20 st21">街</tspan><tspan x="23.6" y="0" class="st14 st19 st20 st21">  </tspan></text>
				<text transform="matrix(1 0 0 1 4319.8999 2800.6001)" class="st14 st19 st20">K</text>
				<text transform="matrix(1 0 0 1 4334.8999 2800.6001)" class="st14 st19 st20">IN</text>
				<text transform="matrix(1 0 0 1 4357.8999 2800.6001)" class="st14 st19 st20">G </text>
				<text transform="matrix(1 0 0 1 4380.1001 2800.6001)" class="st14 st19 st20">S</text>
				<text transform="matrix(1 0 0 1 4393.2998 2800.6001)" class="st14 st19 st20">T</text>
				<text transform="matrix(1 0 0 1 4406.5 2800.6001)" class="st14 st19 st20">R</text>
				<text transform="matrix(1 0 0 1 4421.6001 2800.6001)" class="st14 st19 st20">E</text>
				<text transform="matrix(1 0 0 1 4435.6997 2800.6001)" class="st14 st19 st20">E</text>
				<text transform="matrix(1 0 0 1 4449.6997 2800.6001)" class="st14 st19 st20">T</text>
				<text transform="matrix(0.9919 -0.1271 0.1271 0.9919 4909.7002 2514.7)" class="st14 st15 st20">蓮</text>
				<text transform="matrix(0.9919 -0.1271 0.1271 0.9919 4933.1089 2511.7012)" class="st14 st15 st20 st21">花</text>
				<text transform="matrix(0.9919 -0.1271 0.1271 0.9919 4956.8149 2508.6643)" class="st18"><tspan x="0" y="0" class="st14 st15 st20">街</tspan><tspan x="21.5" y="0" class="st14 st19 st20">  </tspan></text>
				<text transform="matrix(0.9919 -0.1271 0.1271 0.9919 4994.2095 2503.874)" class="st14 st19 st20">L</text>
				<text transform="matrix(0.9919 -0.1271 0.1271 0.9919 5006.6084 2502.2856)" class="st14 st19 st20">I</text>
				<text transform="matrix(0.9919 -0.1271 0.1271 0.9919 5012.9565 2501.4724)" class="st14 st19 st20 st22">L</text>
				<text transform="matrix(0.9919 -0.1271 0.1271 0.9919 5023.1729 2500.1638)" class="st14 st19 st20">Y </text>
				<text transform="matrix(0.9919 -0.1271 0.1271 0.9919 5043.8042 2497.5208)" class="st14 st19 st20">S</text>
				<text transform="matrix(0.9919 -0.1271 0.1271 0.9919 5056.8975 2495.8435)" class="st14 st19 st20">T</text>
				<text transform="matrix(0.9919 -0.1271 0.1271 0.9919 5069.9902 2494.1663)" class="st14 st19 st20">R</text>
				<text transform="matrix(0.9919 -0.1271 0.1271 0.9919 5084.9678 2492.2476)" class="st14 st19 st20">E</text>
				<text transform="matrix(0.9919 -0.1271 0.1271 0.9919 5098.9536 2490.4561)" class="st14 st19 st20">E</text>
				<text transform="matrix(0.9919 -0.1271 0.1271 0.9919 5112.8403 2488.677)" class="st14 st19 st20">T</text>
				<text transform="matrix(-1.745302e-03 1 -1 -1.745302e-03 4735.2993 1951.4)" class="st14 st15 st20">火</text>
				<text transform="matrix(-1.745302e-03 1 -1 -1.745302e-03 4735.2583 1975.1)" class="st14 st15 st20">龍</text>
				<text transform="matrix(-1.745302e-03 1 -1 -1.745302e-03 4735.2173 1998.5999)" class="st18"><tspan x="0" y="0" class="st14 st15 st20 st21">徑</tspan><tspan x="23.6" y="0" class="st14 st19 st20 st21">  </tspan></text>
				<text transform="matrix(-1.745302e-03 1 -1 -1.745302e-03 4735.1509 2036.2998)" class="st14 st19 st20">F</text>
				<text transform="matrix(-1.745302e-03 1 -1 -1.745302e-03 4735.1274 2049.7)" class="st14 st19 st20">I</text>
				<text transform="matrix(-1.745302e-03 1 -1 -1.745302e-03 4735.1177 2055.9998)" class="st14 st19 st20">R</text>
				<text transform="matrix(-1.745302e-03 1 -1 -1.745302e-03 4735.0903 2071.1997)" class="st14 st19 st20">E </text>
				<text transform="matrix(-1.745302e-03 1 -1 -1.745302e-03 4735.0552 2090.9998)" class="st14 st19 st20">D</text>
				<text transform="matrix(-1.745302e-03 1 -1 -1.745302e-03 4735.0278 2107.2998)" class="st14 st19 st20">R</text>
				<text transform="matrix(-1.745302e-03 1 -1 -1.745302e-03 4735.0005 2122.7998)" class="st14 st19 st20">A</text>
				<text transform="matrix(-1.745302e-03 1 -1 -1.745302e-03 4734.9731 2138.3997)" class="st14 st19 st20">G</text>
				<text transform="matrix(-1.745302e-03 1 -1 -1.745302e-03 4734.9438 2154.6997)" class="st14 st19 st20">O</text>
				<text transform="matrix(-1.745302e-03 1 -1 -1.745302e-03 4734.9146 2172.4998)" class="st14 st19 st20">N </text>
				<text transform="matrix(-1.745302e-03 1 -1 -1.745302e-03 4734.8755 2194.8997)" class="st14 st19 st20">P</text>
				<text transform="matrix(-1.745302e-03 1 -1 -1.745302e-03 4734.8521 2207.4995)" class="st14 st19 st20 st22">A</text>
				<text transform="matrix(-1.745302e-03 1 -1 -1.745302e-03 4734.8267 2221.9995)" class="st14 st19 st20">T</text>
				<text transform="matrix(-1.745302e-03 1 -1 -1.745302e-03 4734.8032 2235.2996)" class="st14 st19 st20">H</text>
				<text transform="matrix(0.7266 0.6871 -0.6871 0.7266 3817.6006 3642.8)" class="st14 st15 st16">大</text>
				<text transform="matrix(0.7266 0.6871 -0.6871 0.7266 3867.1523 3689.6594)" class="st14 st15 st16 st17">坑</text>
				<text transform="matrix(0.7266 0.6871 -0.6871 0.7266 3917.5771 3737.3433)" class="st18"><tspan x="0" y="0" class="st14 st15 st16 st17">道</tspan><tspan x="69.2" y="0" class="st14 st19 st16 st17">  </tspan></text>
				<text transform="matrix(0.7266 0.6871 -0.6871 0.7266 3997.5723 3812.9917)" class="st14 st19 st16 st13">T</text>
				<text transform="matrix(0.7266 0.6871 -0.6871 0.7266 4020.8955 3835.0471)" class="st14 st19 st16">A</text>
				<text transform="matrix(0.7266 0.6871 -0.6871 0.7266 4054.7539 3867.0654)" class="st14 st19 st16">I </text>
				<text transform="matrix(0.7266 0.6871 -0.6871 0.7266 4080.6924 3891.5945)" class="st14 st19 st16">H</text>
				<text transform="matrix(0.7266 0.6871 -0.6871 0.7266 4113.3887 3922.5134)" class="st14 st19 st16">A</text>
				<text transform="matrix(0.7266 0.6871 -0.6871 0.7266 4147.4648 3954.7378)" class="st14 st19 st16">N</text>
				<text transform="matrix(0.7266 0.6871 -0.6871 0.7266 4181.9043 3987.3059)" class="st14 st19 st16">G </text>
				<text transform="matrix(0.7266 0.6871 -0.6871 0.7266 4229.1318 4031.9666)" class="st14 st19 st16">R</text>
				<text transform="matrix(0.7266 0.6871 -0.6871 0.7266 4259.9385 4061.0991)" class="st14 st19 st16">O</text>
				<text transform="matrix(0.7266 0.6871 -0.6871 0.7266 4294.8145 4094.0791)" class="st14 st19 st16">A</text>
				<text transform="matrix(0.7266 0.6871 -0.6871 0.7266 4328.8906 4126.3037)" class="st14 st19 st16">D</text>
				<text transform="matrix(0.3437 0.9391 -0.9391 0.3437 3369.1003 4012.3999)" class="st14 st15 st16">大</text>
				<text transform="matrix(0.3437 0.9391 -0.9391 0.3437 3392.5378 4076.446)" class="st14 st15 st16 st17">坑</text>
				<text transform="matrix(0.3437 0.9391 -0.9391 0.3437 3416.3875 4141.6191)" class="st18"><tspan x="0" y="0" class="st14 st15 st16">道</tspan><tspan x="62.9" y="0" class="st14 st19 st16">  </tspan></text>
				<text transform="matrix(0.3437 0.9391 -0.9391 0.3437 3454.2253 4245.0137)" class="st14 st19 st16 st13">T</text>
				<text transform="matrix(0.3437 0.9391 -0.9391 0.3437 3465.2566 4275.1582)" class="st14 st19 st16">A</text>
				<text transform="matrix(0.3437 0.9391 -0.9391 0.3437 3481.2703 4318.9204)" class="st14 st19 st16">I </text>
				<text transform="matrix(0.3437 0.9391 -0.9391 0.3437 3493.5398 4352.4458)" class="st14 st19 st16">H</text>
				<text transform="matrix(0.3437 0.9391 -0.9391 0.3437 3509.0046 4394.7051)" class="st14 st19 st16">A</text>
				<text transform="matrix(0.3437 0.9391 -0.9391 0.3437 3525.1218 4438.7485)" class="st14 st19 st16">N</text>
				<text transform="matrix(0.3437 0.9391 -0.9391 0.3437 3541.4109 4483.2617)" class="st14 st19 st16">G </text>
				<text transform="matrix(0.3437 0.9391 -0.9391 0.3437 3563.7488 4544.3027)" class="st14 st19 st16">R</text>
				<text transform="matrix(0.3437 0.9391 -0.9391 0.3437 3578.321 4584.1201)" class="st14 st19 st16">O</text>
				<text transform="matrix(0.3437 0.9391 -0.9391 0.3437 3594.8152 4629.1968)" class="st14 st19 st16">A</text>
				<text transform="matrix(0.3437 0.9391 -0.9391 0.3437 3610.9343 4673.2402)" class="st14 st19 st16">D</text>
				<g>
					<text transform="matrix(0.9966 -8.193851e-02 8.193851e-02 0.9966 2789.5 489.7999)" class="st14 st15 st16">高</text>
					<text transform="matrix(0.9966 -8.193851e-02 8.193851e-02 0.9966 2854.2815 484.474)" class="st14 st15 st16">士</text>
					<text transform="matrix(0.9966 -8.193851e-02 8.193851e-02 0.9966 2921.3552 478.9596)" class="st14 st15 st16 st17">威</text>
					<text transform="matrix(0.9966 -8.193851e-02 8.193851e-02 0.9966 2990.3225 473.2894)" class="st18"><tspan x="0" y="0" class="st14 st15 st16 st17">道</tspan><tspan x="69.2" y="0" class="st14 st19 st16 st17">  </tspan></text>
					<text transform="matrix(0.9966 -8.193851e-02 8.193851e-02 0.9966 3100.0522 464.2679)" class="st14 st19 st16">C</text>
					<text transform="matrix(0.9966 -8.193851e-02 8.193851e-02 0.9966 3143.9043 460.6627)" class="st14 st19 st16">A</text>
					<text transform="matrix(0.9966 -8.193851e-02 8.193851e-02 0.9966 3188.3545 457.0082)" class="st14 st19 st16">U</text>
					<text transform="matrix(0.9966 -8.193851e-02 8.193851e-02 0.9966 3233.3027 453.3129)" class="st14 st19 st16">S</text>
					<text transform="matrix(0.9966 -8.193851e-02 8.193851e-02 0.9966 3271.175 450.1991)" class="st14 st19 st16">E</text>
					<text transform="matrix(0.9966 -8.193851e-02 8.193851e-02 0.9966 3311.1401 446.9135)" class="st14 st19 st16 st13">W</text>
					<text transform="matrix(0.9966 -8.193851e-02 8.193851e-02 0.9966 3374.1274 441.735)" class="st14 st19 st16 st13">A</text>
					<text transform="matrix(0.9966 -8.193851e-02 8.193851e-02 0.9966 3414.7905 438.3917)" class="st14 st19 st16">Y </text>
					<text transform="matrix(0.9966 -8.193851e-02 8.193851e-02 0.9966 3475.2864 433.4181)" class="st14 st19 st16">R</text>
					<text transform="matrix(0.9966 -8.193851e-02 8.193851e-02 0.9966 3517.5437 429.944)" class="st14 st19 st16">O</text>
					<text transform="matrix(0.9966 -8.193851e-02 8.193851e-02 0.9966 3565.3823 426.0109)" class="st14 st19 st16">A</text>
					<text transform="matrix(0.9966 -8.193851e-02 8.193851e-02 0.9966 3612.1245 422.1678)" class="st14 st19 st16">D</text>
					<text transform="matrix(0.1011 0.9949 -0.9949 0.1011 1519.9008 2814.3999)" class="st14 st15 st16">東</text>
					<text transform="matrix(0.1011 0.9949 -0.9949 0.1011 1526.7719 2882.0518)" class="st14 st15 st16 st17">院</text>
					<text transform="matrix(0.1011 0.9949 -0.9949 0.1011 1533.7855 2951.0964)" class="st18"><tspan x="0" y="0" class="st14 st15 st16">道</tspan><tspan x="62.9" y="0" class="st14 st19 st16">  </tspan></text>
					<text transform="matrix(0.1011 0.9949 -0.9949 0.1011 1544.9105 3060.6328)" class="st14 st19 st16">E</text>
					<text transform="matrix(0.1011 0.9949 -0.9949 0.1011 1548.9945 3100.8259)" class="st14 st19 st16">A</text>
					<text transform="matrix(0.1011 0.9949 -0.9949 0.1011 1553.764 3147.7844)" class="st14 st19 st16">S</text>
					<text transform="matrix(0.1011 0.9949 -0.9949 0.1011 1557.5629 3185.1919)" class="st14 st19 st16">T</text>
					<text transform="matrix(0.1011 0.9949 -0.9949 0.1011 1561.3636 3222.5994)" class="st14 st19 st16">E</text>
					<text transform="matrix(0.1011 0.9949 -0.9949 0.1011 1565.4261 3262.5935)" class="st14 st19 st16">R</text>
					<text transform="matrix(0.1011 0.9949 -0.9949 0.1011 1569.8011 3305.6719)" class="st14 st19 st16">N </text>
					<text transform="matrix(0.1011 0.9949 -0.9949 0.1011 1576.4105 3370.7371)" class="st14 st19 st16">H</text>
					<text transform="matrix(0.1011 0.9949 -0.9949 0.1011 1581.0082 3416.0042)" class="st14 st19 st16">O</text>
					<text transform="matrix(0.1011 0.9949 -0.9949 0.1011 1586.0726 3465.8477)" class="st14 st19 st16">S</text>
					<text transform="matrix(0.1011 0.9949 -0.9949 0.1011 1589.9125 3503.6531)" class="st14 st19 st16">P</text>
					<text transform="matrix(0.1011 0.9949 -0.9949 0.1011 1593.8832 3542.752)" class="st14 st19 st16">I</text>
					<text transform="matrix(0.1011 0.9949 -0.9949 0.1011 1595.5511 3559.1675)" class="st14 st19 st16 st13">T</text>
					<text transform="matrix(0.1011 0.9949 -0.9949 0.1011 1598.7953 3591.1033)" class="st14 st19 st16">A</text>
					<text transform="matrix(0.1011 0.9949 -0.9949 0.1011 1603.5336 3637.7629)" class="st14 st19 st16">L </text>
					<text transform="matrix(0.1011 0.9949 -0.9949 0.1011 1609.0511 3692.0835)" class="st14 st19 st16">R</text>
					<text transform="matrix(0.1011 0.9949 -0.9949 0.1011 1613.3363 3734.2666)" class="st14 st19 st16">O</text>
					<text transform="matrix(0.1011 0.9949 -0.9949 0.1011 1618.1879 3782.0208)" class="st14 st19 st16">A</text>
					<text transform="matrix(0.1011 0.9949 -0.9949 0.1011 1622.9261 3828.6807)" class="st14 st19 st16">D</text>
					<text transform="matrix(0.2436 0.9699 -0.9699 0.2436 457.2005 2148.6001)" class="st14 st15 st16">加</text>
					<text transform="matrix(0.2436 0.9699 -0.9699 0.2436 473.8636 2214.9392)" class="st14 st15 st16">路</text>
					<text transform="matrix(0.2436 0.9699 -0.9699 0.2436 490.5511 2281.3755)" class="st14 st15 st16">連</text>
					<text transform="matrix(0.2436 0.9699 -0.9699 0.2436 506.971 2346.7449)" class="st14 st15 st16">山</text>
					<text transform="matrix(0.2436 0.9699 -0.9699 0.2436 523.4144 2412.2112)" class="st18"><tspan x="0" y="0" class="st14 st15 st16 st17">道</tspan><tspan x="69.2" y="0" class="st14 st19 st16 st17">  </tspan></text>
					<text transform="matrix(0.2436 0.9699 -0.9699 0.2436 550.2122 2518.8972)" class="st14 st19 st16">C</text>
					<text transform="matrix(0.2436 0.9699 -0.9699 0.2436 560.931 2561.5715)" class="st14 st19 st16">A</text>
					<text transform="matrix(0.2436 0.9699 -0.9699 0.2436 572.3568 2607.0586)" class="st14 st19 st16">R</text>
					<text transform="matrix(0.2436 0.9699 -0.9699 0.2436 582.6859 2648.1812)" class="st14 st19 st16">O</text>
					<text transform="matrix(0.2436 0.9699 -0.9699 0.2436 595.1351 2697.7417)" class="st14 st19 st16">L</text>
					<text transform="matrix(0.2436 0.9699 -0.9699 0.2436 603.8079 2732.269)" class="st14 st19 st16">I</text>
					<text transform="matrix(0.2436 0.9699 -0.9699 0.2436 608.1194 2749.4358)" class="st14 st19 st16">N</text>
					<text transform="matrix(0.2436 0.9699 -0.9699 0.2436 619.7396 2795.6987)" class="st14 st19 st16">E </text>
					<text transform="matrix(0.2436 0.9699 -0.9699 0.2436 633.845 2851.8542)" class="st14 st19 st16">HI</text>
					<text transform="matrix(0.2436 0.9699 -0.9699 0.2436 649.2415 2913.1501)" class="st14 st19 st16">L</text>
					<text transform="matrix(0.2436 0.9699 -0.9699 0.2436 657.9876 2947.9688)" class="st14 st19 st16">L </text>
					<text transform="matrix(0.2436 0.9699 -0.9699 0.2436 671.2894 3000.9236)" class="st14 st19 st16">R</text>
					<text transform="matrix(0.2436 0.9699 -0.9699 0.2436 681.8372 3042.9192)" class="st14 st19 st16 st13">P</text>
					<text transform="matrix(0.2436 0.9699 -0.9699 0.2436 690.5345 3077.5435)" class="st14 st19 st16">A</text>
					<text transform="matrix(0.2436 0.9699 -0.9699 0.2436 701.9603 3123.0305)" class="st14 st19 st16">D</text>
					<text transform="matrix(0.6074 0.7944 -0.7944 0.6074 1027.2996 -22.8001)" class="st14 st15 st23">怡</text>
					<text transform="matrix(0.6074 0.7944 -0.7944 0.6074 1058.8835 18.5094)" class="st14 st15 st23">和</text>
					<text transform="matrix(0.6074 0.7944 -0.7944 0.6074 1090.2849 59.5807)" class="st18"><tspan x="0" y="0" class="st14 st15 st23">街</tspan><tspan x="47.5" y="0" class="st14 st19 st23">  </tspan></text>
					<text transform="matrix(0.6074 0.7944 -0.7944 0.6074 1140.7576 125.5964)" class="st14 st19 st23">Y</text>
					<text transform="matrix(0.6074 0.7944 -0.7944 0.6074 1160.4978 151.4152)" class="st14 st19 st23">E</text>
					<text transform="matrix(0.6074 0.7944 -0.7944 0.6074 1179.0828 175.7243)" class="st14 st19 st23">E </text>
					<text transform="matrix(0.6074 0.7944 -0.7944 0.6074 1205.6257 210.4401)" class="st14 st19 st23">W</text>
					<text transform="matrix(0.6074 0.7944 -0.7944 0.6074 1235.8123 249.9225)" class="st14 st19 st23">O </text>
					<text transform="matrix(0.6074 0.7944 -0.7944 0.6074 1267.5779 291.4704)" class="st14 st19 st23">S</text>
					<text transform="matrix(0.6074 0.7944 -0.7944 0.6074 1284.949 314.1906)" class="st14 st19 st23">T</text>
					<text transform="matrix(0.6074 0.7944 -0.7944 0.6074 1302.3806 336.9904)" class="st14 st19 st23">R</text>
					<text transform="matrix(0.6074 0.7944 -0.7944 0.6074 1322.4236 363.2057)" class="st14 st19 st23">E</text>
					<text transform="matrix(0.6074 0.7944 -0.7944 0.6074 1341.0095 387.5153)" class="st14 st19 st23">E</text>
					<text transform="matrix(0.6074 0.7944 -0.7944 0.6074 1359.5349 411.7448)" class="st14 st19 st23">T</text>
					<text transform="matrix(0.7912 0.6115 -0.6115 0.7912 583.9001 320.9)" class="st14 st15 st23">伊</text>
					<text transform="matrix(0.7912 0.6115 -0.6115 0.7912 625.2809 352.8829)" class="st14 st15 st23">榮</text>
					<text transform="matrix(0.7912 0.6115 -0.6115 0.7912 666.4245 384.6822)" class="st18"><tspan x="0" y="0" class="st14 st15 st23">街</tspan><tspan x="47.5" y="0" class="st14 st19 st23">  </tspan></text>
					<text transform="matrix(0.7912 0.6115 -0.6115 0.7912 732.2546 435.5616)" class="st14 st19 st23">I</text>
					<text transform="matrix(0.7912 0.6115 -0.6115 0.7912 743.0148 443.878)" class="st14 st19 st23">R</text>
					<text transform="matrix(0.7912 0.6115 -0.6115 0.7912 768.0178 463.2022)" class="st14 st19 st23">V</text>
					<text transform="matrix(0.7912 0.6115 -0.6115 0.7912 794.6027 483.7496)" class="st14 st19 st23">I</text>
					<text transform="matrix(0.7912 0.6115 -0.6115 0.7912 805.4426 492.1275)" class="st14 st19 st23">N</text>
					<text transform="matrix(0.7912 0.6115 -0.6115 0.7912 833.9265 514.1427)" class="st14 st19 st23">G </text>
					<text transform="matrix(0.7912 0.6115 -0.6115 0.7912 872.8547 544.2296)" class="st14 st19 st23">S</text>
					<text transform="matrix(0.7912 0.6115 -0.6115 0.7912 895.4836 561.7194)" class="st14 st19 st23">T</text>
					<text transform="matrix(0.7912 0.6115 -0.6115 0.7912 918.1921 579.2701)" class="st14 st19 st23">R</text>
					<text transform="matrix(0.7912 0.6115 -0.6115 0.7912 944.3024 599.4503)" class="st14 st19 st23">E</text>
					<text transform="matrix(0.7912 0.6115 -0.6115 0.7912 968.5139 618.1632)" class="st14 st19 st23">E</text>
					<text transform="matrix(0.7912 0.6115 -0.6115 0.7912 992.6462 636.8146)" class="st14 st19 st23">T</text>
					<text transform="matrix(3.315521e-02 0.9995 -0.9995 3.315521e-02 2607.8008 609)" class="st14 st15 st16">摩</text>
					<text transform="matrix(3.315521e-02 0.9995 -0.9995 3.315521e-02 2610.0684 677.3623)" class="st14 st15 st16">頓</text>
					<text transform="matrix(3.315521e-02 0.9995 -0.9995 3.315521e-02 2612.3398 745.8247)" class="st18"><tspan x="0" y="0" class="st14 st15 st16 st17">臺</tspan><tspan x="69.2" y="0" class="st14 st19 st16 st17">  </tspan></text>
					<text transform="matrix(3.315521e-02 0.9995 -0.9995 3.315521e-02 2615.9902 855.8643)" class="st14 st19 st16">M</text>
					<text transform="matrix(3.315521e-02 0.9995 -0.9995 3.315521e-02 2617.7227 908.1355)" class="st14 st19 st16">O</text>
					<text transform="matrix(3.315521e-02 0.9995 -0.9995 3.315521e-02 2619.4199 959.3074)" class="st14 st19 st16">R</text>
					<text transform="matrix(3.315521e-02 0.9995 -0.9995 3.315521e-02 2620.8535 1002.4836)" class="st14 st19 st16">E</text>
					<text transform="matrix(3.315521e-02 0.9995 -0.9995 3.315521e-02 2622.1797 1042.4614)" class="st14 st19 st16">T</text>
					<text transform="matrix(3.315521e-02 0.9995 -0.9995 3.315521e-02 2623.3789 1078.6416)" class="st14 st19 st16">O</text>
					<text transform="matrix(3.315521e-02 0.9995 -0.9995 3.315521e-02 2625.0742 1129.7136)" class="st14 st19 st16">N </text>
					<text transform="matrix(3.315521e-02 0.9995 -0.9995 3.315521e-02 2627.2422 1195.0776)" class="st14 st19 st16">T</text>
					<text transform="matrix(3.315521e-02 0.9995 -0.9995 3.315521e-02 2628.4922 1232.7568)" class="st14 st19 st16">E</text>
					<text transform="matrix(3.315521e-02 0.9995 -0.9995 3.315521e-02 2629.8223 1272.8348)" class="st14 st19 st16">R</text>
					<text transform="matrix(3.315521e-02 0.9995 -0.9995 3.315521e-02 2631.2578 1316.1111)" class="st14 st19 st16">R</text>
					<text transform="matrix(3.315521e-02 0.9995 -0.9995 3.315521e-02 2632.7285 1360.4867)" class="st14 st19 st16">A</text>
					<text transform="matrix(3.315521e-02 0.9995 -0.9995 3.315521e-02 2634.1973 1404.7623)" class="st14 st19 st16">C</text>
					<text transform="matrix(3.315521e-02 0.9995 -0.9995 3.315521e-02 2635.6465 1448.4382)" class="st14 st19 st16">E</text>
				</g>
			</g>
			<g>
				<rect x="2994.3" y="778.1" class="st24" width="480.5" height="482.3"/>
				<rect x="2952.5" y="905.5" class="st24" width="564.2" height="227.5"/>
				<text transform="matrix(1 0 0 1 2952.3 1071.6001)" class="st7 st11 st25">H</text>
				<text transform="matrix(1 0 0 1 2984.4001 1071.6001)" class="st7 st11 st25">o</text>
				<text transform="matrix(1 0 0 1 3012.3 1071.6001)" class="st7 st11 st25">n</text>
				<text transform="matrix(1 0 0 1 3038.3 1071.6001)" class="st7 st11 st25">g </text>
				<text transform="matrix(1 0 0 1 3079 1071.6001)" class="st7 st11 st25">K</text>
				<text transform="matrix(1 0 0 1 3107.9001 1071.6001)" class="st7 st11 st25">o</text>
				<text transform="matrix(1 0 0 1 3135.7 1071.6001)" class="st7 st11 st25">n</text>
				<text transform="matrix(1 0 0 1 3161.7 1071.6001)" class="st7 st11 st25">g </text>
				<text transform="matrix(1 0 0 1 3202.4001 1071.6001)" class="st7 st11 st25">C</text>
				<text transform="matrix(1 0 0 1 3232.8 1071.6001)" class="st7 st11 st25">e</text>
				<text transform="matrix(1 0 0 1 3258.4001 1071.6001)" class="st7 st11 st25">n</text>
				<text transform="matrix(1 0 0 1 3284.4001 1071.6001)" class="st7 st11 st25">t</text>
				<text transform="matrix(1 0 0 1 3301.6001 1071.6001)" class="st7 st11 st25">r</text>
				<text transform="matrix(1 0 0 1 3317.8 1071.6001)" class="st7 st11 st25">a</text>
				<text transform="matrix(1 0 0 1 3342.6001 1071.6001)" class="st7 st11 st25">l </text>
				<text transform="matrix(1 0 0 1 3366.8 1071.6001)" class="st7 st11 st25">L</text>
				<text transform="matrix(1 0 0 1 3392.2 1071.6001)" class="st7 st11 st25">i</text>
				<text transform="matrix(1 0 0 1 3404.1001 1071.6001)" class="st7 st11 st25">b</text>
				<text transform="matrix(1 0 0 1 3432.5 1071.6001)" class="st7 st11 st25">r</text>
				<text transform="matrix(1 0 0 1 3448.8 1071.6001)" class="st7 st11 st25">a</text>
				<text transform="matrix(1 0 0 1 3473.6001 1071.6001)" class="st7 st11 st25">r</text>
				<text transform="matrix(1 0 0 1 3491.3 1071.6001)" class="st7 st11 st25">y</text>
				<text transform="matrix(1 0 0 1 2923.3999 1002.5)" class="st7 st8 st26 st27">香港中央圖書館</text>
			</g>
			<g>
				<g>
					<circle class="st24" cx="5682.8" cy="4029.4" r="155.1"/>
					<circle class="st24" cx="5682.8" cy="3642.7" r="155.1"/>
					<rect x="5616.6" y="3690.6" class="st24" width="132.4" height="286.3"/>
				</g>
				<g>
					<circle class="st24" cx="6057.5" cy="3107.2" r="155.1"/>
					<circle class="st24" cx="6331" cy="2833.8" r="155.1"/>
					
						<rect x="6052.7" y="2902.7" transform="matrix(0.7071 -0.7071 0.7071 0.7071 -284.5707 5250.6992)" class="st24" width="286.3" height="132.4"/>
				</g>
				<text transform="matrix(1 0 0 1 5661.3999 3360.8999)" class="st7 st8 st28">勵德邨</text>
				<text transform="matrix(1 0 0 1 5630.5 3427.7)" class="st7 st11 st29">L</text>
				<text transform="matrix(1 0 0 1 5656.3999 3427.7)" class="st7 st11 st29">A</text>
				<text transform="matrix(1 0 0 1 5688.2002 3427.7)" class="st7 st11 st29">I </text>
				<text transform="matrix(1 0 0 1 5713.1001 3427.7)" class="st7 st11 st29 st30">Y</text>
				<text transform="matrix(1 0 0 1 5738.2002 3427.7)" class="st7 st11 st29">A</text>
				<text transform="matrix(1 0 0 1 5770.2002 3427.7)" class="st7 st11 st29">K </text>
				<text transform="matrix(1 0 0 1 5811.7998 3427.7)" class="st7 st11 st29">T</text>
				<text transform="matrix(1 0 0 1 5837.8999 3427.7)" class="st7 st11 st29">S</text>
				<text transform="matrix(1 0 0 1 5863.7002 3427.7)" class="st7 st11 st29">U</text>
				<text transform="matrix(1 0 0 1 5894.8999 3427.7)" class="st7 st11 st29">E</text>
				<text transform="matrix(1 0 0 1 5922.5 3427.7)" class="st7 st11 st29">N</text>
			</g>
			<g>
				<path class="st24" d="M733,5302.9l-77.5,94.6l-498.1-408.3l97.1-118.4c-267.6-30.5-572.7,118.4-768.2,402.1
					c-261,378.8-228,854.4,73.8,1062.3c301.7,207.9,757.9,69.4,1018.9-309.4C739.3,5793.2,788.7,5524.1,733,5302.9L733,5302.9z
					 M-51,6192.5l-432.8-354.8l600-731.7L549,5460.8L-51,6192.5z"/>
				<g>
					<text transform="matrix(1 0 0 1 335 5757.2002)" class="st7 st8 st31">香港大球場</text>
					<text transform="matrix(1 0 0 1 349 5826.6001)" class="st7 st11 st32">H</text>
					<text transform="matrix(1 0 0 1 381.3 5826.6001)" class="st7 st11 st32">o</text>
					<text transform="matrix(1 0 0 1 409.3 5826.6001)" class="st7 st11 st32">n</text>
					<text transform="matrix(1 0 0 1 435.3999 5826.6001)" class="st7 st11 st32">g </text>
					<text transform="matrix(1 0 0 1 476.2 5826.6001)" class="st7 st11 st32">K</text>
					<text transform="matrix(1 0 0 1 505.2 5826.6001)" class="st7 st11 st32">o</text>
					<text transform="matrix(1 0 0 1 533.2 5826.6001)" class="st7 st11 st32">n</text>
					<text transform="matrix(1 0 0 1 559.3 5826.6001)" class="st7 st11 st32">g </text>
					<text transform="matrix(1 0 0 1 600.2 5826.6001)" class="st7 st11 st32">S</text>
					<text transform="matrix(1 0 0 1 626.8 5826.6001)" class="st7 st11 st32">t</text>
					<text transform="matrix(1 0 0 1 643.7 5826.6001)" class="st7 st11 st32">a</text>
					<text transform="matrix(1 0 0 1 668.6001 5826.6001)" class="st7 st11 st32">d</text>
					<text transform="matrix(1 0 0 1 697 5826.6001)" class="st7 st11 st32">i</text>
					<text transform="matrix(1 0 0 1 709 5826.6001)" class="st7 st11 st32">u</text>
					<text transform="matrix(1 0 0 1 735.3 5826.6001)" class="st7 st11 st32">m</text>
				</g>
			</g>
		</g>
	</g>
</g>
<g id="c">
	<g>
		<g>
			<polygon class="st33" points="5132.1,2618.2 5127.3,2573.8 5102.7,2559.1 5046.7,2565.1 5025.9,2584.8 5030.7,2629.1 
				4996.9,2628.3 5005.4,2707 5173.3,2688.9 5164.8,2610.2 			"/>
			<rect x="3981.1" y="2572.4" class="st34" width="108.1" height="80.9"/>
			<rect x="3365.2" y="2105.8" class="st33" width="217.2" height="135.1"/>
		</g>
		
			<rect x="6058.4" y="643.1" transform="matrix(0.7071 -0.7071 0.7071 0.7071 1242.0046 4598.7148)" class="st33" width="227.5" height="314"/>
		<rect x="4443.6" y="856.7" class="st33" width="124.3" height="180.3"/>
		
			<rect x="2365.1" y="2075.3" transform="matrix(0.5358 -0.8443 0.8443 0.5358 -747.6652 3102.4045)" class="st33" width="165.3" height="311.9"/>
		<g>
			
				<rect x="5862.6" y="330.8" transform="matrix(0.7071 -0.7071 0.7071 0.7071 1399.4061 4353.9966)" class="st33" width="185.7" height="314"/>
			
				<rect x="6012" y="472.7" transform="matrix(0.7071 -0.7071 0.7071 0.7071 1420.5925 4458.3442)" class="st33" width="160" height="83.3"/>
			
				<rect x="5738.9" y="419.6" transform="matrix(0.7071 -0.7071 0.7071 0.7071 1378.161 4249.6484)" class="st33" width="160" height="83.3"/>
		</g>
		<g>
			<polygon class="st33" points="5177.4,6427.4 4843.6,6427.4 4829.2,6002.3 5090.1,6002.3 			"/>
			<polygon class="st33" points="4974.8,6321.1 5155.6,6321.1 5189,6484.1 5112.5,6484.1 			"/>
			<polygon class="st33" points="4932.2,6068.8 4797.6,6068.8 4806.2,6002.3 4918.5,6002.3 			"/>
		</g>
		<path class="st33" d="M849.1,6216.4h66c55.5,0,100.6,45.1,100.6,100.6v108.2H748.4V6317c0-55.5,45.1-100.6,100.6-100.6H849.1z"/>
		<rect x="4193.2" y="2925.7" class="st33" width="52.7" height="89.5"/>
		<rect x="4314.9" y="3200.9" class="st33" width="89.5" height="89.5"/>
		<rect x="3868.8" y="1693.2" class="st33" width="734.5" height="540.4"/>
	</g>
</g>
<g id="d">
	<g>
		<polygon class="st35" points="3825,3955.3 3986.1,3794.2 3986.1,2656.1 3825,2817.1 2968.3,2817.1 2804.4,2981 2804.4,3955.3 		
			"/>
		<g>
			<path class="st36" d="M3277.8,3430.2c2-13,2.1-26.6,2.2-40.9l0,0v-0.8h-15.7v0.7c0,2,0,4,0,6c-0.2,35.5-0.3,66.1-41.9,81.9
				l-1.1,0.4l0.9,0.8c3.3,2.7,7.1,7.3,8.7,10.6l0.3,0.6l0.6-0.2c19.5-7.9,32.6-19.9,39.9-36.8c8.8,18.9,21.7,30,41.9,35.8l0.6,0.2
				l0.3-0.5c1.9-3.9,5.6-9.2,8.3-11.8l0.9-0.9l-1.3-0.3c-23.8-5.4-38-19.6-44.5-44.7L3277.8,3430.2z M3303.7,3445
				c4-6.6,9.4-17.5,14.8-29.9l0.3-0.7l-15.4-5.8l-0.2,0.7c-2.5,9.3-7.4,21.9-11.8,30.1l-0.4,0.7l12.4,5.4L3303.7,3445L3303.7,3445z
				 M3198.6,3459.5l-1.2-1.1v1.6c0,6.1-0.1,10.6-0.3,12.5c0,2-0.3,2.7-0.5,3.1c-0.3,0.2-0.7,0.2-0.9,0.2h-1.5c-0.4,0-0.5,0-0.5-0.1
				s-0.3-0.7-0.3-3.8v-46.2h-41.3v19.9c0,12.1-2,24.5-16.6,33.3l-0.9,0.5l0.8,0.6c2.2,1.8,6.8,6.9,8.4,9.6l0.4,0.6l0.6-0.4
				c14.1-8.7,21.3-23.5,21.3-44.1v-6.9h13.3v33.4c0,8.3,0.9,10.7,3,13c2.1,2.2,5.4,3,7.9,3h5.8c1.7,0,4.8-0.2,7-1.9
				c1.8-1.5,3-3.4,3.8-6.1c0.7-2.9,1.1-10,1.2-15.3v-0.5l-0.5-0.2c-2.7-0.9-6.7-2.8-8.9-4.9L3198.6,3459.5z M3207.4,3405h-31.2
				l6-1.8l-0.2-0.7c-1.2-4-3.8-10.4-6.4-15.5l-0.3-0.5l-13.7,3.6l0.4,0.8c2,4.2,4.1,10,5.4,14.2h-23v13.5h63v-13.5V3405z
				 M3053.6,3430.9h37.4v-14.6h-42c1-9.6,1.1-19.2,1.2-27.7v-0.9h-15.3v4.9c-0.1,7.6-0.2,15.5-1,23.7h-39v14.6h36.6
				c-5.1,21.6-17.7,36.6-38.3,45.8l-1.1,0.5l1,0.7c3.8,2.7,7.4,7.3,9.3,10.6l0.3,0.6l0.6-0.3c19.8-9.5,32.8-24,39.8-44.1
				c9,21.2,22,35.7,39.8,44l0.6,0.3l0.3-0.6c2-3.7,6.2-9.2,9.3-11.8l0.9-0.8l-1.1-0.4C3074.7,3468,3061.2,3452.7,3053.6,3430.9z
				 M3146,3460.2l-2.8-12.6l-0.8,0.3c-1.9,0.7-3.7,1.4-5.6,2.1c-1.6,0.6-3.3,1.2-4.9,1.9v-26.1h11.9v-13.5h-11.9v-23.2h-13.4v23.2
				h-11.7v13.5h11.7v30.9c-5.1,1.9-9.6,3.3-12.6,4.3l-0.6,0.2l3.7,14.6l0.8-0.3c11.3-4.6,24.3-10.1,35.7-15.1L3146,3460.2
				L3146,3460.2z M3236.7,3444.9l0.2,0.8l14.8-6v-0.6c-2.1-8.4-6.9-22.1-10.5-32l-0.2-0.6l-13.9,4.8l0.2,0.7
				c3.5,10.4,7.8,24.5,9.5,32.9L3236.7,3444.9z M3710.6,3459.7h6.6V3420h-34.4v51.2c0,2.8-1.3,4.7-3.8,5.8l-0.8,0.3l0.5,0.7
				c1.6,2.3,3.4,7.3,4,10.2l0.2,1.2l0.9-0.7c2.2-1.7,5.4-3.2,23.8-10l0.2,0.5c1,2.5,1.9,4.6,2.5,6.4l0.3,0.8l10.5-5.3l-0.2-0.6
				c-1.7-4.2-5.1-11.2-10.2-20.8L3710.6,3459.7z M3695.1,3430.6h9.6v4h-9.6V3430.6z M3695.1,3444.8h9.6v4.4h-9.6V3444.8z
				 M3700.3,3463.2l0.4,0.7c0.8,1.5,1.6,3,2.3,4.6l-7.9,2.6v-11.5h13.4L3700.3,3463.2L3700.3,3463.2z M3652.5,3451.9l-1.1-0.8v1.3
				c-1.1,18.3-2.1,21.5-6.6,21.5h-15.6c-4.5,0-5.2-0.5-5.2-6.7v-36.8h37.2v-13.6H3624v-27.2h-13.7v77.3c0,15,4.1,19.5,17.6,19.5
				h17.9c14,0,16.9-8.9,18.3-28.7v-0.6h-0.6c-3.1-0.7-8-3.1-10.9-5.3L3652.5,3451.9z M3590.1,3388.5c-6,15-16.5,30.2-27.4,39.7
				l-0.5,0.4l0.3,0.5c2,3.2,5.5,10.1,6.7,13.1l0.4,1l0.8-0.7c2.9-2.8,5.9-5.9,9.1-9.9v56.4h13.5v-75.8c4.1-6.8,7.5-13.6,10.3-20.3
				l0.3-0.7l-13.2-4.4l-0.2,0.6L3590.1,3388.5z M3768.3,3447.3v-26.8h8.8v-20.8h-21l1.4-0.7l-0.3-0.6c-1.4-3.1-4-7.5-6.2-11.5
				l-0.3-0.5l-12.5,5l0.4,0.7c1.1,2.1,2.6,5,3.8,7.6h-21.8c-3.4-1.9-8.7-4.5-12.9-6.4v-0.2c0.6-0.8,1-1.5,1.4-2.3l0.4-0.7l-11.3-4.1
				l-0.3,0.5c-4.3,7.6-12.4,15.5-21.2,20.7l-0.6,0.3l0.3,0.6c1.5,2.8,4.1,8.9,4.9,11.3l0.3,0.9l0.8-0.5c3.6-2.4,6.9-5.1,9.7-7.7v5.2
				h20.2v-8.2c1.1,0.7,2.2,1.3,3,1.8l0.6,0.4l3.1-5.8v14.7h5.5v68.4h12.5v-3.6h23.3v3.3h12.7V3452h-36v-5h31.3L3768.3,3447.3z
				 M3696.6,3407.8c1.5-1.6,2.8-3.2,4-4.6c3.1,1.5,6.1,3.1,8.8,4.6H3696.6L3696.6,3407.8z M3756,3435.8h-19v-7.8h19V3435.8z
				 M3760.3,3464.2v9H3737v-9H3760.3z M3730.9,3416.5v-5.3h33.8v5.3H3730.9z M3513.9,3456.9c9.1-10.4,16.2-22.6,21.5-37.5h16.6
				v-13.8h-42.7l5.5-1.7l-0.2-0.7c-1.4-4.7-4.8-11.8-7.3-16.3l-0.3-0.5l-15,4.4l0.4,0.8c2.2,4.2,4.4,9.8,5.7,14.1h-45v13.8h17
				c5.9,15.2,13.2,27.6,22.3,37.7c-10.7,8.2-24,14.2-40.8,18.4l-1.1,0.3l0.8,0.9c2.5,2.8,6.2,8.7,7.6,11.7l0.3,0.5l0.6-0.2
				c17.4-5,31.5-12,43.2-21.4c11.4,9.4,25.4,16.4,41.7,20.8h0.5l0.3-0.3c2-3.7,5.7-9.1,8.4-11.7l0.9-0.9l-1.3-0.3
				c-15.4-3.6-28.7-9.7-39.6-17.9L3513.9,3456.9z M3484.9,3419.4h34.7c-3.9,10.8-9.3,19.9-16.5,27.9
				C3495.5,3439.4,3489.4,3430,3484.9,3419.4z M3341.3,3453.9c0,6.9,0,19.6-5.1,28.3l-0.4,0.7l0.7,0.3c2.5,1,7.2,4.3,9.1,6.1
				l0.6,0.6l0.4-0.8c2.8-4.8,4.7-11.3,5.7-19.3l2.1,6l2.1-1.2c4.1-2.2,8.3-4.5,12.6-7v7.5c0,0.7,0,0.8-1.1,0.8c-1,0-4.7,0.1-8.1-0.1
				h-1.3l0.6,1c1.5,2.9,3.4,7.5,3.9,10.9v0.6h0.7c5.7,0,10.7-0.2,14.3-2.2c4.1-2.1,4.9-5.7,4.9-10.8v-43.4h-42v21.9L3341.3,3453.9z
				 M3353.3,3442.5h16v7c-3.3-1.7-8.2-3.7-11.8-5.1l-0.5-0.2l-3.8,4.6v-6.3H3353.3z M3353.3,3454.1v-1.9c4.1,1.8,8.8,4.2,11.5,5.6
				l0.5,0.3l4-5.1v4.5c-6.1,2.3-11.8,4.6-16.3,6C3353.2,3460.3,3353.3,3457,3353.3,3454.1L3353.3,3454.1z M3380.7,3408.5l-4.8-1h9.8
				v-12h-16.2c-0.7-2.6-1.8-5.5-3-8.2l-0.2-0.5l-12.8,3.1l0.3,0.7c0.7,1.8,1.2,3.5,1.7,4.9H3338v12h9.4l-3.9,0.9l0.2,0.7
				c0.7,2.2,1.7,5.1,2.3,7.7h-9.8v12h51v-12h-10.1l3.8-8.4L3380.7,3408.5z M3364.5,3416.9h-6.3c-0.5-2.6-1.6-6.2-2.9-9.4h12
				C3366.7,3410.3,3365.6,3413.6,3364.5,3416.9z M3431.9,3471.1v-7.6h-28v-3h27v-8.7h-27v-3h27.5v-8.8h-27.5v-2.8h27.4V3411h-27.4
				v-4.6h31.6v-11.7h-31.6v-7.2H3390v34.3h27.7v4.5H3390v46.4c0,11.9,3.9,15.5,16.5,15.5h16.2c10.2,0,13.8-3.6,15-14.9v-0.6h-0.6
				C3435.7,3472.3,3433.8,3471.7,3431.9,3471.1L3431.9,3471.1z M3421.6,3476.7h-13.4c-3.9,0-4.3-0.4-4.3-3.9v-0.5h21.4
				C3424.7,3476.3,3423.7,3476.7,3421.6,3476.7z"/>
			<path class="st36" d="M3040.3,3653.9v-12.8h-44.9v58.6h14v-22.1h27.3v-12.8h-27.3V3654h31L3040.3,3653.9z M3174.7,3687h-31v-10.6
				h27v-12.6h-27v-10.2h30.6V3641h-44.5v58.6h44.9V3687L3174.7,3687z M3008.6,3595.4h14v-45.6h17.4v-13h-48.8v13h17.4L3008.6,3595.4
				L3008.6,3595.4z M3227.6,3641.1h-23v58.6h23c18,0,31.1-12.3,31.1-29.5S3245.6,3641.1,3227.6,3641.1z M3227.6,3686.9h-9v-33.1h9
				c9.9,0,16.5,6.6,16.5,16.7S3237.5,3686.9,3227.6,3686.9L3227.6,3686.9z M3048.2,3595.4l5.2-12.8h23.2l5.2,12.8h14.7l-24.9-58.6
				l-0.2-0.4h-12.5l-25.1,59H3048.2L3048.2,3595.4z M3065,3554.1l6.5,16h-13.1l6.5-16H3065z M3475,3700.6
				c17.5,0,31.2-13.3,31.2-30.4s-13.3-30.1-31-30.1s-31.2,13.3-31.2,30.3v0.2c0,17.2,13.3,30.1,31,30.1V3700.6z M3475,3653.1
				c9.5,0,16.6,7.4,16.6,17.3v0.2c0,9.8-7.1,17.1-16.5,17.1s-16.6-7.4-16.6-17.4s7.1-17.1,16.4-17.1L3475,3653.1z M3361.3,3596.4
				c9.3,0,17.6-3.1,24.9-9.2l0.3-0.2v-25.9h-26.2v12.3h12.7v7.1c-3,2-6.8,3.1-11.1,3.1c-9.6,0-16.6-7.3-16.6-17.6s7-17.1,15.7-17.1
				s10.2,2.1,14.5,5.6l0.5,0.5l8.8-10.6l-0.5-0.5c-6.7-5.7-13.3-8-22.9-8c-17.2,0-30.7,13.3-30.7,30.3v0.2
				c0,17.4,12.9,30.1,30.8,30.1L3361.3,3596.4z M3222.5,3582.6h23.2l5.2,12.8h14.7l-24.9-58.6l-0.2-0.4H3228l-25.1,59h14.4
				L3222.5,3582.6L3222.5,3582.6z M3234.1,3554.1l6.5,16h-13.1l6.5-16H3234.1z M3527.9,3664.7l26.6,35h11.8v-58.6h-13.8v33.8
				l-25.7-33.8h-12.7v58.6h13.8L3527.9,3664.7L3527.9,3664.7z M3345.1,3640.7l-25.1,59h14.4l5.2-12.8h23.2l5.2,12.8h14.7l-24.9-58.6
				l-0.2-0.4H3345.1L3345.1,3640.7z M3344.7,3674.4l6.5-16l6.5,16h-13.1H3344.7z M3280.6,3681.4h8.8l12.2,18.3h16.4l-14.2-20.8
				c7.7-3.2,11.9-9.6,11.9-18.2s-1.8-10.2-5.1-13.6c-3.9-3.9-9.9-6-17.2-6h-26.8v58.6h14L3280.6,3681.4L3280.6,3681.4z
				 M3280.6,3653.9h11.8c3.4,0,9.2,1,9.2,7.6s-3.4,7.4-8.9,7.4h-12v-15H3280.6z M3284.2,3560.5l26.6,35h11.8v-58.6h-13.8v33.8
				l-25.7-33.8h-12.7v58.6h13.8L3284.2,3560.5L3284.2,3560.5z M3115.5,3536.9h-14v58.6h14V3536.9z M3474.1,3785.4
				c-4.5,4.1-8.4,6.5-14.6,6.5c-9,0-15.9-7.4-15.9-17.4s6.8-17.1,15.9-17.1s9.4,1.9,14.1,6.3l0.5,0.5l8.9-10.3l-0.5-0.5
				c-6.3-6.2-13.4-9-23-9c-17.4,0-30.5,13-30.5,30.3v0.2c0,17.2,12.9,30.1,30,30.1s17-3,24-10.4l0.5-0.5l-9-9l-0.5,0.5
				L3474.1,3785.4z M3437.7,3691.2v-25.9h-26.2v12.3h12.7v7.1c-3,2-6.8,3.1-11.1,3.1c-9.6,0-16.6-7.3-16.6-17.6s7-17.1,15.7-17.1
				s10.2,2.1,14.5,5.6l0.5,0.5l8.8-10.6l-0.5-0.5c-6.7-5.7-13.3-8-22.9-8c-17.2,0-30.7,13.3-30.7,30.3v0.2
				c0,17.4,12.9,30.1,30.8,30.1s17.6-3.1,24.9-9.2l0.2-0.2L3437.7,3691.2z M3503.3,3780.7h27v-12.6h-27v-10.2h30.6v-12.6h-44.5v58.6
				h44.9v-12.6h-31V3780.7L3503.3,3780.7z M3370.7,3780.7h27v-12.6h-27v-10.2h30.6v-12.6h-44.5v58.6h44.9v-12.6h-31V3780.7
				L3370.7,3780.7z M3581.4,3779.1l-25.7-33.8H3543v58.6h13.8v-35l26.6,35h11.8v-58.6h-13.8L3581.4,3779.1L3581.4,3779.1z
				 M3031.1,3767.9h-21.8v-22.6h-14v58.6h14v-23h21.8v23h14v-58.6h-14V3767.9z M3704,3764.8c0-5.5-1.8-10.2-5.1-13.6
				c-3.9-3.9-9.9-6-17.2-6h-26.8v58.6h14v-18.3h8.8l12.2,18.3h16.4l-14.2-20.8C3699.8,3779.8,3704,3773.4,3704,3764.8L3704,3764.8z
				 M3680.9,3773h-12v-15h11.8c3.4,0,9.2,1,9.2,7.6s-3.4,7.4-8.9,7.4H3680.9z M3321,3781.8h12.7v7.1c-3,2-6.8,3.1-11.1,3.1
				c-9.6,0-16.6-7.3-16.6-17.6s7-17.1,15.7-17.1s10.2,2.1,14.5,5.6l0.5,0.5l8.8-10.6l-0.5-0.5c-6.7-5.7-13.3-8-22.9-8
				c-17.2,0-30.7,13.3-30.7,30.3v0.2c0,17.4,12.9,30.1,30.8,30.1s17.6-3.1,24.9-9.2l0.3-0.2v-25.9h-26.2v12.3L3321,3781.8z
				 M3600.6,3758.3h17.4v45.6h14v-45.6h17.4v-13h-48.8L3600.6,3758.3L3600.6,3758.3z M3726.2,3791.3v-10.6h27v-12.6h-27v-10.2h30.6
				v-12.6h-44.5v58.6h44.9v-12.6L3726.2,3791.3L3726.2,3791.3z M3267.1,3744.9h-12.5l-25.1,59h14.4l5.2-12.8h23.2l5.2,12.8h14.7
				l-24.9-58.6L3267.1,3744.9L3267.1,3744.9z M3254.1,3778.6l6.5-16l6.5,16H3254H3254.1z M3109.4,3678.9c7.7-3.2,11.9-9.6,11.9-18.2
				s-1.8-10.2-5.1-13.6c-3.9-3.9-9.9-6-17.2-6h-26.8v58.6h14v-18.3h8.8l12.2,18.3h16.4L3109.4,3678.9L3109.4,3678.9z M3098.2,3668.9
				h-12v-15h11.8c3.4,0,9.2,1,9.2,7.6s-3.4,7.4-8.9,7.4H3098.2z M3158.7,3764.9c0-5.5-1.8-10.2-5.1-13.6c-3.9-3.9-9.9-6-17.2-6
				h-26.8v58.6h14v-18.3h8.8l12.2,18.3h16.4l-14.2-20.8C3154.5,3779.9,3158.7,3773.5,3158.7,3764.9L3158.7,3764.9z M3135.6,3773.1
				h-12v-15h11.8c3.4,0,9.2,1,9.2,7.6s-3.4,7.4-8.9,7.4H3135.6z M3061.1,3641.1h-14v58.6h14V3641.1z M3069.8,3780.7h27v-12.6h-27
				v-10.2h30.6v-12.6h-44.5v58.6h44.9v-12.6h-31V3780.7L3069.8,3780.7z M3235.7,3745.3h-48.8v13h17.4v45.6h14v-45.6h17.4
				L3235.7,3745.3L3235.7,3745.3z M3198.2,3595.4v-58.6h-14v22.6h-21.8v-22.6h-14v58.6h14v-23h21.8v23H3198.2z M3167.3,3803.9h14
				v-58.6h-14V3803.9z"/>
			<g>
				<path class="st36" d="M3063.8,3015.1h37.3v-37.3h-37.3V3015.1z M3511.1,3015.1h37.3v-37.3h-37.3V3015.1z M3399.3,3015.1h37.3
					v-37.3h-37.3V3015.1z M3622.9,3015.1h37.3v-37.3h-37.3V3015.1z M3734.7,2977.8v37.3h37.3v-37.3H3734.7z"/>
				<polygon class="st36" points="3734.7,3033.7 3734.7,3276 3660.1,3276 3660.1,3033.7 3622.9,3033.7 3622.9,3276 3548.3,3276 
					3548.3,3033.7 3511,3033.7 3511,3276 3436.5,3276 3436.5,3033.7 3399.2,3033.7 3399.2,3276 3324.7,3276 3324.7,2977.8 
					3212.9,2977.8 3175.6,3015.1 3175.6,3276 3101,3276 3101,3033.7 3063.8,3033.7 3063.8,3276 2989.2,3276 2989.2,3313.3 
					3175.6,3313.3 3212.9,3276 3212.9,3015.1 3287.4,3015.1 3287.4,3313.3 3734.7,3313.3 3771.9,3276 3771.9,3033.7 				"/>
			</g>
		</g>
	</g>
</g>
<g id="e">
</g>
</svg>
