<?xml version="1.0" encoding="UTF-8"?>
<svg width="43px" height="24px" viewBox="0 0 43 24" version="1.1" xmlns="http://www.w3.org/2000/svg" xmlns:xlink="http://www.w3.org/1999/xlink">
    <!-- Generator: Sketch 60.1 (88133) - https://sketch.com -->
    <title>Group 11</title>
    <desc>Created with Sketch.</desc>
    <defs>
        <polygon id="path-1" points="0 0 43 0 43 14 0 14"></polygon>
        <polygon id="path-3" points="-1.72176425e-15 0 40 0 40 9 -1.72176425e-15 9"></polygon>
    </defs>
    <g id="Page-1" stroke="none" stroke-width="1" fill="none" fill-rule="evenodd">
        <g id="contact" transform="translate(-103.000000, -1567.000000)">
            <g id="Group-11" transform="translate(103.000000, 1567.000000)">
                <g id="Group-7">
                    <g id="Group-3" transform="translate(0.000000, 10.000000)">
                        <mask id="mask-2" fill="white">
                            <use xlink:href="#path-1"></use>
                        </mask>
                        <g id="Clip-2"></g>
                        <path d="M31.5331069,9.58883576 C30.7520165,9.59120801 30.1190179,10.2338005 30.108951,11.0347381 C30.0987629,11.8433939 30.7584447,12.5294317 31.5429312,12.5262065 C32.3154103,12.5229585 32.9526539,11.8679174 32.9619931,11.0676022 C32.971696,10.2451287 32.3351801,9.58635309 31.5331069,9.58883576 M8.58966632,11.0322484 C8.58178264,10.2245886 7.95703156,9.5895897 7.16999803,9.58921609 C6.37241249,9.58884279 5.72061433,10.2616852 5.73516882,11.0703409 C5.74948072,11.8660502 6.39460807,12.5224605 7.16502524,12.5253327 C7.95363552,12.5281868 8.59767128,11.8532282 8.58966632,11.0322484 M29.4401726,1.47664162 C28.8539909,1.47664162 28.2678092,1.47975375 27.6816275,1.47527228 C27.3853225,1.47303155 27.2379584,1.62664626 27.2352901,1.91931092 C27.2289832,2.59377162 27.2308025,3.26848129 27.2337134,3.94294199 C27.2350475,4.25577324 27.3889612,4.42196095 27.6992142,4.42196095 C28.8296122,4.42196095 29.9601314,4.42258338 31.0906507,4.42121404 C31.3805275,4.42084059 31.5304386,4.26523411 31.5317728,3.96871042 C31.5349262,3.29424972 31.5327431,2.61966453 31.5339582,1.94507935 C31.5346837,1.59664533 31.3578467,1.46568693 31.0312199,1.47253361 C30.501073,1.48386176 29.9705622,1.47564574 29.4401726,1.47664162 M23.68618,1.47614368 C23.1137038,1.47614368 22.5412275,1.47975375 21.9688726,1.47464986 C21.6572854,1.47191118 21.5022802,1.6170609 21.5031292,1.94059788 C21.5050698,2.60111624 21.5071317,3.2616346 21.5020043,3.92202848 C21.4993693,4.26386478 21.6568003,4.42333029 21.9856102,4.42283351 C23.1025453,4.42121404 24.2196017,4.42258338 25.3365368,4.42183647 C25.6415745,4.4215875 25.8004609,4.27693572 25.7976713,3.9486683 C25.7918495,3.28827443 25.7899089,2.62763158 25.7986416,1.96723771 C25.8032505,1.62104443 25.6533394,1.469297 25.3197992,1.47377846 C24.7753403,1.48124757 24.2307602,1.47577022 23.68618,1.47614368 M17.9264869,1.47589471 C17.3679587,1.47589471 16.8094305,1.48149654 16.2510236,1.47377846 C15.9148151,1.46904802 15.7696342,1.62689523 15.7736366,1.96960293 C15.7812777,2.6299968 15.7792159,3.29063965 15.7749708,3.95115801 C15.7729089,4.27830506 15.9333721,4.42196095 16.2388949,4.42196095 C17.3559513,4.42196095 18.4728864,4.42121404 19.5899427,4.42258401 C19.9194804,4.42295683 20.0752134,4.2586364 20.0732728,3.91953877 C20.0693916,3.27333621 20.0670871,2.62713364 20.0741218,1.98105557 C20.0781243,1.6136998 19.9096562,1.46556244 19.5601061,1.4726581 C19.0157685,1.48386176 18.471067,1.47564574 17.9264869,1.47589471 M12.181227,1.47552125 C11.6367681,1.47552125 11.0920667,1.48610249 10.5479717,1.4717867 C10.1929636,1.46245031 10.0312876,1.620422 10.0330918,1.98030865 C10.0362604,2.62626225 10.0350475,3.27221584 10.0338347,3.91829392 C10.0332282,4.28067028 10.2109142,4.42793624 10.5575534,4.42544654 C11.6463498,4.41772846 12.7352675,4.41884882 13.824064,4.42469963 C14.1727651,4.42656691 14.3420822,4.26598102 14.341116,3.90783716 C14.3394139,3.26175909 14.3402629,2.61580549 14.3405055,1.96972741 C14.340748,1.63710302 14.1960522,1.46730523 13.8563264,1.47315604 C13.2980408,1.48286588 12.7395126,1.47577022 12.181227,1.47552125 M6.17228838,4.42270786 C6.80067808,4.42270786 7.42931035,4.4148653 8.05757877,4.42569551 C8.42131949,4.43204425 8.6042208,4.28689453 8.59815643,3.89526416 C8.58821087,3.26350188 8.58966632,2.63136614 8.59791386,1.99960386 C8.60264406,1.64544352 8.4691067,1.46967045 8.10488083,1.47240912 C6.94573774,1.48137206 5.78659465,1.48137206 4.62745156,1.47216015 C4.29342623,1.46942148 4.15697797,1.62963391 4.11064621,1.95267294 C4.02125744,2.57696612 3.90639833,3.19727576 3.80633628,3.81995063 C3.73768764,4.24730825 3.86588836,4.41424287 4.28687671,4.42021816 C4.91526641,4.42918109 5.5437774,4.42258338 6.17228838,4.42270786 M37.9832889,6.25687249 C37.9832889,7.65322274 37.9811057,9.04957299 37.9843804,10.4459232 C37.9855933,10.943864 38.0932965,11.0501743 38.5788097,11.056523 C38.8728102,11.0603821 39.1668107,11.0581414 39.4606899,11.0571455 C40.0605771,11.0549047 40.1440228,10.9718731 40.1442654,10.3658793 C40.1449931,7.94738122 40.1445079,5.52888316 40.1445079,3.11050959 C40.1445079,2.73618266 40.1392926,2.36185573 40.1457208,1.98765328 C40.1519065,1.62453001 39.9893814,1.46120546 39.6347373,1.47315604 C39.2850659,1.48485764 38.934788,1.47328052 38.5848741,1.47577022 C38.0651578,1.47962927 37.9848656,1.56178948 37.9840166,2.11089361 C37.9817121,3.49292806 37.9831676,4.87483803 37.9832889,6.25687249 M-2.42574679e-05,6.24280567 C0.636370406,5.80374644 1.28416608,5.38062132 1.9017612,4.91529572 C2.07107833,4.78769841 2.21577412,4.54744201 2.25883113,4.33482133 C2.41286605,3.57558622 2.52093307,2.80626782 2.64125011,2.03993706 C2.70541111,1.63062979 2.58776239,1.49021051 2.17781119,1.47664162 C1.92613996,1.46830111 1.67204299,1.48921462 1.42304008,1.46095649 C0.975368516,1.41016654 0.717632922,1.10716961 0.736796322,0.692758449 C0.754989423,0.295277273 1.02170028,0.0383398638 1.45712182,0.00684511356 C1.59648097,-0.00336267111 1.73681043,0.000869824973 1.87677601,0.000869824973 C15.1999475,0.000620854615 28.5231191,0.000620854615 41.8462906,0.00174122122 C42.0418058,0.00174122122 42.2414447,-0.00585237469 42.4319871,0.030123842 C42.7776561,0.0953540758 42.9715945,0.341461274 42.9925772,0.68989529 C43.0138025,1.04069452 42.847275,1.31991478 42.5080343,1.40643198 C42.2271328,1.47813544 41.9282808,1.47527228 41.6061417,1.5087588 L41.6061417,11.0623739 C41.8378005,11.0623739 42.0584221,11.0504233 42.2774671,11.064988 C42.7019728,11.0933707 42.9815401,11.3693543 42.999248,11.757997 C43.0164708,12.1348137 42.7484258,12.4462756 42.3354424,12.5128752 C42.1983877,12.5350335 42.0567241,12.5311745 41.9171224,12.5311745 C39.4260017,12.5321704 36.9348811,12.5359049 34.4437605,12.5263196 C34.1575224,12.5253237 33.9680715,12.5901805 33.7792271,12.8426364 C32.6137771,14.4004439 30.4232065,14.3818956 29.2680659,12.8100213 C29.114031,12.6002638 28.9632708,12.526693 28.7160872,12.526942 C22.4743982,12.5332907 16.2325879,12.5332907 9.99089894,12.5268175 C9.74371534,12.5265685 9.59416805,12.5986454 9.4395267,12.8085275 C8.27128706,14.3935972 6.05961244,14.3952155 4.89913519,12.8131334 C4.745828,12.6041228 4.596402,12.5238299 4.34764167,12.5265685 C3.24222887,12.5388926 2.1364522,12.5222115 1.0310394,12.5366518 C0.594041125,12.5423781 0.237456351,12.4283497 -2.42574679e-05,12.0302461 C-2.42574679e-05,10.1010993 -2.42574679e-05,8.17195248 -2.42574679e-05,6.24280567" id="Fill-1" fill="#E63278" mask="url(#mask-2)"></path>
                    </g>
                    <g id="Group-6" transform="translate(1.000000, 0.000000)">
                        <mask id="mask-4" fill="white">
                            <use xlink:href="#path-3"></use>
                        </mask>
                        <g id="Clip-5"></g>
                        <path d="M33.624728,7.49817818 C34.1699408,7.49817818 34.7152747,7.49615547 35.2604874,7.4989367 C35.5785282,7.50058015 35.7672929,7.36429998 35.76693,7.00893488 C35.7663237,6.33650979 35.766566,5.66421112 35.7668083,4.99178603 C35.76693,4.66815222 35.6095447,4.50178422 35.3034986,4.50089928 C34.1850855,4.49799163 33.0666725,4.49963508 31.9481382,4.49887628 C31.6189509,4.49862373 31.4647163,4.66600309 31.4677452,5.01264524 C31.4734397,5.67027925 31.4747724,6.32816611 31.4672606,6.98580012 C31.4628989,7.36632269 31.6497251,7.50399348 31.9889686,7.50007447 C32.5341814,7.49362708 33.0795153,7.4983046 33.624728,7.49817818 M27.8863033,7.49868386 C28.4316372,7.49868386 28.9768499,7.49451202 29.5220627,7.50020089 C29.8682122,7.50386706 30.0373493,7.34672767 30.032503,6.97366385 C30.024143,6.33056808 30.0224468,5.68721946 30.0333511,5.0442501 C30.0400148,4.64868362 29.8610638,4.49356695 29.4975887,4.49557016 C28.4210964,4.5016578 27.344483,4.50089928 26.2679907,4.49609534 C25.9053636,4.49457831 25.7241107,4.65462534 25.729684,5.04791627 C25.7385285,5.67634739 25.7410728,6.30515777 25.7287147,6.93333605 C25.7203548,7.35203729 25.9116639,7.50955593 26.2924647,7.50197076 C26.823623,7.49135153 27.3550237,7.49931596 27.8863033,7.49868386 M22.1670215,7.49855744 C22.7122343,7.49855744 23.2575682,7.49628189 23.8029021,7.49931596 C24.1495363,7.50121225 24.3100711,7.34053312 24.3019535,6.96456165 C24.287778,6.30705406 24.2918974,5.64904079 24.3003784,4.99128035 C24.304619,4.65664805 24.1477189,4.50191063 23.8451864,4.50077286 C22.7266521,4.49660102 21.6081179,4.49786521 20.4895837,4.49938225 C20.1660908,4.49988792 20.0032539,4.66094631 20.0074944,5.01289808 C20.0153697,5.65586744 20.0200949,6.29946889 20.0056771,6.94218541 C19.9968325,7.33686695 20.1646369,7.50424631 20.531141,7.50032731 C21.0763537,7.49463844 21.6216876,7.49881028 22.1670215,7.49855744 M16.4147848,7.4983046 C16.9602398,7.4983046 17.5055737,7.49362708 18.0509076,7.49994805 C18.4142616,7.50411989 18.5917587,7.34508422 18.5835199,6.94787428 C18.5706771,6.31944317 18.5706771,5.69037995 18.5836411,5.06207525 C18.5916375,4.67232406 18.4289218,4.49622176 18.0606003,4.49735406 C16.9699325,4.50077286 15.8791435,4.49988792 14.7884757,4.49786521 C14.4443859,4.49723311 14.2767027,4.65222337 14.2843357,5.02971187 C14.2974208,5.67268122 14.2994805,6.3164091 14.2836087,6.95925204 C14.2736737,7.36657553 14.4629231,7.50538409 14.8207038,7.50045373 C15.3519834,7.49324782 15.8835052,7.49868386 16.4147848,7.4983046 M10.708467,7.49881028 C11.2538009,7.49881028 11.7991348,7.49539695 12.3444687,7.49994805 C12.6913452,7.50284541 12.8596342,7.33749905 12.8563629,6.9687335 C12.8504261,6.32563772 12.8493357,5.6822891 12.8567264,5.03919333 C12.8613304,4.64248907 12.6699001,4.49407263 12.3104232,4.49609534 C11.2338098,4.50203705 10.1570752,4.50266915 9.08046173,4.49594657 C8.71032285,4.49369337 8.54409354,4.66511815 8.54954567,5.05259379 C8.55839023,5.68102491 8.56057108,6.30996171 8.54881872,6.93826641 C8.54082226,7.35759974 8.73310063,7.51145222 9.11450723,7.50247644 C9.64554445,7.49008734 10.1771875,7.49944237 10.708467,7.49881028 M4.50394593,7.4989367 C5.17431529,7.4989367 5.84468465,7.50247644 6.51505401,7.49779892 C7.03106759,7.49413276 7.11078981,7.41398282 7.11478804,6.89806502 C7.11951321,6.28493065 7.10376262,5.67129061 7.11987669,5.05840908 C7.13102326,4.63338687 6.93511015,4.49255559 6.55794408,4.4952104 C5.412755,4.50330125 4.26744475,4.50254273 3.12225567,4.49533682 C2.79997436,4.49331411 2.59788217,4.61530889 2.50737685,4.95461871 C2.33896669,5.58633673 2.14523443,6.21046959 1.97331067,6.84117626 C1.84318657,7.31866255 1.96701044,7.4898345 2.45079588,7.49628189 C3.13509846,7.50538409 3.81952219,7.49855744 4.50394593,7.4989367 M39.9787585,8.99953565 L39.5314417,8.99953565 C26.6126863,8.99953565 13.6939308,8.99953565 0.775175373,8.99953565 C0.705266984,8.99953565 0.635358594,9.00079984 0.565450204,8.99915639 C0.0382900566,8.98651445 -0.0914705772,8.81369905 0.0577965571,8.29019608 C0.508263444,6.71033213 0.934377496,5.12161881 1.43330774,3.55844223 C1.66484142,2.83355306 1.98058018,2.11865103 2.36925629,1.47226835 C2.97940993,0.457372953 3.9345015,0.0136406594 5.07399614,0.00466487796 C5.60527568,0.000493035883 6.13655521,0.00377994176 6.66783474,0.00377994176 C16.2730294,0.00377994176 25.8782241,0.00744610601 35.4834188,-1.44495674e-05 C37.0088029,-0.00115041706 38.2925972,0.53474166 39.1810517,1.84533217 C39.5419825,2.37793734 39.9066693,3.03531852 39.9428956,3.65667015 C40.0452745,5.4132685 39.9787585,7.18073892 39.9787585,8.99953565" id="Fill-4" fill="#E63278" mask="url(#mask-4)"></path>
                    </g>
                </g>
            </g>
        </g>
    </g>
</svg>