<?xml version="1.0" encoding="UTF-8"?><svg xmlns="http://www.w3.org/2000/svg" viewBox="0 0 100.6 100.6"><defs><style>.e{fill:#fff;}.f{fill:#ff9600;}</style></defs><g id="a"/><g id="b"><g id="c"><g><rect class="f" width="100.6" height="100.6"/><g id="d"><path class="e" d="M90.1,40.9v5.1c0,0,0,.1-.1,.2-.8,2.8-2.5,4-5.4,4-.4,0-.8,0-1.2,0v1c0,7.8,0,15.7,0,23.5,0,4.1-2.2,7.1-6.1,8.3-.4,.1-.5,.3-.6,.7-.1,1.1-.1,2.3-.5,3.3-.6,1.6-2,2.4-3.6,2.9h-8.2c0,0-.2-.1-.3-.1-2.6-.8-3.9-2.5-3.9-5.2,0-.4,0-.9,0-1.3h-19.9c0,.4,0,.7,0,1-.2,1-.2,2-.6,2.9-.6,1.6-2.1,2.3-3.6,2.8h-8.2c-1.6-.5-3-1.3-3.6-2.9-.4-1-.4-2.2-.5-3.3,0-.4,0-.6-.5-.7-4.1-1.3-6.1-4.2-6.1-8.5,0-7.8,0-15.6,0-23.4v-1c-.6,0-1,0-1.5,0-3,0-5.1-2.1-5.2-5.1,0-1.1,0-2.1,0-3.2,0-3.7,2.4-6.8,5.9-7.9,.6-.2,.7-.4,.7-1,0-4.6,0-9.2,0-13.8,0-.6,0-1.3,.1-1.9,.8-4.1,4.1-6.9,8.5-6.9,16.3,0,32.7,0,49,0,5.3,0,8.8,3.5,8.8,8.8,0,4.6,0,9.2,0,13.8,0,.6,.1,.9,.8,1.1,1.6,.4,2.9,1.4,3.9,2.6,1.1,1.2,1.6,2.7,1.9,4.3Zm-39.7-10.6c-7,0-14.1,0-21.1,0-3.4,0-5.5,2.1-5.5,5.5,0,5.2,0,10.4,0,15.6,0,3.4,2.1,5.5,5.5,5.5,14,0,28.1,0,42.1,0,.6,0,1.2,0,1.8-.2,2.4-.6,3.7-2.6,3.7-5.3,0-5.2,0-10.4,0-15.6,0-.6,0-1.2-.2-1.8-.6-2.3-2.5-3.7-5.1-3.7-7,0-14.1,0-21.1,0Zm-.1-3.3h.5c5.8,0,11.6,0,17.3,0,4.5,0,6.6-4.4,4.7-7.5-1.1-1.8-2.7-2.4-4.7-2.4-11.8,0-23.7,0-35.5,0-.3,0-.6,0-.9,0-3.5,.2-5.7,4.1-4,7.2,1,1.9,2.7,2.7,4.9,2.7,5.9,0,11.8,0,17.7,0Zm-18.2,46.4c2.7,0,4.9-2.2,4.9-5,0-2.7-2.3-5-5-5-2.8,0-5,2.3-4.9,5,0,2.7,2.3,4.9,5,4.9Zm36.5,0c2.7,0,4.9-2.2,4.9-5,0-2.7-2.3-5-5-5-2.7,0-4.9,2.3-4.9,5,0,2.7,2.3,5,5,5Z"/></g></g></g></g></svg>