<?xml version="1.0" encoding="utf-8"?>
<!-- Generator: Adobe Illustrator 25.4.0, SVG Export Plug-In . SVG Version: 6.00 Build 0)  -->
<svg version="1.1" id="Layer_1" xmlns="http://www.w3.org/2000/svg" xmlns:xlink="http://www.w3.org/1999/xlink" x="0px" y="0px"
	 viewBox="0 0 1000.3 173.3" style="enable-background:new 0 0 1000.3 173.3;" xml:space="preserve">
<style type="text/css">
	.st0{fill:none;stroke:#000000;stroke-width:0.508;stroke-miterlimit:10;}
	.st1{fill:#E63278;}
</style>
<g>
	<g>
		<path d="M477.3,28.4c4.6,13.5,13,24.4,25.9,29.7c-2.1,1.7-4.8,5.4-6.1,7.8c-12.5-5.9-20.6-16-26-29.4
			c-3.7,11.6-11.2,22.4-25.9,29.5c-1.3-2.3-3.7-5.3-6.2-7c15.9-7.1,22.5-18.6,25.2-30.5h-23.8v-8.5h25.2c0.7-6.5,0.6-12.8,0.7-18.5
			h9c-0.1,5.7-0.1,12.1-0.8,18.5h27.2v8.5H477.3z"/>
		<path d="M546.3,47.5c-7.9,3.5-16.3,7-23.1,9.8l-2.1-8.5c2.4-0.8,5.3-1.7,8.5-2.9V25H522v-7.8h7.6V2.1h7.8v15.1h7.7V25h-7.7v18
			c2.5-1,4.9-1.9,7.4-2.8L546.3,47.5z M579,58.3c0.3,0,0.6-0.1,0.9-0.3c0.2-0.3,0.3-0.9,0.4-2.3c0.1-1.2,0.2-4.3,0.2-8.1
			c1.5,1.3,4,2.6,6,3.3c-0.1,3.7-0.3,8-0.8,9.9c-0.5,1.7-1.2,2.8-2.3,3.7c-1.1,0.8-2.8,1.1-4.2,1.1h-3.7c-1.7,0-3.6-0.6-4.8-1.8
			c-1.2-1.4-1.8-2.8-1.8-8.1V33.5h-9.5v4.9c0,9.2-2.2,21.2-13.6,28.2c-1-1.7-4-5.1-5.5-6.3c9.9-6,11-14.8,11-22V25.9h25.9v29.5
			c0,1.5,0.1,2.4,0.2,2.6c0.2,0.3,0.4,0.3,0.8,0.3H579z M586.1,20.3h-39.9v-7.8h15c-0.8-2.8-2.3-6.9-3.7-9.9l8-2.1
			c1.5,3.1,3.3,7.3,4.1,10l-6.4,1.9h22.8V20.3z"/>
		<path d="M642.2,1.7c-0.1,9.2-0.1,18.1-1.5,26.6c3.9,15.3,12.4,25.6,29.2,29.4c-1.9,1.8-4.3,5.3-5.5,7.8c-13.9-4-22-12-27.2-23.9
			c-4.2,10.2-11.8,18.8-26,24.6c-1-2.2-3.5-5.2-5.8-7c28.8-10.9,27.2-33.2,27.4-57.4H642.2z M615,37.8c-1.1-5.4-3.9-14.5-6.2-21.4
			l8.2-2.8c2.4,6.6,5.5,15.3,6.7,20.7L615,37.8z M667.1,18.3c-3,6.8-6.7,14.5-9.6,19.4l-7.2-3.1c2.8-5.2,6-13.4,7.7-19.6L667.1,18.3
			z"/>
		<path d="M713.6,20.2h6.8v6.9h-32.1v-6.9h6.4c-0.4-1.9-1.1-4-1.7-5.6l5.9-1.4h-9.6V6.4h11.5c-0.3-1.3-0.8-2.7-1.2-3.8l7.4-1.8
			c0.8,1.7,1.5,3.8,2,5.6h10.4v6.9h-10.1l6.7,1.5L713.6,20.2z M717.9,57.7c0,3.5-0.6,5.4-2.9,6.6c-2.2,1.2-5.2,1.4-9.1,1.4
			c-0.3-2.2-1.5-5.3-2.6-7.2c2.2,0.1,4.6,0.1,5.3,0.1c0.8,0,1.1-0.2,1.1-1v-5.6c-3.4,1.9-6.7,3.7-9.8,5.4l-1.9-5.3
			c-0.5,5.1-1.6,10.3-3.9,14.3c-1.2-1.2-4.4-3.3-6-4c3.2-5.4,3.4-12.8,3.4-18.6V30h26.3V57.7z M698.5,43.9c0,2-0.1,4.4-0.2,6.7
			c3-1,7.2-2.6,11.5-4.2v-4.5l-3.2,4c-1.9-1-5.3-2.8-8.1-4V43.9z M698.5,35.9v5.8l3-3.7c2.6,1,6.2,2.5,8.2,3.6v-5.8H698.5z
			 M699.6,13.2c0.9,2.2,1.8,5.1,2.1,7h4.8c0.8-2.2,1.7-4.9,2.1-7H699.6z M753.1,56.3c-0.8,7.1-3,9.2-9.3,9.2h-10.5
			c-7.8,0-10.3-2-10.3-9.6V26.3h18v-3.8h-18V1.2h8.1v4.6h20.4v6.7h-20.4v3.9H749v16.1h-17.7v2.7h17.8V40h-17.8v2.8h17.5v4.7h-17.5
			v2.8h18.2v4.8C750.7,55.7,752.1,56.1,753.1,56.3z M743.2,59c1.9,0,2.6-0.8,2.9-3.7h-14.8V56c0,2.6,0.5,3,3.3,3H743.2z"/>
		<path d="M825.6,20.9c-3.5,10-8.2,18.1-14.3,24.8c7.1,5.6,15.9,9.6,26.2,12c-1.9,1.8-4.3,5.4-5.5,7.7c-10.9-2.9-19.8-7.5-27.1-13.6
			c-7.6,6.2-16.9,10.8-28.1,14c-0.9-1.9-3.3-5.8-5-7.7c10.8-2.7,19.8-6.7,27-12.3c-6.2-6.9-11-15.2-14.8-25h-10.9v-8h29.2
			c-0.8-2.8-2.3-6.7-3.9-9.8l8.8-2.6c1.8,3.2,3.9,7.6,4.7,10.5l-6,1.9h30.1v8H825.6z M792.6,20.9c3,7.3,7.1,13.7,12.5,19.2
			c4.8-5.3,8.6-11.6,11.3-19.2H792.6z"/>
		<path d="M878.3,4.1c-1.9,4.4-4.2,8.9-6.7,13.2V66h-7.8V28.6c-2.2,2.8-4.4,5.2-6.7,7.4c-0.8-2-3-6.5-4.4-8.6
			c7.1-6.1,13.9-16,17.9-25.9L878.3,4.1z M905.6,57.1c3.5,0,4.1-2.9,4.7-14.4c1.9,1.5,5.1,3.1,7.3,3.5c-0.9,13.4-3,18.2-11.4,18.2
			h-11.6c-8.5,0-11-2.8-11-12.2V2.5h8v17.6h24.1v7.9h-24.1v24.3c0,4.1,0.5,4.8,3.8,4.8H905.6z"/>
		<path d="M973.8,39v4.2h23.3v22.6h-7.3v-2.2h-16V66h-7.2V21.6h-3.5V10.7l-2.6,4.9c-2.2-1.5-6.3-3.7-9.8-5.4c-1.1,1.3-2.3,2.7-3.5,4
			h10.7v5.4h-12.2v-4c-2.3,2.1-4.6,4-7,5.6c-0.5-1.6-2.2-5.6-3.2-7.4c5.3-3.1,10.8-8.2,13.9-13.6l6.4,2.4c-0.3,0.7-0.8,1.3-1.2,2
			c3.1,1.4,6.7,3.1,8.9,4.4h15c-0.8-1.9-1.9-3.9-2.8-5.6l7.3-2.9c1.3,2.3,3,5.3,4,7.4l-2.4,1.1h15.2v12.6h-5.7V39H973.8z
			 M956.8,47.6c2.3,4.3,5.3,10.1,6.7,13.5l-6,3c-0.5-1.4-1.2-3.1-1.9-4.9c-12.3,4.6-14.5,5.6-15.9,6.7c-0.3-1.9-1.5-5.2-2.6-6.8
			c1.3-0.6,2.8-1.7,2.8-4.2V22.2h21.3V47h-14.3v8.5l6.2-2.1c-0.6-1.2-1.2-2.4-1.7-3.5L956.8,47.6z M946.8,28.1v3.5h7.1v-3.5H946.8z
			 M953.9,41.1v-3.7h-7.1v3.7H953.9z M969.9,15.6V20h22.8v-4.4H969.9z M987.1,26.5h-13.2v6h13.2V26.5z M973.8,49.9v6.7h16v-6.7
			H973.8z"/>
	</g>
	<path class="st0" d="M501.7,28.3v-8.5h-27.2c0.7-6.5,0.8-12.8,0.8-18.5h-9c-0.1,5.7,0,12-0.7,18.5h-25.2v8.5h23.8
		c-2.7,11.9-9.3,23.5-25.2,30.5c2.4,1.7,4.9,4.7,6.2,7c14.7-7.1,22.2-17.9,25.9-29.5c5.4,13.4,13.4,23.5,26,29.4
		c1.3-2.4,4-6,6.1-7.8c-13-5.3-21.3-16.2-25.9-29.7H501.7z"/>
	<path class="st0" d="M578.1,58.3c-0.3,0-0.6-0.1-0.8-0.3c-0.1-0.3-0.2-1.1-0.2-2.6V25.8h-25.9v12.4c0,7.2-1,16-11,22
		c1.5,1.2,4.5,4.6,5.5,6.3c11.4-7,13.6-19,13.6-28.2v-4.9h9.5v22.1c0,5.3,0.6,6.7,1.8,8.1c1.2,1.2,3.1,1.8,4.8,1.8h3.7
		c1.5,0,3.1-0.3,4.2-1.1c1-0.8,1.8-1.9,2.3-3.7c0.4-1.8,0.7-6.2,0.8-9.9c-1.9-0.6-4.5-1.9-6-3.3c0,3.8-0.1,6.9-0.2,8.1
		c-0.1,1.4-0.2,1.9-0.4,2.3c-0.3,0.2-0.6,0.3-0.9,0.3H578.1z M544.7,40.2c-2.5,1-4.9,1.9-7.4,2.8V25h7.7v-7.8h-7.7V2.1h-7.8v15.1
		H522V25h7.6v20.8c-3.2,1.2-6.1,2.2-8.5,2.9l2.1,8.5c6.8-2.8,15.2-6.3,23.1-9.8L544.7,40.2z M586.1,12.5h-22.8l6.4-1.9
		c-0.8-2.7-2.6-6.9-4.1-10l-8,2.1c1.4,3,2.9,7.1,3.7,9.9h-15v7.8h39.9V12.5z"/>
	<path class="st0" d="M632.9,1.7c-0.2,24.2,1.3,46.5-27.4,57.4c2.2,1.8,4.7,4.9,5.8,7c14.2-5.8,21.8-14.4,26-24.6
		c5.3,11.9,13.4,19.9,27.2,23.9c1.2-2.4,3.6-6,5.5-7.8c-16.8-3.8-25.2-14.2-29.2-29.4c1.3-8.5,1.4-17.4,1.5-26.6H632.9z M623.8,34.2
		c-1.2-5.3-4.3-14.1-6.7-20.7l-8.2,2.8c2.3,6.9,5.1,16,6.2,21.4L623.8,34.2z M658.1,14.9c-1.7,6.2-4.9,14.4-7.7,19.6l7.2,3.1
		c2.9-4.9,6.6-12.6,9.6-19.4L658.1,14.9z"/>
	<path class="st0" d="M749.5,55.2v-4.8h-18.2v-2.8h17.5v-4.7h-17.5V40h17.8v-4.8h-17.8v-2.7H749V16.4h-17.7v-3.9h20.4V5.9h-20.4V1.2
		h-8.1v21.3h18v3.8h-18V56c0,7.6,2.4,9.6,10.3,9.6h10.5c6.3,0,8.5-2.2,9.3-9.2C752.2,56.1,750.8,55.7,749.5,55.2z M734.6,59
		c-2.8,0-3.3-0.4-3.3-3v-0.8h14.8c-0.3,3-1,3.7-2.9,3.7H734.6z M716.1,14.7l-6.7-1.5h10.1V6.4h-10.4c-0.5-1.8-1.2-3.9-2-5.6
		l-7.4,1.8c0.4,1.1,0.9,2.5,1.2,3.8h-11.5v6.9h9.6l-5.9,1.4c0.6,1.7,1.2,3.7,1.7,5.6h-6.4v6.9h32.1v-6.9h-6.8L716.1,14.7z
		 M708.7,13.2c-0.4,2.1-1.3,4.8-2.1,7h-4.8c-0.3-1.9-1.2-4.8-2.1-7H708.7z M718,30h-26.3v13.7c0,5.8-0.2,13.2-3.4,18.6
		c1.7,0.7,4.8,2.8,6,4c2.3-4,3.4-9.2,3.9-14.3l1.9,5.3c3-1.7,6.4-3.5,9.8-5.4v5.6c0,0.8-0.3,1-1.1,1c-0.7,0.1-3.1,0.1-5.3-0.1
		c1,1.9,2.2,5,2.6,7.2c3.9,0,6.9-0.1,9.1-1.4c2.3-1.2,2.9-3.1,2.9-6.6V30z M709.9,35.9v5.8c-2-1.1-5.6-2.6-8.2-3.6l-3.1,3.7v-5.8
		H709.9z M698.6,41.9c2.8,1.2,6.2,2.9,8.1,4l3.2-4v4.5c-4.3,1.7-8.5,3.3-11.5,4.2c0.1-2.4,0.2-4.7,0.2-6.7V41.9z"/>
	<path class="st0" d="M836.3,20.9v-8.1h-30.2l6-1.9c-0.8-2.8-2.9-7.3-4.7-10.5l-8.8,2.6c1.6,3.1,3.1,6.9,3.9,9.8h-29.3v8.1h10.9
		c3.7,9.8,8.5,18.1,14.8,25c-7.2,5.6-16.1,9.6-27,12.3c1.7,1.9,4.1,5.8,5,7.7c11.2-3.2,20.4-7.8,28.1-14
		c7.3,6.1,16.2,10.7,27.1,13.6c1.2-2.3,3.7-5.9,5.5-7.7c-10.3-2.4-19.1-6.5-26.2-12c6-6.7,10.7-14.9,14.3-24.8H836.3z M816.4,20.9
		c-2.7,7.6-6.5,13.9-11.3,19.2c-5.3-5.5-9.5-11.9-12.5-19.2H816.4z"/>
	<path class="st0" d="M895.7,57.1c-3.3,0-3.8-0.7-3.8-4.8V28.1H916v-7.9h-24.1V2.5h-8v49.7c0,9.4,2.4,12.2,11,12.2h11.6
		c8.4,0,10.5-4.8,11.4-18.2c-2.1-0.4-5.4-2-7.3-3.5c-0.6,11.4-1.2,14.4-4.7,14.4H895.7z M870.8,1.5c-4,9.9-10.8,19.8-17.9,25.9
		c1.3,2.1,3.6,6.6,4.4,8.6c2.3-2.2,4.4-4.6,6.7-7.4V66h7.8V17.2c2.6-4.3,4.9-8.7,6.7-13.2L870.8,1.5z"/>
	<path class="st0" d="M994.3,39V21.6h5.7V9.1h-15.2l2.4-1.1c-1-2.1-2.7-5.1-4-7.4l-7.3,2.9c0.9,1.7,1.9,3.7,2.8,5.6h-15
		c-2.1-1.2-5.8-3-8.9-4.4c0.4-0.7,0.8-1.3,1.2-2l-6.4-2.4c-3.1,5.4-8.6,10.5-13.9,13.6c1,1.8,2.7,5.8,3.2,7.4c2.4-1.6,4.7-3.5,7-5.6
		v4h12.2v-5.4h-10.7c1.2-1.3,2.4-2.7,3.5-4c3.5,1.7,7.6,4,9.8,5.4l2.6-4.9v10.9h3.5V66h7.2v-2.4h16v2.2h7.3V43.1h-23.3V39H994.3z
		 M987.3,32.4h-13.2v-6h13.2V32.4z M992.9,15.6V20h-22.8v-4.4H992.9z M990.1,49.9v6.7h-16v-6.7H990.1z M951.4,50
		c0.6,1,1.2,2.2,1.7,3.5l-6.2,2.1V47h14.3V22.2H940v32.8c0,2.5-1.5,3.6-2.8,4.2c1.1,1.6,2.3,4.9,2.6,6.8c1.5-1.2,3.6-2.2,15.9-6.7
		c0.8,1.9,1.5,3.5,1.9,4.9l6-3c-1.4-3.5-4.4-9.2-6.7-13.5L951.4,50z M947,41.1v-3.7h7.1v3.7H947z M954.1,28.1v3.5H947v-3.5H954.1z"
		/>
	<g>
		<path d="M447.7,93.4h-9.8v-6.6h26.8v6.6h-9.8v25.8h-7.1V93.4z"/>
		<path d="M475.8,86.6h6.6l13.9,32.6h-7.4l-3-7.3h-13.7l-3,7.3h-7.3L475.8,86.6z M483.3,105.7L479,95.2l-4.3,10.5H483.3z"/>
		<path d="M499.9,86.9h7.1v32.4h-7.1V86.9z"/>
		<path d="M526.7,86.9h7.1v12.8h13.1V86.9h7.1v32.4h-7.1v-13h-13.1v13h-7.1V86.9z"/>
		<path d="M571.4,86.6h6.6l13.9,32.6h-7.4l-3-7.3h-13.7l-3,7.3h-7.3L571.4,86.6z M578.9,105.7l-4.3-10.5l-4.3,10.5H578.9z"/>
		<path d="M595.3,86.9h6.6l15.2,19.9V86.9h7v32.4H618l-15.7-20.6v20.6h-7V86.9z"/>
		<path d="M629.2,103.2L629.2,103.2c0-9.3,7.2-16.8,17-16.8c5.8,0,9.3,1.6,12.7,4.4l-4.5,5.4c-2.5-2.1-4.7-3.3-8.5-3.3
			c-5.2,0-9.3,4.6-9.3,10.1v0.1c0,5.9,4.1,10.3,9.8,10.3c2.6,0,4.9-0.6,6.7-1.9v-4.6H646v-6.2H660v14.1c-3.3,2.8-7.9,5.1-13.8,5.1
			C636.1,119.8,629.2,112.7,629.2,103.2z"/>
		<path d="M678.5,86.9h24.6v6.5h-17.5v6.9H701v6.5h-15.4v12.5h-7.1V86.9z"/>
		<path d="M707.7,86.9h7.1v32.4h-7.1V86.9z"/>
		<path d="M721.7,86.9h14.8c4.1,0,7.3,1.2,9.4,3.3c1.8,1.8,2.8,4.3,2.8,7.4v0.1c0,5.2-2.8,8.5-6.9,10l7.9,11.6h-8.3l-6.9-10.4h-5.6
			v10.4h-7.1V86.9z M736,102.6c3.5,0,5.5-1.9,5.5-4.6v-0.1c0-3.1-2.1-4.6-5.6-4.6h-7.1v9.3H736z"/>
		<path d="M754.1,86.9h24.4v6.3h-17.3v6.6h15.3v6.3h-15.3v6.8h17.6v6.3h-24.6V86.9z"/>
		<path d="M796.7,86.9h12.6c10.2,0,17.2,7,17.2,16.1v0.1c0,9.1-7,16.2-17.2,16.2h-12.6V86.9z M803.8,93.3v19.5h5.5
			c5.8,0,9.8-3.9,9.8-9.7v-0.1c0-5.7-3.9-9.8-9.8-9.8H803.8z"/>
		<path d="M831.5,86.9h14.8c4.1,0,7.3,1.2,9.4,3.3c1.8,1.8,2.8,4.3,2.8,7.4v0.1c0,5.2-2.8,8.5-6.9,10l7.9,11.6h-8.3l-6.9-10.4h-5.6
			v10.4h-7.1V86.9z M845.9,102.6c3.5,0,5.5-1.9,5.5-4.6v-0.1c0-3.1-2.1-4.6-5.6-4.6h-7.1v9.3H845.9z"/>
		<path d="M875.7,86.6h6.6l13.9,32.6h-7.4l-3-7.3h-13.7l-3,7.3h-7.3L875.7,86.6z M883.2,105.7l-4.3-10.5l-4.3,10.5H883.2z"/>
		<path d="M896.4,103.2L896.4,103.2c0-9.3,7.2-16.8,17-16.8c5.8,0,9.3,1.6,12.7,4.4l-4.5,5.4c-2.5-2.1-4.7-3.3-8.5-3.3
			c-5.2,0-9.3,4.6-9.3,10.1v0.1c0,5.9,4.1,10.3,9.8,10.3c2.6,0,4.9-0.6,6.7-1.9v-4.6h-7.2v-6.2h14.1v14.1c-3.3,2.8-7.9,5.1-13.8,5.1
			C903.3,119.8,896.4,112.7,896.4,103.2z"/>
		<path d="M931.4,103.2L931.4,103.2c0-9.3,7.3-16.8,17.2-16.8c10,0,17.1,7.4,17.1,16.7v0.1c0,9.2-7.3,16.8-17.2,16.8
			S931.4,112.4,931.4,103.2z M958.3,103.2L958.3,103.2c0-5.6-4.1-10.3-9.8-10.3s-9.7,4.5-9.7,10.1v0.1c0,5.6,4.1,10.2,9.8,10.2
			C954.3,113.3,958.3,108.7,958.3,103.2z"/>
		<path d="M970.8,86.9h6.6l15.2,19.9V86.9h7v32.4h-6.1l-15.7-20.6v20.6h-7V86.9z"/>
	</g>
	<polygon class="st0" points="447.7,119.3 454.8,119.3 454.8,93.5 464.7,93.5 464.7,86.9 437.9,86.9 437.9,93.5 447.7,93.5 	"/>
	<path class="st0" d="M474.6,105.7l4.3-10.5l4.3,10.5H474.6z M461.9,119.3h7.3l3-7.3h13.7l3,7.3h7.4l-13.9-32.6h-6.6L461.9,119.3z"
		/>
	<rect x="499.8" y="86.9" class="st0" width="7.1" height="32.4"/>
	<polygon class="st0" points="526.5,119.3 533.6,119.3 533.6,106.3 546.8,106.3 546.8,119.3 553.9,119.3 553.9,86.9 546.8,86.9 
		546.8,99.7 533.6,99.7 533.6,86.9 526.5,86.9 	"/>
	<path class="st0" d="M570.1,105.7l4.3-10.5l4.3,10.5H570.1z M557.3,119.3h7.3l3-7.3h13.7l3,7.3h7.4l-13.9-32.6h-6.6L557.3,119.3z"
		/>
	<polygon class="st0" points="595.1,119.3 602.1,119.3 602.1,98.7 617.7,119.3 623.8,119.3 623.8,86.9 616.8,86.9 616.8,106.8 
		601.6,86.9 595.1,86.9 	"/>
	<g>
		<path d="M440.2,140.4h7.1v12.8h13.1v-12.8h7.1v32.4h-7.1v-13h-13.1v13h-7.1V140.4z"/>
		<path d="M474.3,140.4h24.4v6.3h-17.3v6.6h15.3v6.3h-15.3v6.8H499v6.3h-24.6V140.4z"/>
		<path d="M504.6,140.4h14.8c4.1,0,7.3,1.2,9.4,3.3c1.8,1.8,2.8,4.3,2.8,7.4v0.1c0,5.2-2.8,8.5-6.9,10l7.9,11.6h-8.3l-6.9-10.4h-5.6
			v10.4h-7.1V140.4z M518.9,156.1c3.5,0,5.5-1.9,5.5-4.6v-0.1c0-3.1-2.1-4.6-5.6-4.6h-7.1v9.3H518.9z"/>
		<path d="M537.1,140.4h7.1v32.4h-7.1V140.4z"/>
		<path d="M557.8,146.9H548v-6.6h26.8v6.6h-9.8v25.8h-7.1V146.9z"/>
		<path d="M585.8,140.1h6.6l13.9,32.6h-7.4l-3-7.3h-13.7l-3,7.3H572L585.8,140.1z M593.3,159.2l-4.3-10.5l-4.3,10.5H593.3z"/>
		<path d="M606.5,156.7L606.5,156.7c0-9.3,7.2-16.8,17-16.8c5.8,0,9.3,1.6,12.7,4.4l-4.5,5.4c-2.5-2.1-4.7-3.3-8.5-3.3
			c-5.2,0-9.3,4.6-9.3,10.1v0.1c0,5.9,4.1,10.3,9.8,10.3c2.6,0,4.9-0.6,6.7-1.9v-4.6h-7.2v-6.2h14.1v14.1c-3.3,2.8-7.9,5.1-13.8,5.1
			C613.5,173.3,606.5,166.2,606.5,156.7z"/>
		<path d="M643.4,140.4h24.4v6.3h-17.3v6.6h15.3v6.3h-15.3v6.8h17.6v6.3h-24.6V140.4z"/>
		<path d="M684.6,156.7L684.6,156.7c0-9.3,6.9-16.8,16.9-16.8c6.1,0,9.8,2,12.8,5l-4.5,5.2c-2.5-2.3-5-3.7-8.3-3.7
			c-5.5,0-9.4,4.5-9.4,10.1v0.1c0,5.6,3.8,10.2,9.4,10.2c3.7,0,6-1.5,8.5-3.8l4.5,4.6c-3.3,3.6-7,5.8-13.3,5.8
			C691.7,173.3,684.6,166,684.6,156.7z"/>
		<path d="M718.5,140.4h24.4v6.3h-17.3v6.6h15.3v6.3h-15.3v6.8h17.6v6.3h-24.6V140.4z"/>
		<path d="M748.7,140.4h6.6l15.2,19.9v-19.9h7v32.4h-6.1l-15.7-20.6v20.6h-7V140.4z"/>
		<path d="M791,146.9h-9.8v-6.6H808v6.6h-9.8v25.8H791V146.9z"/>
		<path d="M811.6,140.4h14.8c4.1,0,7.3,1.2,9.4,3.3c1.8,1.8,2.8,4.3,2.8,7.4v0.1c0,5.2-2.8,8.5-6.9,10l7.9,11.6h-8.3l-6.9-10.4h-5.6
			v10.4h-7.1V140.4z M826,156.1c3.5,0,5.5-1.9,5.5-4.6v-0.1c0-3.1-2.1-4.6-5.6-4.6h-7.1v9.3H826z"/>
		<path d="M844,140.4h24.4v6.3h-17.3v6.6h15.3v6.3h-15.3v6.8h17.6v6.3H844V140.4z"/>
	</g>
	<polygon class="st0" points="440.2,172.8 447.3,172.8 447.3,159.8 460.4,159.8 460.4,172.8 467.5,172.8 467.5,140.4 460.4,140.4 
		460.4,153.2 447.3,153.2 447.3,140.4 440.2,140.4 	"/>
	<polygon class="st0" points="474.3,172.8 499,172.8 499,166.4 481.4,166.4 481.4,159.6 496.7,159.6 496.7,153.3 481.4,153.3 
		481.4,146.7 498.7,146.7 498.7,140.4 474.3,140.4 	"/>
	<path class="st1" d="M38.2,20.3h19.1V1.1H38.2V20.3z M267.5,20.3h19.1V1.1h-19.1V20.3z M210.2,20.3h19.1V1.1h-19.1V20.3z
		 M324.8,20.3h19.1V1.1h-19.1V20.3z M382.1,20.3h19.1V1.1h-19.1V20.3z"/>
	<polygon points="382.1,29.8 382.1,154.1 343.9,154.1 343.9,29.8 324.8,29.8 324.8,154.1 286.6,154.1 286.6,29.8 267.5,29.8 
		267.5,154.1 229.3,154.1 229.3,29.8 210.2,29.8 210.2,154.1 171.9,154.1 171.9,1.1 114.6,1.1 95.5,20.3 95.5,154.1 57.3,154.1 
		57.3,29.8 38.2,29.8 38.2,154.1 0,154.1 0,173.3 95.5,173.3 114.6,154.1 114.6,20.3 152.8,20.3 152.8,173.3 382.1,173.3 
		401.2,154.1 401.2,29.8 	"/>
</g>
</svg>
