<?xml version="1.0" encoding="UTF-8"?><svg xmlns="http://www.w3.org/2000/svg" viewBox="0 0 140.1 120.9"><defs><style>.d{fill:#e63278;}.e{fill:#fff;}</style></defs><g id="a"/><g id="b"><g id="c"><g><g><path class="e" d="M12.7,105.9h2.1l-3.5-8.2h-1.8l-3.5,8.2h2l.7-1.8h3.2l.7,1.8Zm-3.3-3.5l.9-2.2,.9,2.2h-1.8Zm117.3-4.8c-2.4,0-4.4,1.9-4.4,4.2h0c0,2.4,1.9,4.2,4.3,4.2s4.4-1.9,4.4-4.3-1.9-4.2-4.3-4.2Zm2.3,4.3c0,1.4-1,2.4-2.3,2.4s-2.3-1-2.3-2.4,1-2.4,2.3-2.4,2.3,1,2.3,2.4h0Zm-24.3,4.1l-2-2.9c1.1-.4,1.7-1.3,1.7-2.5s-.2-1.4-.7-1.9c-.5-.5-1.4-.8-2.4-.8h-3.8v8.2h2v-2.6h1.2l1.7,2.6h2.3Zm-3.6-4.3h-1.7v-2.1h1.6c.5,0,1.3,.1,1.3,1.1s-.5,1-1.2,1Zm-83.8-3.9h-2v8.2h2v-8.2Zm51.4,0h-2v8.2h2v-8.2Zm3.5,5.6h1.2l1.7,2.6h2.3l-2-2.9c1.1-.4,1.7-1.3,1.7-2.5s-.2-1.4-.7-1.9c-.5-.5-1.4-.8-2.4-.8h-3.8v8.2h2v-2.6Zm0-3.8h1.6c.5,0,1.3,.1,1.3,1.1s-.5,1-1.2,1h-1.7v-2.1ZM2.4,105.9h2v-6.4h2.4v-1.8H0v1.8H2.4v6.4Zm49.3,.1c1.3,0,2.5-.4,3.5-1.3h0v-3.6h-3.7v1.7h1.8v1c-.4,.3-1,.4-1.6,.4-1.3,0-2.3-1-2.3-2.5s1-2.4,2.2-2.4,1.4,.3,2,.8h0l1.2-1.4h0c-.9-.9-1.9-1.2-3.2-1.2-2.4,0-4.3,1.9-4.3,4.2h0c0,2.5,1.8,4.2,4.3,4.2Zm-19.4-1.9h3.2l.7,1.8h2.1l-3.5-8.2h-1.8l-3.5,8.2h2l.7-1.8Zm1.6-4l.9,2.2h-1.8l.9-2.2Zm7,.9l3.7,4.9h1.6v-8.2h-1.9v4.7l-3.6-4.7h-1.8v8.2h1.9v-4.9Zm96.5-3.3v4.7l-3.6-4.7h-1.8v8.2h1.9v-4.9l3.7,4.9h1.6v-8.2h-1.9Zm-57.2,4.9h3.8v-1.8h-3.8v-1.4h4.3v-1.8h-6.2v8.2h6.3v-1.8h-4.3v-1.5Zm-51.4,3.2v-8.2h-2v3.2h-3v-3.2h-2v8.2h2v-3.2h3v3.2h2Zm67.5-4.1c0-2.4-1.8-4.1-4.3-4.1h-3.2v8.2h3.2c2.5,0,4.3-1.7,4.3-4.1Zm-4.3,2.3h-1.3v-4.6h1.3c1.4,0,2.3,.9,2.3,2.3s-.9,2.3-2.3,2.3Zm18.2-6.5h-1.8l-3.5,8.2h2l.7-1.8h3.2l.7,1.8h2.1l-3.5-8.2h0Zm-1.8,4.6l.9-2.2,.9,2.2h-1.8Zm9.3,.5h1.8v1c-.4,.3-1,.4-1.6,.4-1.3,0-2.3-1-2.3-2.5s1-2.4,2.2-2.4,1.4,.3,2,.8h0l1.2-1.4h0c-.9-.9-1.9-1.2-3.2-1.2-2.4,0-4.3,1.9-4.3,4.2h0c0,2.5,1.8,4.2,4.3,4.2s2.5-.4,3.5-1.3h0v-3.6h-3.7v1.7Zm-56.2,0h3.8v-1.8h-3.8v-1.5h4.3v-1.8h-6.3v8.2h2v-3.1Z"/><g><path class="d" d="M13.5,6.6h6.6V0h-6.6V6.6Zm79.7,0h6.6V0h-6.6V6.6Zm-19.9,0h6.6V0h-6.6V6.6Zm39.8,0h6.6V0h-6.6V6.6ZM133,0V6.6h6.6V0h-6.6Z"/><polygon class="e" points="133 10 133 53.1 119.8 53.1 119.8 10 113.1 10 113.1 53.1 99.8 53.1 99.8 10 93.2 10 93.2 53.1 79.9 53.1 79.9 10 73.3 10 73.3 53.1 60 53.1 60 0 40.1 0 33.4 6.6 33.4 53.1 20.2 53.1 20.2 10 13.5 10 13.5 53.1 .3 53.1 .3 59.8 33.4 59.8 40.1 53.1 40.1 6.6 53.4 6.6 53.4 59.8 133 59.8 139.7 53.1 139.7 10 133 10"/></g><path class="e" d="M51.5,80.3c.4-2.3,.4-4.7,.4-7.3h-2.8c0,.3,0,.7,0,1,0,6.3,0,11.7-7.4,14.5h-.2l.2,.2c.6,.5,1.3,1.3,1.5,1.9h.2c3.5-1.3,5.8-3.5,7.1-6.5,1.6,3.4,3.9,5.3,7.4,6.4h.1c.3-.8,1-1.7,1.5-2.2l.2-.2h-.2c-4.2-1-6.7-3.5-7.9-8Zm4.6,2.6c.7-1.2,1.7-3.1,2.6-5.3h0l-2.7-1.1h0c-.4,1.8-1.3,4-2.1,5.5h0l2.2,1.1h0Zm-18.7,2.5l-.2-.2v.3c0,1.1,0,1.9,0,2.2,0,.3,0,.5,0,.5,0,0-.1,0-.2,0h-.3c0,0,0,0,0,0,0,0,0-.1,0-.7v-8.2h-7.3v3.5c0,2.1-.4,4.3-2.9,5.9h-.2v.2c.5,.3,1.3,1.2,1.6,1.7h.2c2.5-1.5,3.8-4.1,3.8-7.8v-1.2h2.4v5.9c0,1.5,.2,1.9,.5,2.3,.4,.4,1,.5,1.4,.5h1c.3,0,.9,0,1.2-.3,.3-.3,.5-.6,.7-1.1,.1-.5,.2-1.8,.2-2.7h0c-.5-.3-1.2-.6-1.6-1Zm1.6-9.7h-5.5l1.1-.3h0c-.2-.8-.7-2-1.1-2.9h0l-2.4,.5h0c.3,.9,.7,1.9,1,2.7h-4.1v2.4h11.2v-2.4Zm-27.3,4.6h6.6v-2.6h-7.5c.2-1.7,.2-3.4,.2-4.9v-.2h-2.7v.9c0,1.4,0,2.7-.2,4.2H1.2v2.6H7.8c-.9,3.8-3.1,6.5-6.8,8.1h-.2l.2,.2c.7,.5,1.3,1.3,1.7,1.9h.2c3.5-1.6,5.8-4.2,7.1-7.8,1.6,3.8,3.9,6.3,7.1,7.8h.2c.4-.7,1.1-1.7,1.6-2.1h.2l-.2-.2c-3.2-1.3-5.6-4-7-7.9Zm16.4,5.2l-.5-2.2h-.1c-.3,.2-.7,.3-1,.4-.3,.1-.6,.2-.9,.3v-4.6h2.1v-2.4h-2.1v-4.1h-2.4v4.1h-2.1v2.4h2.1v5.5c-.9,.3-1.7,.6-2.2,.8h-.1l.7,2.6h.1c2-.9,4.3-1.9,6.3-2.7h0Zm16.1-2.7h0l2.6-.9h0c-.3-1.6-1.2-4-1.8-5.8h0l-2.5,.7h0c.6,2,1.4,4.5,1.7,6Zm84.1,2.6h1.2v-7.1h-6.1v9.1c0,.5-.2,.8-.7,1h-.1v.2c.4,.4,.7,1.3,.8,1.8v.2h.2c.4-.4,1-.7,4.2-1.9h0c.2,.5,.3,.9,.4,1.2h0l1.9-.8h0c-.3-.9-.9-2.1-1.8-3.8Zm-2.8-5.2h1.7v.7h-1.7v-.7Zm0,2.5h1.7v.8h-1.7v-.8Zm.9,3.3h0c.1,.4,.3,.7,.4,.9l-1.4,.5v-2h2.4l-1.5,.6Zm-8.5-2h-.2c-.2,3.3-.4,3.9-1.2,3.9h-2.8c-.8,0-.9,0-.9-1.2v-6.5h6.6v-2.4h-6.6v-4.8h-2.4v13.7c0,2.7,.7,3.5,3.1,3.5h3.2c2.5,0,3-1.6,3.2-5.1h-.1c-.6-.2-1.4-.7-1.9-1.1Zm-11.1-11.3c-1.1,2.7-2.9,5.4-4.9,7h0v.2c.4,.6,1,1.8,1.2,2.3v.2h.2c.5-.6,1-1.2,1.6-1.9v10h2.4v-13.4c.7-1.2,1.3-2.4,1.8-3.6h0l-2.3-.9h0Zm31.6,10.5v-4.7h1.6v-3.7h-3.5v-.2c-.3-.5-.8-1.3-1.2-2h0l-2.2,.8h0c.2,.5,.5,1,.7,1.5h-3.9c-.6-.3-1.5-.8-2.3-1.1h0c0-.2,.2-.3,.2-.4h0l-2-.9h0c-.8,1.4-2.2,2.8-3.8,3.8h-.1v.2c.3,.5,.8,1.6,.9,2v.2h.2c.6-.5,1.2-1,1.7-1.5v.9h3.6v-1.4c.2,.1,.4,.2,.5,.3h.1l.6-1v2.6h1v12.1h2.2v-.6h4.1v.6h2.2v-6.4h-6.4v-.9h5.5Zm-12.7-7c.3-.3,.5-.6,.7-.8,.5,.3,1.1,.6,1.6,.8h-2.3Zm10.5,5h-3.4v-1.4h3.4v1.4Zm.8,5v1.6h-4.1v-1.6h4.1Zm-5.2-8.5v-.9h6v.9h-6Zm-38.5,7.2c1.6-1.8,2.9-4,3.8-6.7h2.9v-2.5h-7.6l1-.3h0c-.2-1-.8-2.2-1.3-3h0l-2.7,.7h0c.4,.9,.8,1.9,1,2.6h-8v2.5h3c1,2.7,2.3,4.9,3.9,6.7-1.9,1.4-4.3,2.5-7.2,3.3h-.2v.2c.6,.5,1.2,1.5,1.5,2.1h.1c3.1-.8,5.6-2.1,7.7-3.7,2,1.7,4.5,2.9,7.4,3.7h.1c.4-.7,1-1.7,1.5-2.1l.2-.2h-.2c-2.7-.7-5.1-1.8-7-3.2Zm-5.1-6.7h6.2c-.7,1.9-1.7,3.5-2.9,5-1.4-1.4-2.4-3.1-3.2-5Zm-25.5,6.1c0,1.2,0,3.5-.9,5h0v.2c.6,.2,1.4,.8,1.7,1.1h.2c.5-.9,.8-2,1-3.5l.4,1.1,.4-.2c.7-.4,1.5-.8,2.2-1.2v1.3c0,.1,0,.1-.2,.1-.2,0-.8,0-1.4,0h-.2v.2c.4,.5,.7,1.3,.8,1.9h.1c1,.1,1.9,0,2.5-.3,.7-.4,.9-1,.9-1.9v-7.7h-7.5v3.9Zm2.1-2h2.8v1.2c-.6-.3-1.5-.7-2.1-.9h0l-.7,.8v-1.1Zm0,2.1v-.3c.7,.3,1.6,.7,2,1h0l.7-.9v.8c-1.1,.4-2.1,.8-2.9,1.1,0-.6,0-1.2,0-1.7Zm4.9-8.1l-.9-.2h1.7v-2.1h-2.9c-.1-.5-.3-1-.5-1.5h0l-2.3,.5h0c.1,.5,.2,.7,.3,1h-3.1v2.1h1.7l-.7,.2h0c.1,.5,.3,1,.4,1.5h-1.7v2.1h9v-2.1h-1.8l.7-1.5Zm-2.9,1.5h-1.1c0-.5-.3-1.1-.5-1.7h2.1c-.1,.5-.3,1.1-.5,1.7Zm12,9.6v-1.3h-5v-.5h4.8v-1.5h-4.8v-.5h4.9v-1.6h-4.9v-.5h4.9v-4.7h-4.9v-.8h5.6v-2.1h-5.6v-1.3h-2.5v6.1h4.9v.8h-4.9v8.2c0,2.1,.7,2.7,2.9,2.7h2.9c1.8,0,2.5-.6,2.7-2.6h-.1c-.3-.2-.6-.3-.9-.4Zm-1.8,1h-2.4c-.7,0-.8,0-.8-.7h3.8c-.1,.6-.3,.7-.7,.7Z"/></g><g><polygon class="e" points="26.9 117.5 30.6 117.5 30.6 115.8 26.9 115.8 26.9 114.3 31.1 114.3 31.1 112.6 24.9 112.6 24.9 120.8 31.2 120.8 31.2 119 26.9 119 26.9 117.5"/><polygon class="e" points="21.4 115.7 18.4 115.7 18.4 112.6 16.4 112.6 16.4 120.8 18.4 120.8 18.4 117.6 21.4 117.6 21.4 120.8 23.4 120.8 23.4 112.6 21.4 112.6 21.4 115.7"/><path class="e" d="M39.3,115.3c0-.8-.2-1.4-.7-1.9-.5-.5-1.4-.8-2.4-.8h-3.8v8.2h2v-2.6h1.2l1.7,2.6h2.3l-2-2.9c1.1-.4,1.7-1.3,1.7-2.5Zm-3.2,1.1h-1.7v-2.1h1.6c.5,0,1.3,.1,1.3,1.1s-.5,1-1.2,1Z"/><rect class="e" x="40.5" y="112.6" width="2" height="8.2"/><polygon class="e" points="87.5 117.5 91.2 117.5 91.2 115.8 87.5 115.8 87.5 114.3 91.7 114.3 91.7 112.6 85.5 112.6 85.5 120.8 91.8 120.8 91.8 119 87.5 119 87.5 117.5"/><polygon class="e" points="101.1 114.4 103.5 114.4 103.5 120.8 105.5 120.8 105.5 114.4 107.9 114.4 107.9 112.6 101.1 112.6 101.1 114.4"/><polygon class="e" points="98.4 117.3 94.8 112.6 93 112.6 93 120.8 95 120.8 95 115.9 98.7 120.8 100.3 120.8 100.3 112.6 98.4 112.6 98.4 117.3"/><polygon class="e" points="118.6 119 118.6 117.5 122.4 117.5 122.4 115.8 118.6 115.8 118.6 114.3 122.9 114.3 122.9 112.6 116.7 112.6 116.7 120.8 123 120.8 123 119 118.6 119"/><path class="e" d="M115.5,115.3c0-.8-.2-1.4-.7-1.9-.5-.5-1.4-.8-2.4-.8h-3.8v8.2h2v-2.6h1.2l1.7,2.6h2.3l-2-2.9c1.1-.4,1.7-1.3,1.7-2.5Zm-3.2,1.1h-1.7v-2.1h1.6c.5,0,1.3,.1,1.3,1.1s-.5,1-1.2,1Z"/><path class="e" d="M83.4,118.2c-.6,.6-1.2,.9-2,.9-1.3,0-2.2-1-2.2-2.4s1-2.4,2.2-2.4,1.3,.3,2,.9h0l1.2-1.4h0c-.9-.9-1.9-1.3-3.2-1.3-2.4,0-4.3,1.8-4.3,4.2h0c0,2.4,1.8,4.2,4.2,4.2s2.4-.4,3.3-1.5h0l-1.3-1.3h0Z"/><polygon class="e" points="50.1 112.6 43.2 112.6 43.2 114.4 45.7 114.4 45.7 120.8 47.6 120.8 47.6 114.4 50.1 114.4 50.1 112.6"/><path class="e" d="M54.4,112.5h-1.8l-3.5,8.2h2l.7-1.8h3.2l.7,1.8h2.1l-3.5-8.2h0Zm-1.8,4.6l.9-2.2,.9,2.2h-1.8Z"/><path class="e" d="M62,117.7h1.8v1c-.4,.3-1,.4-1.6,.4-1.3,0-2.3-1-2.3-2.5s1-2.4,2.2-2.4,1.4,.3,2,.8h0l1.2-1.4h0c-.9-.9-1.9-1.2-3.2-1.2-2.4,0-4.3,1.9-4.3,4.2h0c0,2.5,1.8,4.2,4.3,4.2s2.5-.4,3.5-1.3h0v-3.6h-3.7v1.7Z"/><polygon class="e" points="68.9 117.5 72.7 117.5 72.7 115.8 68.9 115.8 68.9 114.3 73.2 114.3 73.2 112.6 67 112.6 67 120.8 73.3 120.8 73.3 119 68.9 119 68.9 117.5"/></g></g></g></g></svg>