<?xml version="1.0" encoding="UTF-8"?>
<svg width="25px" height="31px" viewBox="0 0 25 31" version="1.1" xmlns="http://www.w3.org/2000/svg" xmlns:xlink="http://www.w3.org/1999/xlink">
    <!-- Generator: Sketch 60.1 (88133) - https://sketch.com -->
    <title>Fill 1</title>
    <desc>Created with Sketch.</desc>
    <g id="Page-1" stroke="none" stroke-width="1" fill="none" fill-rule="evenodd">
        <g id="contact" transform="translate(-109.000000, -1193.000000)" fill="#E63278">
            <path d="M115.26079,1213.16194 C114.405856,1213.15957 113.698055,1213.8558 113.692771,1214.70411 C113.687545,1215.54563 114.39455,1216.2534 115.250121,1216.26288 C116.092317,1216.27205 116.815404,1215.55701 116.815723,1214.71486 C116.8162,1213.86165 116.117794,1213.16431 115.26079,1213.16194 M126.187515,1214.69826 C126.181624,1215.54705 126.876049,1216.24865 127.735601,1216.26272 C128.573019,1216.27616 129.307571,1215.55717 129.310927,1214.7204 C129.314259,1213.87319 128.611395,1213.16811 127.757416,1213.16178 C126.901208,1213.15562 126.193248,1213.84853 126.187515,1214.69826 M121.501858,1210.05231 C122.989115,1210.05231 124.476373,1210.0542 125.96363,1210.05183 C127.995632,1210.04867 129.310119,1208.75138 129.313782,1206.74221 C129.317126,1204.81746 129.317285,1202.89271 129.313622,1200.96797 C129.30996,1198.9735 127.998976,1197.66404 125.998662,1197.66135 C122.999784,1197.65756 120.000906,1197.6574 117.002028,1197.66151 C115.002988,1197.6642 113.691845,1198.97555 113.688501,1200.96955 C113.685316,1202.8943 113.685316,1204.81904 113.688501,1206.74379 C113.691845,1208.73494 115.006332,1210.04646 117.00362,1210.05152 C118.50298,1210.05531 120.002498,1210.05231 121.501858,1210.05231 M111.920193,1220.57432 C110.481343,1219.8909 109.562396,1218.88955 109.183416,1217.45472 C109.067333,1217.01508 109.012079,1216.54729 109.010964,1216.09214 C108.999181,1211.01776 108.995837,1205.94322 109.006187,1200.86884 C109.01399,1197.00512 111.580385,1193.89833 115.378783,1193.14345 C115.829738,1193.05381 116.298367,1193.01745 116.759035,1193.01587 C119.917785,1193.00512 123.076854,1192.98615 126.235286,1193.01618 C129.984481,1193.05191 133.051671,1195.56144 133.823962,1199.2032 C133.948643,1199.79035 133.989885,1200.40453 133.991477,1201.00638 C134.004376,1205.93548 133.998802,1210.86457 133.998802,1215.79367 C133.998802,1218.09768 133.215683,1219.41947 131.081134,1220.59076 C131.364254,1220.83153 131.636228,1221.03436 131.874285,1221.27087 C132.562818,1221.9554 132.589252,1222.90489 131.953584,1223.53614 C131.315847,1224.16961 130.362028,1224.14321 129.670946,1223.46374 C128.882254,1222.6883 128.10646,1221.89975 127.30885,1221.13364 C127.18608,1221.01587 126.976208,1220.92749 126.806144,1220.92702 C123.269369,1220.91516 119.732435,1220.91516 116.19566,1220.92702 C116.026075,1220.92765 115.816839,1221.01745 115.694069,1221.13554 C114.870186,1221.92694 114.07178,1222.74442 113.250922,1223.53899 C112.744235,1224.02954 112.060798,1224.1285 111.461117,1223.83635 C110.88994,1223.55812 110.508413,1222.96132 110.613508,1222.32201 C110.670514,1221.97421 110.866533,1221.62246 111.083093,1221.3341 C111.29615,1221.05033 111.614461,1220.84418 111.920193,1220.57432" id="Fill-1"></path>
        </g>
    </g>
</svg>